<?xml version="1.0" standalone="no"?>
<!DOCTYPE svg PUBLIC "-//W3C//DTD SVG 20010904//EN"
 "http://www.w3.org/TR/2001/REC-SVG-20010904/DTD/svg10.dtd">
<svg version="1.0" xmlns="http://www.w3.org/2000/svg"
 width="512.000000pt" height="512.000000pt" viewBox="0 0 512.000000 512.000000"
 preserveAspectRatio="xMidYMid meet">
<metadata>
Created by potrace 1.11, written by Peter Selinger 2001-2013
</metadata>
<g transform="translate(0.000000,512.000000) scale(0.100000,-0.100000)"
fill="#000000" stroke="none">
<path d="M0 4939 l0 -100 28 19 c31 23 73 67 127 135 l37 47 -35 0 c-31 0 -39
-6 -78 -60 -69 -94 -93 -89 -40 8 l29 52 -34 0 -34 0 0 -101z"/>
<path d="M256 4995 c-15 -25 -27 -47 -25 -49 11 -10 89 36 108 63 l22 31 -38
0 c-34 0 -41 -5 -67 -45z"/>
<path d="M510 5012 c-117 -70 -180 -126 -180 -159 0 -11 8 -10 35 7 32 20 24
5 -85 -160 -66 -100 -120 -186 -120 -191 0 -13 9 -11 49 12 24 14 60 56 111
131 41 61 121 174 177 250 88 118 99 138 80 138 -12 0 -42 -13 -67 -28z"/>
<path d="M621 4960 c-87 -98 -158 -204 -167 -247 -6 -30 -4 -33 18 -33 42 0
235 143 389 289 l74 70 -45 1 c-45 0 -48 -2 -158 -112 -61 -61 -115 -109 -118
-105 -9 8 49 91 113 165 l46 52 -41 0 c-39 0 -45 -5 -111 -80z"/>
<path d="M1035 5000 c-49 -50 -33 -50 70 0 l80 38 -55 1 c-52 1 -58 -1 -95
-39z"/>
<path d="M1300 5010 c-30 -15 -68 -43 -85 -60 -30 -32 -30 -32 -5 -25 14 4 60
25 103 46 42 22 77 37 77 35 0 -2 -43 -36 -95 -75 -166 -125 -528 -451 -515
-464 6 -6 300 198 434 301 52 39 161 117 242 172 l148 100 -125 0 c-116 -1
-127 -3 -179 -30z"/>
<path d="M2255 5030 c-331 -37 -719 -179 -1005 -367 -633 -416 -1045 -1081
-1141 -1843 -17 -131 -17 -444 0 -570 61 -458 221 -858 484 -1209 86 -116 292
-329 402 -418 285 -230 625 -398 975 -482 213 -51 260 -56 575 -56 271 0 311
2 420 23 820 157 1484 675 1822 1424 271 600 288 1305 46 1918 -234 593 -675
1073 -1243 1354 -156 77 -233 107 -404 156 -206 60 -304 72 -596 75 -146 2
-296 0 -335 -5z m410 -40 c72 -11 136 -29 146 -42 3 -4 27 -11 55 -14 27 -4
56 -10 64 -15 8 -5 -7 -5 -35 -1 -102 15 -523 7 -650 -12 -295 -44 -615 -153
-846 -286 -511 -296 -883 -733 -1078 -1267 -109 -299 -148 -552 -138 -903 6
-230 24 -351 84 -565 143 -513 470 -983 896 -1289 103 -73 295 -187 384 -227
140 -64 213 -99 213 -103 0 -20 -262 86 -395 160 -206 115 -339 216 -516 393
-302 303 -525 696 -628 1107 -61 246 -66 295 -66 604 0 250 3 301 23 415 103
591 426 1139 893 1515 362 291 831 493 1239 533 79 8 290 6 355 -3z m210 -164
c658 -97 1256 -478 1618 -1032 164 -250 268 -503 331 -803 59 -277 61 -615 6
-886 -179 -880 -825 -1546 -1712 -1764 -442 -109 -893 -91 -1333 54 -361 118
-633 286 -905 556 -333 330 -543 748 -627 1244 -28 167 -26 565 4 730 54 298
163 584 320 837 366 591 983 983 1694 1073 143 18 450 13 604 -9z m548 -71
c83 -24 341 -155 457 -232 148 -98 249 -180 371 -302 379 -379 614 -858 685
-1395 18 -141 18 -416 -1 -576 -65 -550 -308 -1040 -711 -1430 -347 -336 -745
-539 -1249 -637 -116 -22 -475 -29 -623 -12 -97 12 -108 15 -64 17 29 2 50 7
48 11 -3 4 7 8 22 8 146 0 532 41 712 74 1073 202 1850 1147 1850 2249 -1 474
-130 902 -395 1300 -88 131 -159 218 -278 338 -227 230 -403 355 -737 525 -96
49 -167 86 -157 83 10 -3 41 -13 70 -21z"/>
<path d="M2535 4790 c-93 -9 -162 -27 -169 -46 -15 -38 117 -81 458 -149 236
-47 569 -127 924 -222 78 -21 94 -11 51 33 -131 135 -478 294 -774 354 -84 17
-346 43 -395 38 -8 0 -51 -4 -95 -8z m600 -99 c76 -20 141 -45 162 -63 12 -10
10 -14 -9 -24 -28 -16 -216 -18 -273 -4 -105 28 -148 65 -108 95 26 20 144 18
228 -4z"/>
<path d="M1784 4625 c-248 -96 -470 -232 -626 -383 -141 -136 -160 -167 -54
-87 228 172 484 280 721 304 77 8 295 76 295 92 0 26 -237 22 -369 -6 -41 -8
-76 -14 -77 -12 -2 2 40 21 94 41 53 21 121 47 150 58 37 15 49 23 40 29 -24
16 -62 8 -174 -36z"/>
<path d="M2717 4550 c-63 -19 -74 -58 -32 -108 33 -39 99 -66 222 -91 162 -33
273 -26 329 22 32 28 25 48 -32 85 -105 70 -385 122 -487 92z m293 -65 c31
-16 34 -22 24 -50 -14 -37 -101 -58 -145 -35 -24 13 -25 57 -2 82 20 22 82 24
123 3z"/>
<path d="M2265 4540 c-63 -7 -176 -36 -209 -53 -17 -8 -5 -15 70 -41 50 -17
113 -46 141 -64 l50 -32 71 12 70 12 -23 30 c-13 17 -42 45 -64 61 -22 17 -41
33 -41 38 0 4 38 7 84 7 81 0 96 6 96 36 0 6 -178 2 -245 -6z"/>
<path d="M1798 4346 c-38 -13 -94 -38 -125 -56 -55 -31 -153 -115 -153 -132 0
-23 55 -27 168 -13 141 19 204 36 299 81 159 76 137 144 -46 144 -54 0 -95 -7
-143 -24z m126 -66 c68 -25 -5 -50 -149 -50 -90 0 -98 1 -84 16 38 38 172 57
233 34z"/>
<path d="M2440 4333 c-61 -6 -68 -16 -38 -55 13 -18 38 -57 53 -86 l29 -54 46
7 c25 4 46 8 48 9 1 2 -7 29 -18 61 -11 32 -20 62 -20 67 0 5 20 8 45 7 49 -3
60 3 52 26 -5 10 -20 15 -50 15 -25 0 -57 2 -73 4 -16 2 -49 1 -74 -1z"/>
<path d="M2790 4323 c-44 -7 -72 -36 -72 -75 0 -53 18 -77 79 -105 46 -21 66
-25 125 -21 66 4 72 6 104 41 19 20 34 45 34 55 0 38 -70 82 -158 101 -53 11
-65 11 -112 4z m121 -53 c27 -15 24 -56 -6 -85 -28 -29 -38 -31 -60 -9 -19 19
-13 58 12 87 19 20 27 21 54 7z"/>
<path d="M1476 4293 c-103 -26 -304 -154 -430 -274 -158 -149 -291 -354 -284
-436 l3 -38 165 161 c91 88 235 216 320 285 186 148 310 265 310 290 0 15 -7
19 -32 18 -18 -1 -42 -4 -52 -6z m-116 -150 c0 -5 -17 -20 -38 -35 -148 -107
-252 -187 -321 -247 -44 -39 -82 -71 -86 -71 -28 0 120 159 219 235 105 80
227 144 226 118z"/>
<path d="M3425 4283 c-67 -10 -167 -46 -155 -56 3 -2 28 -17 55 -34 l50 -30
131 5 130 5 35 -40 c31 -37 103 -83 129 -83 15 0 -54 92 -105 139 -25 23 -66
55 -92 71 -47 30 -88 35 -178 23z"/>
<path d="M3636 4282 c75 -68 192 -151 257 -183 134 -68 216 -128 333 -244 98
-96 113 -115 118 -151 3 -22 23 -67 44 -100 21 -32 51 -83 68 -111 16 -29 32
-53 36 -53 12 0 21 49 15 85 -9 52 -75 193 -123 261 -96 136 -332 333 -501
418 -108 54 -283 109 -247 78z"/>
<path d="M2106 4243 c-27 -9 -64 -32 -84 -50 -35 -33 -35 -33 -16 -54 60 -66
190 -89 279 -50 70 31 84 79 37 124 -50 48 -128 59 -216 30z m113 -69 c64 -54
14 -75 -66 -29 -55 33 -57 55 -4 55 28 0 49 -8 70 -26z"/>
<path d="M3194 4168 c-39 -29 -114 -101 -114 -109 0 -3 18 -14 40 -24 40 -18
41 -18 63 3 12 11 42 32 67 46 l45 25 25 -23 c27 -25 76 -41 84 -28 7 12 -81
96 -121 116 -42 21 -55 20 -89 -6z"/>
<path d="M2504 4106 c-17 -7 -34 -23 -37 -35 -8 -33 12 -92 43 -123 38 -37
105 -40 146 -5 39 34 40 105 2 143 -32 32 -106 42 -154 20z m101 -76 c8 -37
-2 -70 -21 -70 -8 0 -14 1 -14 3 0 1 -7 20 -14 42 -17 49 -6 81 24 65 10 -5
21 -23 25 -40z"/>
<path d="M1855 4076 c-33 -19 -71 -46 -84 -59 l-23 -25 48 -7 c27 -3 86 -15
130 -26 78 -20 83 -20 108 -4 14 10 26 21 26 25 0 9 -123 60 -145 60 -24 0
-18 16 11 29 21 9 24 14 14 26 -16 20 -16 20 -85 -19z"/>
<path d="M2776 4099 c-10 -31 -26 -171 -20 -180 3 -5 18 -9 33 -9 25 0 29 5
41 54 18 75 22 81 50 66 12 -6 28 -9 36 -6 28 11 13 34 -33 54 -72 31 -102 37
-107 21z"/>
<path d="M1474 4059 c-48 -14 -222 -209 -186 -209 5 0 48 18 95 40 80 37 217
80 257 80 21 0 66 35 81 62 11 20 9 20 -47 14 -33 -4 -92 -16 -133 -27 -40
-11 -76 -18 -78 -15 -3 2 9 14 26 27 48 35 43 45 -15 28z"/>
<path d="M2304 4061 c-69 -17 -69 -15 -4 -101 40 -52 68 -80 81 -80 32 0 33
26 1 84 -16 30 -27 58 -24 61 3 3 16 5 29 5 18 0 24 5 21 18 -4 19 -52 26
-104 13z"/>
<path d="M3634 4030 c-35 -14 -37 -29 -11 -68 58 -87 189 -186 341 -258 110
-52 130 -36 80 64 -53 107 -201 226 -319 257 -67 17 -63 17 -91 5z m211 -131
c53 -26 123 -84 114 -93 -14 -15 -212 76 -241 111 -12 15 -9 16 33 11 26 -3
68 -16 94 -29z"/>
<path d="M2964 3996 c-55 -55 -44 -124 23 -152 48 -20 90 -10 136 34 60 58 48
102 -36 137 -57 23 -85 19 -123 -19z m123 -33 c5 -15 -55 -83 -73 -83 -23 0
-16 42 13 72 27 29 53 33 60 11z"/>
<path d="M3355 3993 c-56 -30 -59 -57 -13 -109 47 -53 98 -74 186 -74 40 0 82
5 93 10 49 27 -5 110 -103 159 -68 34 -117 39 -163 14z m185 -80 c24 -22 -5
-34 -80 -31 -50 2 -65 6 -65 18 0 35 111 45 145 13z"/>
<path d="M2116 3969 c-37 -11 -76 -47 -76 -72 0 -28 60 -81 106 -95 115 -34
175 72 80 142 -38 29 -72 36 -110 25z m68 -74 c28 -26 35 -55 11 -55 -16 0
-85 57 -85 71 0 18 48 8 74 -16z"/>
<path d="M759 3889 c-230 -290 -370 -603 -441 -984 -30 -161 -32 -533 -4 -690
39 -221 92 -392 184 -592 28 -59 57 -136 66 -170 8 -35 27 -82 42 -105 79
-126 268 -352 359 -429 l39 -34 -47 62 c-78 102 -272 440 -412 718 -230 455
-267 1038 -99 1540 50 151 113 287 205 443 27 46 67 118 89 160 21 42 51 96
65 120 14 23 24 42 22 42 -3 0 -33 -36 -68 -81z"/>
<path d="M1700 3893 c-39 -20 -61 -39 -75 -65 -19 -35 -19 -39 -3 -54 41 -42
206 -24 258 27 58 59 28 110 -68 117 -48 3 -66 -1 -112 -25z m115 -44 c37 -10
38 -12 20 -25 -31 -23 -150 -15 -142 9 8 24 66 31 122 16z"/>
<path d="M3191 3839 c-79 -59 -81 -62 -65 -80 9 -11 21 -19 25 -19 5 0 37 18
71 41 62 40 63 40 77 20 14 -22 51 -29 51 -11 0 19 -27 64 -53 88 l-24 23 -82
-62z"/>
<path d="M2569 3883 c-1 -5 0 -17 1 -28 1 -11 5 -49 9 -85 5 -57 9 -65 29 -68
21 -3 22 0 22 68 0 66 2 71 19 65 30 -9 37 16 11 37 -22 18 -89 26 -91 11z"/>
<path d="M1483 3870 c-127 -30 -282 -175 -271 -253 5 -35 38 -31 134 17 114
57 177 105 209 160 30 50 29 50 9 70 -17 17 -31 18 -81 6z m7 -79 c0 -22 -184
-120 -198 -107 -15 15 49 62 133 98 46 19 65 22 65 9z"/>
<path d="M2731 3861 c-44 -44 -37 -143 11 -170 38 -22 71 -1 97 60 27 61 26
75 -4 104 -30 30 -77 33 -104 6z m69 -50 c0 -32 -22 -81 -36 -81 -18 0 -18 31
1 76 15 36 35 38 35 5z"/>
<path d="M1149 3806 c-74 -62 -228 -218 -254 -259 -24 -37 -29 -29 -10 18 9
20 14 39 11 42 -12 13 -87 -104 -105 -165 -31 -104 -34 -120 -27 -147 9 -34
21 -31 37 8 36 87 156 246 278 367 106 105 151 160 151 185 0 13 -22 0 -81
-49z"/>
<path d="M2396 3851 c-4 -5 3 -33 15 -63 12 -29 26 -68 31 -85 6 -22 15 -33
27 -33 29 0 30 8 10 78 -10 37 -19 68 -19 69 0 2 9 3 21 3 14 0 19 5 17 18 -2
13 -15 18 -50 20 -25 2 -49 -1 -52 -7z"/>
<path d="M1965 3831 c-16 -10 -39 -28 -49 -39 -19 -22 -19 -22 20 -38 21 -8
64 -28 95 -44 56 -29 57 -29 74 -10 17 18 16 20 -28 47 -89 55 -84 51 -64 63
14 9 16 15 6 26 -15 18 -18 18 -54 -5z"/>
<path d="M2894 3744 c-31 -71 -35 -87 -23 -95 23 -14 27 -11 53 39 40 75 42
78 60 63 16 -13 36 -7 36 11 0 14 -59 68 -75 68 -7 0 -30 -39 -51 -86z"/>
<path d="M4080 3798 c0 -37 41 -115 163 -309 63 -101 152 -256 199 -343 108
-204 134 -224 131 -103 -3 143 -72 327 -188 502 -121 182 -305 335 -305 253z
m200 -215 c92 -105 209 -309 210 -367 0 -11 -32 31 -70 94 -39 62 -99 154
-134 204 -35 50 -69 101 -75 114 -12 22 -11 23 7 13 11 -6 39 -32 62 -58z"/>
<path d="M2265 3788 c-11 -6 -22 -12 -24 -14 -2 -2 20 -39 48 -83 35 -53 57
-78 67 -74 21 8 17 31 -16 85 -35 56 -35 58 -14 58 9 0 14 7 12 18 -4 21 -45
27 -73 10z"/>
<path d="M3315 3735 c-48 -17 -65 -38 -65 -80 0 -47 31 -70 94 -70 96 0 149
40 124 92 -28 56 -90 80 -153 58z m98 -60 c2 -12 -39 -33 -82 -41 -25 -5 -31
-3 -31 10 0 31 107 61 113 31z"/>
<path d="M3022 3707 c-45 -46 -59 -90 -38 -122 27 -41 70 -34 122 19 52 51 57
84 18 115 -37 29 -65 26 -102 -12z m78 -27 c0 -16 -67 -86 -75 -78 -7 7 10 44
33 71 16 19 42 23 42 7z"/>
<path d="M3480 3731 c0 -6 7 -23 16 -36 14 -22 23 -25 79 -25 88 0 125 -9 125
-30 0 -23 36 -54 55 -47 8 4 15 18 15 31 0 33 -29 94 -49 101 -9 4 -67 9 -128
12 -84 4 -113 3 -113 -6z"/>
<path d="M1608 3709 c-22 -12 -58 -72 -58 -96 0 -18 3 -19 73 -7 39 7 93 13
118 14 45 0 59 10 59 41 0 5 -38 9 -85 9 -81 0 -85 1 -76 19 13 23 -6 34 -31
20z"/>
<path d="M2147 3692 c-15 -9 -26 -20 -25 -23 9 -21 130 -139 138 -134 18 11
10 32 -30 81 -32 39 -37 50 -25 56 18 11 8 38 -14 38 -9 0 -28 -8 -44 -18z"/>
<path d="M3800 3700 c0 -26 33 -71 63 -86 47 -25 148 -93 180 -122 18 -18 25
-32 21 -45 -4 -11 5 -33 22 -58 l28 -41 18 24 c26 32 19 100 -13 135 -43 45
-137 113 -221 158 -88 48 -98 51 -98 35z"/>
<path d="M1849 3671 c-35 -35 -35 -40 -9 -74 22 -28 74 -47 126 -47 59 0 86
67 42 107 -58 53 -115 58 -159 14z m120 -49 l26 -17 -23 -3 c-34 -5 -92 17
-92 35 0 20 51 11 89 -15z"/>
<path d="M2586 3568 c4 -51 8 -95 10 -97 2 -2 10 -1 19 2 11 5 15 22 15 68 0
47 4 65 17 74 15 11 15 15 4 29 -7 9 -27 16 -43 16 l-29 0 7 -92z"/>
<path d="M2715 3648 c-7 -23 -25 -131 -25 -155 0 -13 6 -23 14 -23 13 0 36 74
36 116 0 11 6 13 20 9 15 -5 20 -2 20 13 0 35 -55 69 -65 40z"/>
<path d="M2469 3631 c-23 -18 -23 -21 -12 -76 22 -102 62 -133 91 -71 18 36 8
106 -19 140 -24 31 -30 32 -60 7z m48 -92 c7 -60 -14 -40 -23 21 -5 35 -4 42
6 34 6 -6 14 -31 17 -55z"/>
<path d="M2837 3623 c-11 -19 -57 -176 -53 -181 14 -13 33 11 50 62 15 42 23
55 34 51 20 -8 33 15 21 37 -11 21 -46 41 -52 31z"/>
<path d="M3159 3586 c-79 -63 -95 -82 -80 -100 11 -13 20 -10 63 24 50 41 68
48 68 30 0 -13 27 -13 35 0 7 11 -12 77 -24 84 -4 3 -32 -14 -62 -38z"/>
<path d="M1095 3602 c-17 -11 -58 -49 -92 -87 -113 -123 -207 -354 -160 -393
31 -26 46 -9 182 193 100 150 137 225 133 268 -4 38 -22 44 -63 19z m-16 -114
c-28 -53 -173 -250 -177 -240 -6 20 68 148 119 206 52 58 79 74 58 34z"/>
<path d="M1451 3605 c-18 -9 -59 -31 -91 -50 -67 -41 -70 -41 -63 -15 6 24 -5
25 -33 6 -22 -16 -51 -114 -41 -140 5 -13 18 -7 68 33 34 28 93 66 130 86 38
20 69 42 69 50 0 7 3 20 6 29 7 19 -1 20 -45 1z"/>
<path d="M2068 3588 c-39 -32 -27 -74 33 -118 49 -35 84 -38 99 -10 19 35 -5
85 -60 123 -29 20 -50 22 -72 5z m81 -72 c14 -14 22 -29 18 -32 -10 -10 -77
45 -77 62 0 19 25 6 59 -30z"/>
<path d="M2357 3583 c-7 -11 59 -167 72 -171 16 -5 14 27 -5 81 -13 37 -13 51
-4 62 6 8 9 19 5 25 -7 11 -61 14 -68 3z"/>
<path d="M3586 3564 c-40 -39 -4 -104 79 -145 84 -41 125 -47 149 -20 18 20
18 23 2 66 -19 48 -50 78 -105 101 -45 19 -106 18 -125 -2z m117 -60 c46 -16
75 -39 63 -51 -7 -7 -115 24 -133 39 -15 12 -8 28 11 28 7 0 33 -7 59 -16z"/>
<path d="M2902 3482 c-38 -72 -43 -92 -21 -92 4 0 21 22 38 50 21 34 35 48 46
44 9 -4 17 1 21 11 8 21 -11 65 -29 65 -7 0 -32 -35 -55 -78z"/>
<path d="M1806 3526 c-32 -50 -23 -61 62 -76 101 -19 107 -19 107 5 0 16 -12
23 -60 36 -47 12 -60 20 -60 35 0 28 -30 28 -49 0z"/>
<path d="M3386 3535 c-60 -17 -70 -26 -53 -49 11 -15 19 -16 57 -7 72 17 100
14 100 -9 0 -33 37 -25 45 10 12 54 0 70 -53 69 -26 0 -69 -7 -96 -14z"/>
<path d="M1555 3500 c-15 -30 -20 -62 -9 -73 3 -3 18 -1 33 5 14 5 60 15 101
22 71 11 75 13 78 39 3 24 1 27 -20 23 -13 -3 -41 -8 -63 -11 -22 -3 -48 -9
-58 -12 -16 -4 -18 -1 -12 16 11 34 -31 27 -50 -9z"/>
<path d="M2282 3518 c-7 -7 -12 -23 -12 -35 0 -45 58 -133 87 -133 40 0 27
108 -18 156 -25 27 -39 30 -57 12z m58 -78 c24 -47 25 -57 4 -39 -14 12 -44
61 -44 74 0 18 23 -1 40 -35z"/>
<path d="M3205 3484 c-42 -21 -65 -53 -65 -91 0 -27 5 -34 25 -39 53 -13 145
48 145 97 0 47 -49 62 -105 33z m60 -44 c-11 -17 -84 -50 -89 -41 -7 11 53 51
77 51 10 0 15 -5 12 -10z"/>
<path d="M2011 3454 c-6 -15 -10 -28 -8 -30 13 -13 130 -84 138 -84 23 0 1 36
-41 68 -30 23 -44 41 -42 53 5 30 -33 24 -47 -7z"/>
<path d="M2987 3456 c-56 -52 -75 -138 -31 -144 25 -4 100 73 110 113 13 53
-35 72 -79 31z m35 -43 c-13 -23 -51 -58 -57 -52 -2 3 9 22 26 43 32 38 49 43
31 9z"/>
<path d="M1395 3454 c-68 -36 -125 -109 -125 -158 0 -41 10 -56 40 -56 38 0
149 84 175 132 39 74 -14 122 -90 82z m55 -53 c0 -11 -56 -59 -99 -84 -41 -24
-43 -1 -3 35 54 50 102 73 102 49z"/>
<path d="M3877 3463 c-20 -19 -5 -83 31 -139 45 -69 164 -184 191 -184 73 0
40 145 -56 245 -23 25 -58 54 -75 65 -33 20 -78 26 -91 13z m140 -136 c60 -61
86 -110 45 -88 -24 13 -132 127 -132 140 0 24 26 8 87 -52z"/>
<path d="M2217 3433 c-4 -3 -7 -12 -7 -20 0 -15 91 -141 103 -142 16 -2 5 33
-23 74 -16 24 -30 55 -30 69 0 19 -5 26 -18 26 -10 0 -22 -3 -25 -7z"/>
<path d="M2584 3417 c-9 -23 0 -177 11 -180 6 -1 11 27 13 66 2 37 7 67 12 67
18 0 10 39 -10 50 -16 8 -22 8 -26 -3z"/>
<path d="M2656 3408 c-18 -26 -22 -144 -6 -168 9 -13 12 -12 25 5 32 41 46
150 23 173 -17 17 -25 15 -42 -10z m19 -105 c-10 -43 -17 -18 -8 34 6 39 8 43
11 19 2 -15 1 -40 -3 -53z"/>
<path d="M3398 3405 c-45 -25 -49 -83 -7 -106 27 -14 122 -13 148 1 29 15 28
72 -1 100 -26 24 -99 27 -140 5z m106 -41 c31 -12 4 -24 -52 -24 -52 1 -55 2
-38 15 20 15 63 20 90 9z"/>
<path d="M4200 3385 c0 -24 14 -56 45 -104 53 -81 126 -226 149 -294 20 -58
20 -57 0 -57 -12 0 -15 -6 -11 -22 4 -13 9 -42 13 -65 4 -29 14 -47 30 -58 31
-20 41 -19 58 8 14 20 13 30 -8 102 -33 115 -70 207 -124 310 -49 92 -131 214
-144 215 -5 0 -8 -16 -8 -35z"/>
<path d="M1799 3383 c-18 -49 -10 -56 81 -69 47 -7 86 -11 88 -9 2 2 -1 12 -7
23 -8 14 -26 22 -62 27 -38 5 -53 12 -56 25 -8 31 -33 32 -44 3z"/>
<path d="M2501 3391 c-14 -25 -14 -65 0 -116 25 -90 59 -79 59 19 0 88 -34
144 -59 97z m38 -111 c0 -20 -1 -22 -9 -10 -5 8 -9 33 -9 55 1 39 2 39 9 10 4
-16 8 -41 9 -55z"/>
<path d="M2736 3361 c-8 -27 -17 -72 -21 -98 -6 -44 -5 -46 9 -30 8 11 18 36
21 58 4 23 14 43 26 49 24 14 24 32 0 54 -19 17 -20 16 -35 -33z"/>
<path d="M582 3353 c-76 -108 -153 -337 -183 -543 -18 -122 -16 -403 4 -525
21 -131 60 -265 100 -345 61 -122 80 -68 53 145 -53 410 -47 676 24 1000 35
155 50 295 32 295 -6 0 -19 -12 -30 -27z m-77 -394 c-36 -236 -38 -265 -31
-469 3 -113 8 -230 11 -260 7 -77 -10 -35 -31 77 -23 120 -23 404 0 528 18 96
56 238 63 231 2 -2 -3 -50 -12 -107z"/>
<path d="M1127 3338 c-19 -24 -58 -78 -86 -122 -34 -52 -51 -72 -51 -57 0 29
-13 26 -33 -8 -28 -48 -14 -146 21 -146 6 0 30 38 53 85 22 47 67 121 99 166
43 59 57 87 53 102 -8 31 -17 28 -56 -20z"/>
<path d="M1580 3361 c-13 -26 -13 -68 1 -77 6 -3 34 1 63 9 28 9 67 20 86 24
43 11 47 37 7 41 -15 2 -48 -1 -72 -6 -41 -9 -45 -8 -45 9 0 25 -26 24 -40 0z"/>
<path d="M3028 3320 c-49 -47 -59 -63 -50 -72 9 -9 22 -2 57 32 25 24 45 39
45 32 0 -21 20 -13 30 13 10 26 4 55 -11 55 -6 0 -37 -27 -71 -60z"/>
<path d="M2808 3353 c-24 -28 -50 -107 -46 -139 5 -48 30 -34 67 38 30 58 33
71 23 93 -14 30 -23 31 -44 8z m7 -70 c-18 -42 -25 -52 -25 -34 0 14 28 71 35
71 3 0 -2 -17 -10 -37z"/>
<path d="M3590 3358 c0 -26 17 -37 88 -64 62 -23 72 -29 66 -46 -7 -23 12 -49
32 -41 15 6 44 53 44 72 0 21 -163 91 -212 91 -10 0 -18 -6 -18 -12z"/>
<path d="M2003 3354 c-18 -8 -16 -45 3 -72 17 -24 83 -62 109 -62 40 0 21 75
-29 112 -27 19 -65 29 -83 22z m81 -65 c15 -12 25 -23 22 -26 -5 -6 -63 24
-71 37 -11 18 22 11 49 -11z"/>
<path d="M2430 3349 c0 -26 44 -169 52 -169 11 0 10 18 -2 60 -6 19 -11 54
-11 78 -1 35 -4 42 -20 42 -10 0 -19 -5 -19 -11z"/>
<path d="M3251 3332 c-60 -25 -93 -53 -80 -67 4 -3 27 4 53 15 57 24 66 25 66
4 0 -23 23 -11 38 20 13 27 10 56 -5 56 -4 0 -37 -13 -72 -28z"/>
<path d="M2183 3343 c-33 -13 11 -107 68 -147 27 -19 39 -13 39 20 0 33 -15
61 -53 102 -32 33 -34 34 -54 25z m56 -69 c12 -15 21 -31 21 -37 0 -13 -38 21
-51 45 -15 28 7 22 30 -8z"/>
<path d="M4654 3330 c4 -14 13 -69 22 -123 8 -54 27 -153 43 -220 43 -182 56
-303 55 -487 -3 -323 -65 -590 -206 -883 -62 -129 -87 -164 -48 -65 12 29 26
64 31 77 15 37 2 37 -17 -1 -9 -18 -42 -73 -74 -123 -31 -49 -76 -126 -100
-170 -53 -99 -183 -282 -273 -387 -38 -44 -67 -81 -65 -83 8 -9 203 171 283
262 177 200 342 489 417 728 75 243 98 397 98 665 0 280 -26 441 -114 698 -34
100 -64 165 -52 112z"/>
<path d="M2377 3304 c-15 -15 -6 -62 21 -114 39 -77 57 -79 49 -6 -8 76 -47
143 -70 120z m52 -114 c0 -9 -6 -4 -14 10 -8 14 -14 32 -14 40 0 9 6 4 14 -10
8 -14 14 -32 14 -40z"/>
<path d="M2867 3274 c-26 -43 -67 -120 -67 -129 0 -19 23 3 47 44 15 28 35 52
45 54 19 5 23 33 9 56 -7 11 -15 5 -34 -25z"/>
<path d="M1490 3269 c-19 -12 -48 -33 -64 -46 -26 -22 -30 -23 -38 -8 -8 13
-13 14 -24 4 -26 -22 -13 -99 18 -99 4 0 30 20 57 44 27 24 63 52 80 62 35 21
36 23 19 47 -12 16 -15 16 -48 -4z"/>
<path d="M3043 3235 c-66 -69 -53 -126 17 -78 53 35 80 67 80 95 0 46 -44 38
-97 -17z m37 -25 c-19 -17 -39 -30 -45 -30 -5 1 6 14 25 30 19 17 39 30 45 30
5 -1 -6 -14 -25 -30z"/>
<path d="M1825 3259 c-14 -22 5 -57 32 -63 93 -17 123 -17 123 -1 0 18 -39 35
-80 35 -19 0 -33 7 -40 20 -12 22 -25 26 -35 9z"/>
<path d="M3858 3236 c-4 -20 6 -36 49 -78 75 -73 99 -108 83 -118 -20 -13 -4
-60 21 -60 58 0 76 45 37 96 -28 38 -171 184 -179 184 -4 0 -9 -11 -11 -24z"/>
<path d="M1162 3216 c-44 -38 -93 -138 -99 -204 -5 -49 -2 -60 16 -76 21 -19
22 -19 49 1 34 25 97 131 118 198 29 93 -17 137 -84 81z m43 -63 c-12 -32 -75
-142 -85 -148 -16 -10 -12 33 6 68 23 46 63 97 76 97 6 0 7 -8 3 -17z"/>
<path d="M1637 3233 c-10 -9 -8 -55 1 -71 7 -10 25 -8 90 9 45 12 82 25 82 29
0 4 -7 13 -15 20 -13 11 -26 11 -67 1 -45 -10 -53 -9 -60 4 -10 16 -21 19 -31
8z"/>
<path d="M2005 3220 c-8 -27 -1 -37 46 -61 69 -35 89 -40 89 -24 0 7 -22 26
-49 40 -27 15 -51 36 -54 46 -7 25 -24 24 -32 -1z"/>
<path d="M2160 3216 c0 -14 12 -38 26 -55 l26 -31 -23 2 c-41 5 -33 -28 19
-81 26 -28 56 -51 65 -51 9 0 17 2 17 5 0 11 -33 70 -49 89 -15 18 -15 18 7 7
48 -26 37 40 -18 103 -38 43 -70 48 -70 12z m85 -74 c-7 -7 -55 39 -55 52 0 5
13 -3 30 -19 16 -16 28 -31 25 -33z m-5 -77 c13 -14 19 -25 13 -25 -5 0 -20
11 -33 25 -13 14 -19 25 -13 25 5 0 20 -11 33 -25z"/>
<path d="M2334 3226 c-3 -8 12 -48 33 -88 22 -42 39 -66 41 -56 2 9 -7 36 -19
60 -12 24 -22 54 -23 67 -1 28 -23 40 -32 17z"/>
<path d="M2894 3208 c-40 -49 -69 -117 -54 -132 9 -8 21 0 51 34 44 50 64 93
55 115 -8 23 -21 18 -52 -17z m17 -35 c-18 -31 -41 -57 -45 -52 -3 3 6 19 20
37 27 35 41 43 25 15z"/>
<path d="M3220 3224 c-36 -24 -50 -44 -50 -71 0 -20 5 -23 35 -23 72 0 139 48
128 91 -4 15 -14 19 -47 19 -23 0 -53 -7 -66 -16z m74 -34 c-6 -6 -28 -13 -50
-16 -37 -5 -38 -4 -20 10 22 18 87 23 70 6z"/>
<path d="M3367 3233 c-21 -21 -3 -32 56 -35 53 -3 62 -6 62 -22 0 -31 21 -29
45 4 35 50 23 60 -73 60 -46 0 -87 -3 -90 -7z"/>
<path d="M3586 3214 c-28 -27 -20 -69 20 -102 71 -58 146 -62 160 -8 19 75
-127 164 -180 110z m109 -60 c14 -9 25 -20 25 -25 0 -23 -74 4 -101 37 -13 16
-11 17 18 11 18 -4 44 -14 58 -23z"/>
<path d="M2591 3108 l1 -93 14 80 c14 82 13 105 -6 105 -6 0 -10 -35 -9 -92z"/>
<path d="M2631 3163 c-15 -54 -14 -156 1 -151 15 5 38 90 38 146 0 54 -25 58
-39 5z m16 -65 c-3 -7 -5 -2 -5 12 0 14 2 19 5 13 2 -7 2 -19 0 -25z"/>
<path d="M2534 3165 c-7 -30 3 -145 15 -164 15 -23 23 6 23 79 0 73 -8 110
-22 110 -6 0 -12 -11 -16 -25z m23 -102 c-3 -10 -5 -2 -5 17 0 19 2 27 5 18 2
-10 2 -26 0 -35z"/>
<path d="M2696 3173 c-9 -31 -36 -154 -36 -164 0 -28 19 6 24 45 4 24 13 52
21 62 16 22 20 60 6 69 -5 3 -12 -3 -15 -12z"/>
<path d="M3070 3133 c-30 -20 -58 -41 -62 -47 -17 -26 -5 -26 36 -2 25 14 51
23 59 20 16 -6 37 23 37 50 0 22 -7 20 -70 -21z"/>
<path d="M1537 3120 c-31 -23 -57 -36 -57 -31 0 6 -9 11 -20 11 -27 0 -26 -30
1 -64 l21 -27 42 38 c23 21 55 48 72 60 26 19 28 23 13 37 -14 15 -20 13 -72
-24z"/>
<path d="M2304 3133 c8 -34 70 -136 85 -141 28 -9 -8 108 -46 150 -26 28 -46
23 -39 -9z m66 -77 c0 -12 -14 5 -31 39 -8 16 -6 15 10 -4 12 -13 21 -28 21
-35z"/>
<path d="M2735 3136 c-29 -44 -56 -166 -36 -166 10 0 59 106 67 148 8 39 -11
50 -31 18z"/>
<path d="M1875 3140 c-8 -13 12 -57 30 -64 9 -3 42 -6 73 -6 l57 1 -24 19
c-14 12 -38 20 -62 20 -27 0 -39 4 -39 14 0 16 -27 29 -35 16z"/>
<path d="M2495 3108 c4 -24 11 -64 15 -90 3 -26 10 -51 14 -55 5 -5 5 19 0 52
-4 33 -7 77 -6 98 1 28 -2 37 -15 37 -13 0 -14 -7 -8 -42z"/>
<path d="M2917 3111 c-44 -49 -71 -90 -65 -97 3 -3 20 13 38 36 17 22 35 38
39 36 12 -8 28 8 35 37 9 38 -5 34 -47 -12z"/>
<path d="M4175 3135 c-3 -8 -7 -22 -10 -31 -12 -37 84 -365 127 -433 19 -31
41 -35 60 -11 40 50 12 254 -53 382 -42 83 -111 135 -124 93z m88 -149 c48
-100 82 -258 48 -220 -9 10 -91 248 -91 265 0 24 20 4 43 -45z"/>
<path d="M1720 3122 c-61 -49 39 -120 113 -81 43 23 46 41 12 74 -30 31 -92
34 -125 7z m96 -37 c-11 -8 -33 -15 -49 -15 -25 0 -28 2 -17 15 7 8 28 15 49
15 34 -1 35 -2 17 -15z"/>
<path d="M3345 3115 c-45 -44 -29 -70 50 -80 42 -6 54 -4 78 15 53 42 23 90
-57 90 -36 0 -52 -5 -71 -25z m99 -21 c25 -10 18 -24 -11 -24 -38 0 -73 10
-73 21 0 10 60 12 84 3z"/>
<path d="M663 3088 c-49 -140 -76 -315 -77 -500 -1 -87 -4 -158 -8 -158 -5 0
-8 5 -8 10 0 6 -5 10 -11 10 -9 0 -10 -22 -5 -77 9 -104 13 -117 46 -136 27
-16 28 -16 43 6 13 21 13 36 1 133 -16 133 -17 229 -3 365 10 105 39 252 59
305 8 21 8 34 -1 51 -17 31 -23 29 -36 -9z"/>
<path d="M2030 3107 c0 -21 30 -56 63 -74 25 -13 28 -18 15 -21 -33 -7 -18
-44 29 -73 25 -16 31 -24 22 -30 -10 -6 -8 -14 11 -34 22 -23 89 -65 105 -65
13 0 2 21 -27 51 -18 18 -32 40 -30 50 2 9 -12 33 -31 52 -24 26 -30 38 -20
41 19 8 -6 55 -47 90 -33 27 -90 36 -90 13z m91 -47 l24 -21 -35 17 c-43 21
-47 24 -28 24 9 0 26 -9 39 -20z m51 -108 c11 -13 8 -12 -19 2 -18 9 -33 18
-33 20 0 9 41 -8 52 -22z m67 -98 c14 -12 -19 -1 -35 12 -18 14 -18 14 6 3 14
-6 27 -13 29 -15z"/>
<path d="M2451 3083 c1 -46 33 -146 48 -151 11 -4 12 6 6 49 -4 30 -12 69 -19
88 -14 44 -36 53 -35 14z"/>
<path d="M2778 3090 c-25 -38 -61 -130 -54 -137 3 -3 12 9 20 28 8 19 24 46
36 61 12 16 20 38 18 50 l-3 23 -17 -25z"/>
<path d="M3231 3099 c-49 -9 -94 -35 -86 -49 3 -5 19 -5 38 1 42 12 70 12 62
-1 -15 -24 26 -7 44 19 30 42 22 46 -58 30z"/>
<path d="M1308 3083 c-9 -10 -30 -44 -48 -75 -30 -55 -50 -72 -50 -45 -1 6
-10 1 -21 -12 l-19 -24 24 -31 c33 -43 52 -44 65 -4 6 18 31 67 56 108 33 55
41 77 33 87 -14 17 -22 16 -40 -4z"/>
<path d="M3800 3081 c-21 -40 -11 -86 29 -142 60 -84 110 -101 140 -48 13 24
13 32 -4 75 -36 97 -137 167 -165 115z m76 -68 c32 -35 58 -83 49 -91 -9 -9
-82 75 -88 100 -7 26 10 22 39 -9z"/>
<path d="M3525 3069 c-8 -25 -12 -20 54 -54 46 -23 52 -29 37 -37 -13 -7 -15
-13 -6 -24 10 -11 16 -11 40 1 56 29 50 47 -33 93 -76 42 -85 44 -92 21z"/>
<path d="M2300 3057 c0 -16 81 -130 88 -123 3 3 -7 24 -22 46 -15 22 -31 52
-36 65 -10 26 -30 34 -30 12z"/>
<path d="M2902 3026 c-39 -42 -59 -82 -48 -93 3 -3 13 0 23 8 9 8 2 -5 -16
-27 -18 -23 -31 -48 -29 -55 1 -8 -8 -29 -20 -47 -27 -37 -17 -42 22 -11 15
12 29 19 32 17 2 -3 -20 -22 -51 -43 -30 -21 -55 -42 -55 -47 0 -5 13 0 29 11
16 12 34 21 39 21 14 0 53 50 47 60 -2 4 9 20 25 35 34 33 38 45 13 45 -13 0
-9 8 15 33 34 35 43 63 17 53 -13 -4 -13 -2 -5 14 5 10 15 22 20 25 15 9 12
45 -4 45 -7 0 -32 -20 -54 -44z m38 1 c0 -2 -12 -14 -27 -28 l-28 -24 24 28
c23 25 31 32 31 24z m-30 -90 c0 -2 -10 -12 -22 -23 l-23 -19 19 23 c18 21 26
27 26 19z"/>
<path d="M3041 3046 c-41 -30 -63 -61 -59 -81 7 -33 148 58 148 96 0 18 -57 8
-89 -15z m24 -29 c-11 -8 -29 -17 -40 -20 -16 -6 -15 -3 5 13 14 11 32 20 40
20 10 0 9 -4 -5 -13z"/>
<path d="M2799 3044 c-23 -26 -69 -120 -69 -140 0 -16 1 -16 19 0 28 26 73
114 69 137 -3 21 -3 21 -19 3z m-19 -74 c-6 -11 -13 -20 -16 -20 -2 0 0 9 6
20 6 11 13 20 16 20 2 0 0 -9 -6 -20z"/>
<path d="M1634 3016 c-31 -27 -42 -31 -56 -23 -24 16 -33 2 -20 -28 19 -42 38
-40 94 6 29 24 55 44 57 46 5 4 -20 33 -29 33 -3 0 -24 -15 -46 -34z"/>
<path d="M2427 3044 c-3 -4 4 -32 15 -63 11 -31 25 -67 30 -80 5 -13 11 -22
13 -19 3 3 -4 31 -15 63 -11 32 -20 66 -20 76 0 19 -13 32 -23 23z"/>
<path d="M1943 3024 c-7 -20 31 -60 65 -69 15 -3 34 -8 42 -10 28 -8 43 10 30
34 -26 49 -123 81 -137 45z m97 -34 c0 -12 -17 -12 -45 0 -17 7 -15 9 13 9 17
1 32 -3 32 -9z"/>
<path d="M2190 3022 c0 -20 106 -119 117 -109 3 3 -22 34 -56 67 -47 48 -61
57 -61 42z"/>
<path d="M3320 3023 c-23 -8 -60 -45 -60 -59 0 -7 8 -17 17 -22 14 -8 10 -12
-21 -21 -63 -17 -98 -61 -60 -75 28 -11 84 -6 113 9 47 24 47 51 1 68 -8 3 6
6 31 6 34 1 51 7 67 24 28 29 28 42 0 61 -22 16 -59 19 -88 9z m59 -42 c10 -6
10 -10 1 -16 -16 -10 -82 4 -75 16 8 11 55 12 74 0z m-79 -101 c0 -13 -50 -13
-70 0 -11 7 -4 10 28 10 23 0 42 -4 42 -10z"/>
<path d="M3152 2999 c-45 -23 -70 -55 -55 -70 17 -17 95 3 126 31 59 53 11 79
-71 39z m48 -29 c-8 -5 -28 -9 -45 -9 -26 0 -27 2 -10 9 11 5 31 9 45 9 20 1
22 -1 10 -9z"/>
<path d="M760 2988 c-11 -12 -32 -58 -47 -103 -23 -69 -27 -102 -31 -237 -4
-162 6 -225 43 -274 14 -18 16 -18 39 7 28 32 31 52 51 336 15 205 14 254 -8
281 -14 17 -23 15 -47 -10z m6 -235 c-10 -174 -18 -253 -26 -248 -23 14 -16
229 11 328 17 65 22 40 15 -80z"/>
<path d="M1360 2982 c-35 -36 -56 -106 -41 -138 14 -31 54 -41 85 -21 28 19
66 93 66 129 0 30 -28 58 -59 58 -12 0 -35 -13 -51 -28z m40 -87 c-12 -19 -26
-35 -31 -35 -21 0 -4 55 30 94 16 18 16 18 19 -3 2 -12 -6 -37 -18 -56z"/>
<path d="M1790 2998 c0 -7 8 -23 18 -36 l18 -23 62 17 c52 14 60 20 50 32 -9
11 -25 13 -65 8 -31 -4 -54 -2 -58 4 -9 14 -25 12 -25 -2z"/>
<path d="M2310 2976 c0 -15 86 -136 97 -136 5 0 2 5 -49 84 -46 72 -48 74 -48
52z"/>
<path d="M2410 2977 c0 -18 57 -147 64 -147 3 0 -3 23 -14 50 -11 28 -20 59
-20 69 0 10 -7 24 -15 31 -12 10 -15 10 -15 -3z"/>
<path d="M2776 2919 c-26 -39 -45 -73 -43 -75 3 -3 14 10 25 28 11 18 32 43
46 56 14 12 26 31 26 42 0 11 -2 20 -4 20 -1 0 -24 -32 -50 -71z"/>
<path d="M3458 2969 c-33 -19 -39 -45 -17 -73 54 -69 192 -39 147 33 -14 24
-66 51 -95 51 -10 0 -26 -5 -35 -11z m81 -54 c8 -8 12 -18 8 -22 -10 -9 -77
24 -77 38 0 14 50 3 69 -16z"/>
<path d="M2590 2950 c-1 -23 -2 -24 -14 -7 -18 24 -22 16 -31 -68 -5 -38 -10
-61 -12 -50 -13 70 -16 71 -28 13 -8 -39 -9 -75 -3 -114 5 -31 6 -59 3 -62 -3
-3 -5 2 -5 12 0 9 -16 48 -35 86 -37 73 -49 112 -14 47 34 -64 32 -35 -3 38
-17 38 -33 64 -36 57 -2 -6 1 -20 7 -31 6 -11 8 -26 5 -34 -3 -9 1 -29 10 -45
8 -16 13 -32 9 -35 -3 -3 5 -22 17 -42 12 -19 19 -43 16 -52 -4 -8 -1 -23 6
-32 6 -9 -13 11 -43 43 -30 33 -54 63 -54 67 0 4 -21 28 -47 53 -27 25 -48 42
-48 38 0 -14 24 -41 59 -67 58 -42 6 -30 -60 14 -33 22 -59 36 -59 31 0 -12
59 -54 96 -69 37 -15 102 -76 69 -66 -20 7 -20 6 -1 -9 11 -9 25 -16 31 -16 7
0 20 -10 31 -21 16 -19 10 -17 -36 8 -64 35 -106 50 -96 35 3 -6 2 -13 -4 -17
-5 -3 -10 0 -10 9 0 8 -13 17 -30 21 -16 4 -30 13 -30 21 0 10 6 11 25 4 14
-5 36 -12 48 -14 12 -2 31 -7 42 -11 14 -5 11 0 -10 18 -16 14 -31 21 -33 17
-3 -8 -28 -2 -72 17 -16 7 -24 9 -87 19 -29 4 -43 3 -43 -4 0 -14 72 -52 97
-52 10 0 24 -9 31 -20 11 -18 10 -20 -10 -21 -13 -1 -32 -1 -43 0 -16 2 -17 0
-5 -8 17 -12 6 -26 -25 -34 -17 -4 -16 -5 5 -7 22 -2 21 -3 -8 -9 -39 -7 -43
-22 -11 -38 24 -12 24 -13 2 -13 -35 0 -37 -20 -4 -31 17 -6 29 -16 28 -22 -1
-7 16 -13 43 -15 24 -2 50 -8 57 -14 7 -5 22 -7 35 -3 15 5 20 4 13 -3 -15
-14 -85 -25 -85 -12 0 5 -18 10 -41 10 -23 0 -38 4 -34 9 7 13 -27 31 -57 31
-17 0 -19 3 -9 9 18 12 7 41 -16 41 -15 0 -14 4 7 20 35 27 15 44 -53 45 -45
0 -52 -3 -52 -20 0 -12 9 -21 25 -25 l25 -6 -27 -7 c-50 -13 -23 -57 33 -57
22 0 22 0 3 -15 -16 -13 -17 -16 -4 -25 8 -5 31 -10 50 -10 24 0 31 -3 21 -9
-25 -16 24 -33 64 -22 21 6 35 6 35 0 0 -12 39 -12 76 0 49 16 109 22 97 10
-6 -6 -21 -12 -34 -13 -54 -7 -100 -19 -105 -27 -5 -8 8 -8 94 6 12 2 22 1 22
-1 0 -11 -77 -37 -105 -35 -16 1 -43 -4 -59 -11 -26 -10 -27 -13 -10 -20 15
-7 14 -8 -5 -4 -26 5 -61 -9 -61 -24 0 -18 45 -10 90 16 25 15 52 27 60 28 36
5 76 20 95 35 19 15 19 15 5 -4 -8 -11 -23 -26 -32 -33 -10 -7 -18 -18 -18
-25 0 -16 -51 -67 -68 -67 -20 0 -132 -61 -132 -72 0 -4 16 -1 36 7 20 8 39
13 44 10 4 -2 17 7 30 20 13 13 26 22 31 20 13 -9 91 58 125 107 18 27 34 42
37 35 2 -6 -7 -25 -22 -42 -20 -23 -21 -25 -3 -11 35 30 26 9 -19 -45 -22 -27
-37 -49 -32 -49 5 0 19 14 32 31 13 17 25 28 28 26 3 -3 -14 -30 -36 -60 -50
-66 -54 -84 -6 -31 l36 39 -34 -55 c-40 -64 -53 -100 -37 -100 12 0 61 73 81
122 10 24 10 33 1 36 -8 2 -7 11 4 28 11 15 12 24 5 24 -7 0 -6 9 5 25 8 13
13 28 10 34 -7 11 54 65 63 56 3 -4 -2 -11 -12 -16 -9 -6 -17 -15 -17 -22 0
-8 4 -6 11 3 9 13 10 13 6 0 -2 -8 -9 -16 -15 -16 -7 -1 -15 -2 -19 -3 -4 0 3
-8 15 -17 12 -8 22 -20 22 -26 0 -7 -6 -3 -14 7 -13 18 -14 18 -25 -3 -14 -26
-14 -35 0 -26 8 4 7 -1 -1 -15 -14 -27 -3 -92 12 -70 6 10 8 7 7 -11 -2 -42 1
-46 16 -20 14 25 14 25 8 -10 -8 -50 6 -32 17 21 l9 44 -4 -47 c-5 -50 9 -73
21 -36 7 22 7 22 15 3 5 -14 8 -1 10 40 3 58 3 59 6 13 4 -46 23 -69 23 -27 0
13 4 18 12 13 8 -5 9 5 5 37 -5 32 -4 38 3 22 14 -35 17 -28 15 32 -1 30 2 60
7 67 6 10 8 10 9 -2 1 -8 2 -29 4 -47 1 -18 5 -40 9 -48 3 -9 2 -14 -3 -11
-14 9 -22 -76 -11 -114 5 -19 10 -42 9 -50 0 -8 -7 7 -16 34 -9 31 -17 45 -22
37 -10 -15 -3 -104 11 -148 14 -48 31 -41 26 12 -3 48 5 60 17 23 4 -14 8 -18
12 -10 2 7 -2 33 -11 59 -22 64 -20 87 4 36 10 -24 23 -43 28 -43 9 0 7 17
-14 90 -6 24 -6 25 10 5 16 -19 16 -17 0 20 -24 61 -27 73 -9 42 21 -36 30
-28 17 15 -25 81 -24 87 5 82 24 -5 25 -3 12 13 -13 16 -12 17 4 4 9 -7 17
-19 17 -27 0 -15 90 -104 105 -104 5 1 -11 20 -37 43 -27 24 -48 47 -48 51 0
5 7 3 15 -4 20 -16 19 -6 -1 25 -9 14 -13 25 -9 25 4 0 2 6 -4 14 -20 23 2 24
39 2 46 -27 53 -53 9 -31 -17 9 -33 14 -36 11 -5 -5 58 -39 96 -51 15 -4 21
-3 17 3 -4 6 2 8 16 4 21 -5 21 -6 3 -12 -19 -7 -19 -7 2 -18 26 -14 53 -16
53 -3 0 14 -49 50 -77 57 -12 4 -23 11 -23 18 0 8 25 11 84 9 81 -3 119 9 80
24 -15 6 -14 7 5 15 13 4 25 17 28 28 3 13 14 20 29 20 31 0 41 20 19 37 -23
16 -101 17 -111 2 -4 -7 3 -19 16 -29 20 -15 21 -18 5 -23 -9 -4 -26 -7 -38
-7 -18 0 -19 -2 -7 -11 12 -8 8 -10 -15 -8 -55 2 -59 1 -44 -17 13 -15 11 -16
-16 -12 -17 3 -39 9 -49 13 -13 6 -17 5 -12 -3 3 -6 -13 0 -38 14 -24 13 -50
22 -58 19 -8 -3 -20 1 -27 9 -10 12 -9 14 11 12 13 -2 39 -10 58 -18 36 -16
120 -13 120 3 0 5 9 9 21 9 15 0 19 4 14 19 -3 11 -1 22 5 26 8 5 8 11 -1 21
-9 11 -8 14 6 14 25 0 12 24 -15 28 -13 2 -29 9 -36 16 -7 7 -47 19 -90 26
-58 10 -72 15 -56 21 26 10 102 7 102 -3 0 -4 20 -8 45 -8 33 0 43 -3 39 -14
-3 -9 5 -15 25 -19 22 -5 29 -11 25 -22 -12 -29 92 -49 115 -22 14 18 -5 37
-38 38 -15 0 -20 3 -13 6 33 13 4 43 -42 43 -13 0 -23 6 -23 14 0 10 9 13 33
9 35 -6 104 13 104 28 0 20 -46 31 -84 21 -32 -9 -36 -9 -25 4 10 12 6 14 -24
14 -20 0 -47 -4 -61 -10 -17 -6 -26 -6 -26 0 0 13 -44 3 -92 -22 -54 -27 -47
-15 15 23 28 18 47 34 40 36 -13 5 -69 -21 -95 -45 -10 -8 -18 -12 -18 -8 0 4
16 21 35 38 20 17 33 33 31 36 -7 6 -47 -21 -99 -66 -35 -30 -38 -31 -16 -7
44 52 80 105 71 105 -5 0 -30 -22 -56 -50 -25 -27 -46 -46 -46 -42 0 4 9 32
20 62 23 64 23 63 9 54 -8 -4 -8 -1 -1 13 6 11 10 36 9 56 -2 37 -11 48 -21
25 -3 -7 -2 0 1 16 5 24 3 28 -11 23 -12 -5 -16 -1 -17 16 0 20 -1 21 -8 3 -7
-19 -8 -18 -14 4 -5 19 -9 21 -21 11 -11 -9 -15 -9 -19 1 -3 7 -6 2 -7 -12z
m29 -162 c8 2 11 -3 8 -13 -4 -8 -2 -15 4 -15 14 0 4 -109 -11 -124 -9 -8 -10
-1 -5 25 8 46 -7 79 -34 72 -20 -5 -30 -29 -32 -78 -1 -26 -3 -24 -16 19 -9
30 -11 51 -5 55 5 3 13 29 18 56 7 46 9 47 12 17 3 -28 6 -31 18 -21 8 6 15
30 16 53 l1 41 6 -45 c4 -31 10 -44 20 -42z m-102 20 c-3 -8 -6 -5 -6 6 -1 11
2 17 5 13 3 -3 4 -12 1 -19z m10 -40 c-3 -8 -6 -5 -6 6 -1 11 2 17 5 13 3 -3
4 -12 1 -19z m-332 -38 c3 -5 -1 -10 -9 -10 -9 0 -16 5 -16 10 0 6 4 10 9 10
6 0 13 -4 16 -10z m770 -60 c-3 -5 -13 -10 -21 -10 -8 0 -12 5 -9 10 3 6 13
10 21 10 8 0 12 -4 9 -10z m14 -25 c-10 -10 -43 -16 -104 -20 -72 -3 -86 -2
-70 7 11 7 56 15 100 19 44 3 82 7 85 7 2 1 -2 -5 -11 -13z m81 5 c12 -8 11
-10 -7 -10 -13 0 -23 5 -23 10 0 13 11 13 30 0z m-720 -15 l35 -13 -31 -1
c-16 -1 -39 -8 -50 -16 -19 -14 -19 -15 4 -21 26 -8 29 -24 5 -25 -16 -1 -17
-2 -1 -6 9 -2 15 -10 12 -17 -5 -14 40 -25 101 -26 28 -1 29 -2 12 -14 -14
-11 -15 -15 -5 -20 7 -3 4 -4 -7 -1 -11 2 -41 7 -67 11 -27 3 -48 10 -48 15 0
5 -14 9 -32 9 -25 0 -29 3 -20 12 10 10 7 15 -10 25 -19 10 -20 12 -5 13 23 0
22 17 -2 25 -20 6 -20 6 0 26 18 18 55 38 69 38 3 0 21 -7 40 -14z m312 -7
c-7 -7 -12 -8 -12 -2 0 6 3 14 7 17 3 4 9 5 12 2 2 -3 -1 -11 -7 -17z m71 -1
c-12 -7 -22 -16 -23 -22 0 -5 -12 -13 -25 -17 -14 -3 -23 -2 -19 3 3 5 14 9
25 9 12 0 17 4 13 11 -7 13 13 29 36 28 10 0 7 -4 -7 -12z m-163 -36 c0 -5 -7
-11 -15 -15 -8 -3 -15 -1 -15 3 0 5 -3 17 -7 26 -5 15 -3 16 15 6 12 -7 22
-16 22 -20z m-508 4 c0 -5 -5 -11 -11 -13 -6 -2 -11 4 -11 13 0 9 5 15 11 13
6 -2 11 -8 11 -13z m875 9 c-3 -3 -12 -4 -19 -1 -8 3 -5 6 6 6 11 1 17 -2 13
-5z m-319 -55 c-18 -11 -21 -4 -13 28 l7 28 9 -24 c7 -17 6 -27 -3 -32z m-411
25 c-3 -3 -12 -4 -19 -1 -8 3 -5 6 6 6 11 1 17 -2 13 -5z m257 -9 c3 -10 0
-14 -12 -12 -9 1 -18 -2 -20 -8 -1 -5 9 -11 23 -13 14 -2 25 2 25 7 0 8 6 8
18 0 24 -15 69 -4 75 19 4 14 5 14 6 1 0 -9 -6 -22 -14 -29 -17 -14 -21 -35
-4 -24 6 3 4 -7 -4 -22 -16 -33 -23 -119 -7 -94 8 13 10 12 10 -4 0 -15 3 -16
15 -6 17 14 21 35 5 25 -5 -3 -10 3 -10 14 0 31 24 25 37 -9 6 -16 7 -30 2
-30 -5 0 -11 -11 -15 -24 -3 -14 -14 -32 -24 -41 -16 -15 -19 -15 -34 0 -21
21 -23 46 -10 105 5 24 5 24 -15 6 -29 -26 -36 -15 -11 17 30 38 26 51 -16 44
-44 -7 -40 -2 12 17 l39 15 -63 0 c-89 1 -133 29 -79 51 34 14 64 12 71 -5z
m66 0 c0 -8 -4 -15 -9 -15 -5 0 -14 7 -21 15 -10 13 -9 15 9 15 12 0 21 -6 21
-15z m287 3 c21 4 25 2 20 -12 -4 -9 -2 -16 4 -16 6 0 8 -4 5 -9 -7 -10 17
-21 45 -21 10 0 19 -4 19 -10 0 -5 -9 -10 -20 -10 -11 0 -20 -4 -20 -10 0 -5
-9 -10 -20 -10 -11 0 -20 -4 -20 -8 0 -8 -130 -5 -139 3 -2 3 23 5 57 5 35 0
62 4 62 10 0 6 7 10 15 10 8 0 15 5 15 10 0 6 -6 10 -13 10 -8 0 -22 8 -31 19
-9 10 -35 21 -56 25 -22 3 -40 10 -40 15 0 4 21 5 46 1 25 -4 57 -5 71 -2z
m200 6 c-3 -3 -12 -4 -19 -1 -8 3 -5 6 6 6 11 1 17 -2 13 -5z m-347 -24 c0 -5
-8 -10 -17 -10 -15 0 -16 2 -3 10 19 12 20 12 20 0z m-600 -20 c0 -5 -7 -10
-15 -10 -8 0 -15 5 -15 10 0 6 7 10 15 10 8 0 15 -4 15 -10z m143 3 c-7 -2
-19 -2 -25 0 -7 3 -2 5 12 5 14 0 19 -2 13 -5z m520 -4 c15 -1 12 -4 -12 -11
-26 -7 -31 -12 -21 -18 10 -6 5 -9 -15 -9 -53 -2 -64 -4 -59 -13 3 -4 11 -8
19 -8 7 0 17 -9 20 -20 4 -11 10 -18 15 -15 13 8 18 -8 10 -30 -6 -18 -8 -17
-22 10 -8 17 -20 29 -26 28 -7 -2 -12 3 -12 10 0 8 -3 7 -10 -3 -7 -12 -9 -11
-8 5 0 11 -1 26 -3 34 -3 9 6 14 25 15 16 1 34 10 40 19 6 9 17 15 24 12 8 -3
23 -5 35 -6z m335 -8 c3 -8 -1 -12 -9 -9 -7 2 -15 10 -17 17 -3 8 1 12 9 9 7
-2 15 -10 17 -17z m-945 -48 c-7 -2 -19 -2 -25 0 -7 3 -2 5 12 5 14 0 19 -2
13 -5z m948 -6 c-1 -12 -15 -9 -19 4 -3 6 1 10 8 8 6 -3 11 -8 11 -12z m-591
-32 c0 -1 -6 -7 -13 -13 -10 -8 -13 -6 -13 7 0 11 6 17 13 14 7 -3 13 -6 13
-8z m-283 -1 c-3 -3 -12 -4 -19 -1 -8 3 -5 6 6 6 11 1 17 -2 13 -5z m243 -8
c0 -2 -7 -7 -16 -10 -8 -3 -12 -2 -9 4 6 10 25 14 25 6z m310 -47 c0 -6 -4 -7
-10 -4 -5 3 -10 11 -10 16 0 6 5 7 10 4 6 -3 10 -11 10 -16z m-113 -11 c-3 -8
-6 -5 -6 6 -1 11 2 17 5 13 3 -3 4 -12 1 -19z m358 12 c3 -5 -3 -10 -15 -10
-12 0 -18 5 -15 10 3 6 10 10 15 10 5 0 12 -4 15 -10z m-311 -26 c3 -8 2 -12
-4 -9 -6 3 -10 10 -10 16 0 14 7 11 14 -7z m-47 -306 c-3 -8 -6 -5 -6 6 -1 11
2 17 5 13 3 -3 4 -12 1 -19z"/>
<path d="M3011 2937 c-36 -17 -67 -38 -69 -45 -3 -9 9 -7 36 7 23 12 47 18 55
15 9 -3 23 7 37 25 12 17 18 31 13 31 -4 0 -37 -15 -72 -33z"/>
<path d="M3710 2950 c-22 -22 -24 -37 -10 -74 14 -38 80 -106 102 -106 80 0
79 106 -2 174 -38 31 -63 33 -90 6z m67 -52 c27 -30 46 -68 38 -76 -9 -9 -75
64 -75 83 0 21 13 19 37 -7z"/>
<path d="M4089 2953 c-31 -36 6 -246 59 -337 24 -42 64 -47 80 -11 16 35 15
128 -2 190 -38 142 -96 208 -137 158z m85 -156 c9 -30 16 -75 14 -99 -3 -42
-4 -40 -36 58 -17 56 -32 110 -32 120 1 18 2 17 19 -3 10 -11 25 -46 35 -76z"/>
<path d="M1740 2925 c-26 -19 -36 -22 -47 -13 -10 8 -17 8 -25 0 -9 -9 -7 -17
7 -32 26 -29 54 -24 100 15 33 29 37 37 25 45 -21 13 -22 13 -60 -15z"/>
<path d="M2230 2928 c0 -7 4 -17 8 -23 13 -18 103 -87 107 -83 3 2 -22 30 -55
62 -33 31 -60 51 -60 44z"/>
<path d="M886 2899 c-41 -49 -60 -129 -60 -259 -1 -98 2 -120 20 -150 60 -103
113 29 114 283 0 60 -4 116 -10 126 -17 32 -38 32 -64 0z m20 -196 c-8 -139
-19 -183 -31 -119 -12 62 12 246 32 246 3 0 3 -57 -1 -127z"/>
<path d="M1900 2914 c-21 -25 18 -56 78 -62 65 -6 76 11 33 50 -35 32 -90 38
-111 12z m90 -24 c0 -5 -12 -10 -26 -10 -14 0 -23 4 -19 10 3 6 15 10 26 10
10 0 19 -4 19 -10z"/>
<path d="M2020 2922 c0 -20 43 -46 88 -53 26 -4 49 -5 52 -2 8 8 -33 33 -54
33 -12 0 -34 7 -50 15 -33 17 -36 18 -36 7z"/>
<path d="M2532 2900 c0 -19 2 -27 5 -17 2 9 2 25 0 35 -3 9 -5 1 -5 -18z"/>
<path d="M1516 2870 c-22 -40 -32 -50 -46 -45 -43 14 -27 -30 20 -55 21 -11
24 -8 72 82 19 33 23 49 15 57 -20 20 -34 11 -61 -39z"/>
<path d="M2764 2858 c-27 -38 -43 -69 -41 -80 3 -10 1 -21 -4 -24 -5 -3 -9
-10 -9 -16 0 -6 9 -3 20 7 21 19 28 41 8 29 -7 -4 -8 -3 -4 5 4 6 12 9 17 6
14 -9 62 44 55 61 -3 9 1 25 9 37 17 25 19 37 5 37 -6 0 -31 -28 -56 -62z m36
-12 c0 -2 -8 -10 -17 -17 -16 -13 -17 -12 -4 4 13 16 21 21 21 13z"/>
<path d="M3088 2893 c-14 -2 -32 -11 -40 -20 -12 -15 -9 -16 30 -11 24 4 40 2
36 -3 -11 -18 16 -8 43 16 l28 24 -35 -1 c-19 0 -47 -3 -62 -5z"/>
<path d="M2336 2878 c4 -7 17 -27 30 -45 15 -20 20 -33 12 -35 -6 -2 2 -19 21
-40 17 -20 31 -42 31 -50 0 -8 10 -23 23 -34 12 -10 16 -12 10 -4 -7 8 -13 21
-13 30 -1 8 -14 31 -30 50 -35 40 -40 62 -8 34 l22 -19 -23 32 c-12 18 -26 35
-32 39 -6 3 -14 17 -19 30 -5 13 -14 24 -20 24 -6 0 -8 -6 -4 -12z"/>
<path d="M2974 2870 c-22 -11 -54 -34 -69 -50 -25 -26 -26 -30 -9 -30 21 0
119 53 129 71 15 23 -12 28 -51 9z m-8 -35 c-11 -8 -25 -15 -30 -15 -6 0 -2 7
8 15 11 8 25 15 30 15 6 0 2 -7 -8 -15z"/>
<path d="M1808 2869 c-23 -13 -23 -42 0 -62 33 -30 122 -16 122 18 0 38 -82
68 -122 44z m70 -31 c-3 -7 -15 -15 -28 -16 -21 -3 -22 -2 -11 12 16 19 44 21
39 4z"/>
<path d="M3352 2864 c-48 -34 -10 -84 64 -84 27 0 47 6 57 18 23 25 21 37 -9
61 -32 25 -81 27 -112 5z m63 -26 c29 -13 33 -28 8 -28 -29 1 -72 40 -43 40 5
0 21 -5 35 -12z"/>
<path d="M1026 2849 c-69 -54 -78 -317 -12 -342 25 -10 63 30 75 77 14 55 15
231 1 255 -15 29 -36 32 -64 10z m30 -112 c-3 -23 -8 -68 -11 -100 -4 -31 -11
-55 -16 -52 -13 8 -11 135 2 173 15 44 31 29 25 -21z"/>
<path d="M3600 2850 c-26 -26 -25 -48 4 -91 34 -49 77 -67 111 -45 44 29 24
111 -35 141 -39 20 -56 19 -80 -5z m80 -60 c5 -10 10 -27 10 -37 -1 -14 -7
-11 -30 15 -35 38 -41 69 -10 52 11 -6 24 -19 30 -30z"/>
<path d="M1648 2811 c-15 -27 -29 -39 -42 -38 -33 3 -28 -18 8 -36 39 -18 39
-18 77 51 20 37 21 45 9 52 -23 15 -28 12 -52 -29z"/>
<path d="M2116 2841 c-11 -17 82 -81 119 -81 37 0 -7 50 -67 75 -43 18 -45 18
-52 6z m84 -41 c13 -9 13 -10 0 -10 -8 0 -22 5 -30 10 -13 9 -13 10 0 10 8 0
22 -5 30 -10z"/>
<path d="M3971 2824 c-12 -15 -21 -38 -21 -52 0 -39 30 -152 51 -194 16 -31
25 -38 50 -38 25 0 32 6 45 37 34 80 -30 273 -90 273 -8 0 -24 -12 -35 -26z
m63 -86 c19 -51 25 -116 11 -118 -11 -2 -28 50 -40 118 -9 55 8 55 29 0z"/>
<path d="M2022 2804 c22 -23 31 -25 67 -19 22 4 41 11 41 15 0 14 -38 22 -69
15 -17 -3 -32 -2 -36 4 -3 6 -11 11 -18 11 -6 0 0 -12 15 -26z"/>
<path d="M3020 2819 c-13 -6 -32 -17 -42 -26 -9 -8 -22 -12 -28 -8 -12 7 -126
-42 -117 -51 3 -3 15 -1 26 6 12 6 25 9 30 6 5 -3 20 4 35 15 23 18 26 18 26
4 0 -13 6 -15 33 -10 41 9 109 46 115 63 5 15 -41 15 -78 1z m30 -23 c0 -2
-11 -6 -25 -8 -13 -3 -22 -1 -19 3 5 9 44 13 44 5z"/>
<path d="M3117 2813 c-15 -14 -6 -23 23 -23 22 0 28 -4 24 -15 -4 -8 -4 -15 0
-15 12 0 76 34 76 41 0 16 -109 27 -123 12z"/>
<path d="M1177 2773 c-3 -21 -9 -66 -13 -101 -5 -46 -10 -62 -20 -58 -7 3 -16
-4 -20 -16 -8 -27 29 -60 60 -56 19 3 22 12 28 88 15 186 15 175 -8 178 -18 3
-22 -3 -27 -35z"/>
<path d="M3252 2790 c-48 -20 -37 -63 19 -74 36 -7 99 17 99 38 0 36 -67 56
-118 36z m52 -26 c9 -3 16 -10 16 -15 0 -14 -24 -11 -46 6 -16 12 -17 14 -2
15 9 0 23 -3 32 -6z"/>
<path d="M1782 2760 c-11 -21 -23 -29 -34 -26 -10 2 -20 1 -23 -4 -7 -11 15
-27 45 -34 21 -6 28 -1 49 35 19 34 20 43 10 50 -22 14 -29 11 -47 -21z"/>
<path d="M1975 2776 c-13 -10 -25 -11 -37 -5 -31 16 -28 -7 3 -25 30 -18 32
-18 65 0 38 21 42 29 18 38 -22 9 -28 8 -49 -8z"/>
<path d="M3493 2779 c-9 -9 -5 -20 14 -46 20 -26 23 -37 15 -45 -7 -7 -12 -16
-12 -21 0 -12 83 -4 87 9 4 12 -72 114 -85 114 -5 0 -13 -5 -19 -11z"/>
<path d="M4632 2765 c-8 -17 -9 -76 -5 -187 8 -235 -18 -429 -90 -653 l-22
-70 -3 43 -3 44 -35 -72 c-18 -39 -50 -133 -69 -208 -53 -208 -47 -217 39 -64
109 194 181 410 217 652 18 123 21 170 15 310 -8 224 -17 264 -44 205z"/>
<path d="M1315 2713 c-9 -77 -14 -93 -30 -93 -7 0 -15 -9 -18 -19 -9 -34 77
-58 87 -23 2 9 6 55 8 102 3 81 2 85 -19 88 -19 3 -22 -3 -28 -55z"/>
<path d="M3023 2740 c-49 -29 -42 -43 16 -38 52 5 106 32 96 48 -11 17 -79 11
-112 -10z m57 -10 c11 -7 7 -10 -18 -10 -20 0 -31 4 -27 10 8 13 26 13 45 0z"/>
<path d="M3861 2751 c-12 -8 -12 -17 2 -63 29 -94 31 -108 14 -108 -17 0 -28
-22 -18 -38 3 -6 19 -16 35 -22 50 -18 58 1 40 89 -28 135 -42 162 -73 142z"/>
<path d="M2050 2730 c-13 -9 -11 -13 10 -31 l24 -21 -35 7 c-25 5 -39 2 -48
-8 -18 -22 23 -47 76 -47 44 0 55 14 31 38 -9 9 -4 12 25 12 48 0 47 15 -3 40
-44 22 -58 24 -80 10z m75 -19 c7 -12 -12 -24 -25 -16 -11 7 -4 25 10 25 5 0
11 -4 15 -9z m-47 -53 c-6 -18 -28 -21 -28 -4 0 9 7 16 16 16 9 0 14 -5 12
-12z"/>
<path d="M2918 2728 c-47 -12 -49 -24 -5 -22 33 1 87 19 87 29 0 8 -40 4 -82
-7z"/>
<path d="M1455 2675 c-5 -36 -12 -55 -21 -55 -22 0 -28 -22 -9 -37 11 -7 31
-13 47 -13 26 0 28 3 28 43 0 23 3 59 6 80 6 35 5 37 -19 37 -23 0 -26 -4 -32
-55z"/>
<path d="M1915 2710 c-10 -11 -24 -19 -31 -18 -28 6 -13 -18 17 -26 28 -8 34
-7 51 14 33 41 -1 69 -37 30z"/>
<path d="M3138 2723 c-26 -7 -22 -20 8 -27 22 -6 24 -9 13 -23 -12 -14 -10
-15 21 -8 52 11 56 21 19 44 -19 12 -36 20 -39 20 -3 -1 -13 -3 -22 -6z"/>
<path d="M3347 2702 c-23 -25 -21 -37 9 -61 29 -23 74 -27 105 -11 24 14 24
31 -2 64 -25 32 -86 37 -112 8z m74 -33 c7 -14 6 -19 -4 -19 -17 0 -37 20 -37
37 0 17 28 5 41 -18z"/>
<path d="M1569 2692 c-29 -24 -30 -75 -2 -104 17 -16 28 -19 56 -14 66 12 74
102 11 126 -34 13 -38 13 -65 -8z m61 -44 c0 -13 -5 -30 -10 -38 -9 -13 -11
-13 -20 0 -5 8 -8 21 -5 28 3 8 5 18 5 23 0 5 7 9 15 9 9 0 15 -9 15 -22z"/>
<path d="M3714 2682 c-27 -17 -35 -51 -23 -96 23 -92 92 -117 128 -47 27 49
-18 151 -66 151 -16 0 -33 -4 -39 -8z m42 -43 c13 -21 21 -77 14 -89 -10 -16
-25 11 -34 63 -7 36 4 51 20 26z"/>
<path d="M1706 2664 c-36 -35 -4 -94 50 -94 36 0 68 33 61 62 -11 42 -81 63
-111 32z m62 -36 c-4 -27 -28 -36 -28 -10 0 20 8 32 22 32 5 0 8 -10 6 -22z"/>
<path d="M3218 2659 c-59 -34 42 -91 103 -59 10 6 19 19 19 30 0 11 -9 24 -19
30 -25 13 -81 13 -103 -1z m62 -24 c7 -9 10 -18 7 -22 -8 -7 -37 15 -37 28 0
14 16 11 30 -6z"/>
<path d="M1887 2622 c-7 -16 -18 -27 -24 -25 -7 3 -13 0 -13 -6 0 -13 41 -24
67 -19 22 4 31 57 11 69 -21 14 -28 11 -41 -19z"/>
<path d="M3572 2634 c-32 -22 -31 -86 3 -119 51 -52 112 -18 102 57 -9 67 -57
96 -105 62z m52 -40 c10 -27 7 -66 -6 -62 -13 5 -30 57 -22 70 8 13 21 9 28
-8z"/>
<path d="M3100 2622 c0 -4 6 -14 12 -20 10 -10 10 -15 -2 -22 -11 -7 -6 -10
21 -10 47 0 54 9 27 37 -21 22 -58 32 -58 15z"/>
<path d="M4504 2606 c-20 -14 -22 -26 -26 -188 -4 -144 -10 -193 -33 -288 -27
-108 -29 -113 -40 -87 l-12 29 -21 -57 c-16 -42 -22 -78 -22 -138 0 -119 11
-123 53 -25 88 207 129 411 125 626 l-3 142 -21 -14z"/>
<path d="M3448 2604 c-4 -3 -2 -20 3 -37 13 -44 12 -47 -13 -47 -34 0 -8 -20
35 -27 35 -5 37 -4 37 21 0 57 -39 114 -62 90z"/>
<path d="M3270 2565 c-21 -25 2 -63 44 -70 66 -13 100 17 71 61 -12 19 -24 24
-59 24 -27 0 -48 -6 -56 -15z m74 -21 c3 -9 3 -20 0 -25 -8 -13 -34 9 -34 27
0 19 26 18 34 -2z"/>
<path d="M3166 2561 c-4 -5 -3 -16 0 -25 4 -11 0 -16 -12 -16 -27 0 -4 -17 34
-25 28 -6 32 -4 32 15 0 44 -37 79 -54 51z"/>
<path d="M1744 2520 c5 -32 3 -40 -9 -40 -8 0 -15 -4 -15 -10 0 -5 20 -10 45
-10 25 0 45 3 45 7 0 4 -7 27 -16 50 -12 31 -22 43 -37 43 -17 0 -19 -5 -13
-40z"/>
<path d="M1887 2554 c-4 -4 -4 -18 -1 -30 5 -18 2 -24 -11 -24 -31 0 -4 -20
28 -21 29 0 30 -1 10 -9 -27 -11 -29 -23 -7 -44 18 -19 49 -20 93 -5 45 16 37
41 -17 54 -24 6 -40 14 -37 17 4 3 -1 20 -10 37 -15 29 -34 39 -48 25z m88
-105 c12 -19 -5 -23 -22 -6 -16 16 -16 17 -1 17 9 0 20 -5 23 -11z"/>
<path d="M1594 2525 c3 -14 9 -36 12 -50 5 -19 2 -25 -10 -25 -9 0 -16 -7 -16
-15 0 -12 8 -14 43 -9 23 4 43 8 45 10 2 1 -4 27 -14 58 -15 48 -21 56 -42 56
-21 0 -23 -4 -18 -25z"/>
<path d="M1421 2521 c-17 -30 -13 -73 9 -108 16 -27 26 -33 53 -33 65 0 86 59
44 121 -18 27 -31 35 -59 37 -28 2 -39 -1 -47 -17z m73 -59 c5 -18 6 -36 2
-40 -11 -10 -36 28 -36 56 0 33 23 23 34 -16z"/>
<path d="M4359 2529 c-13 -7 -18 -34 -23 -126 -7 -114 -14 -162 -38 -248 -9
-33 -12 -37 -18 -20 -6 17 -10 15 -29 -22 -18 -37 -20 -48 -10 -92 12 -55 35
-84 49 -61 19 31 71 232 85 330 16 114 20 236 7 244 -4 2 -15 0 -23 -5z"/>
<path d="M1289 2509 c-18 -18 -21 -29 -16 -75 7 -68 38 -114 76 -114 62 0 81
71 41 149 -31 62 -66 75 -101 40z m67 -96 c4 -26 3 -43 -3 -43 -14 0 -33 46
-33 83 0 27 2 29 15 17 8 -8 17 -34 21 -57z"/>
<path d="M1144 2475 c-39 -60 14 -225 75 -233 57 -9 76 58 44 157 -29 93 -85
128 -119 76z m79 -117 c12 -47 13 -58 2 -58 -16 0 -45 71 -45 112 0 28 2 30
14 18 7 -8 20 -41 29 -72z"/>
<path d="M4190 2482 c-51 -41 -96 -378 -55 -412 26 -22 54 -1 85 64 51 107 63
283 24 344 -17 27 -25 27 -54 4z m30 -123 c0 -55 -29 -181 -46 -199 -19 -20
-19 -9 6 125 11 60 20 110 20 112 0 2 5 3 10 3 6 0 10 -18 10 -41z"/>
<path d="M3180 2461 c0 -15 -6 -21 -21 -21 -29 0 -14 -17 22 -25 35 -8 46 -1
51 35 2 21 -2 26 -24 28 -23 3 -28 -1 -28 -17z"/>
<path d="M3280 2449 c-24 -44 50 -96 99 -70 29 16 36 49 15 72 -25 28 -99 27
-114 -2z m70 -24 c0 -26 -14 -33 -25 -15 -9 14 1 40 15 40 5 0 10 -11 10 -25z"/>
<path d="M4050 2423 c-1 -27 -6 -77 -13 -113 -10 -51 -16 -64 -29 -62 -20 3
-42 -33 -32 -51 13 -23 48 -57 58 -57 22 0 65 196 66 298 0 28 -3 32 -25 32
-23 0 -25 -4 -25 -47z"/>
<path d="M1032 2451 c-11 -6 -10 -20 2 -72 8 -35 24 -89 36 -119 24 -65 24
-60 4 -60 -12 0 -14 -7 -9 -32 9 -42 8 -41 44 -33 54 12 57 27 23 103 -16 37
-38 102 -49 145 -18 75 -25 85 -51 68z"/>
<path d="M3470 2433 c0 -34 -14 -58 -28 -49 -23 14 -21 -14 2 -29 48 -32 73
-7 75 73 1 28 -2 32 -24 32 -21 0 -25 -5 -25 -27z"/>
<path d="M3580 2438 c-31 -34 -25 -107 11 -127 38 -21 73 -8 93 34 39 81 -45
156 -104 93z m56 -84 c-3 -8 -10 -14 -16 -14 -14 0 -13 63 3 79 10 10 13 6 15
-19 2 -18 1 -38 -2 -46z"/>
<path d="M3760 2428 c0 -18 -3 -50 -6 -70 -5 -30 -10 -37 -27 -35 -36 4 -32
-30 5 -53 18 -11 36 -20 39 -20 10 0 28 72 35 143 l7 67 -27 0 c-23 0 -26 -4
-26 -32z"/>
<path d="M3880 2445 c-19 -23 -40 -104 -40 -155 0 -48 26 -90 55 -90 21 0 54
36 71 76 19 45 18 134 -2 162 -18 26 -65 30 -84 7z m50 -77 c0 -43 -18 -108
-30 -108 -13 0 -13 56 1 103 12 46 29 48 29 5z"/>
<path d="M1790 2445 c0 -3 8 -17 17 -31 13 -20 14 -27 4 -34 -23 -14 5 -20 43
-9 l37 10 -28 34 c-16 19 -38 34 -50 34 -13 1 -23 -1 -23 -4z"/>
<path d="M1652 2410 c-31 -13 -37 -36 -18 -66 27 -40 60 -50 101 -31 26 12 35
23 35 42 0 41 -71 74 -118 55z m52 -36 c9 -8 16 -22 16 -31 0 -14 -2 -14 -22
-1 -24 16 -37 48 -19 48 5 0 17 -7 25 -16z"/>
<path d="M1992 2408 c-13 -7 -21 -17 -18 -25 4 -10 -6 -13 -40 -13 -51 0 -84
-14 -84 -35 0 -34 62 -44 117 -18 26 12 33 21 30 35 -4 15 -1 18 13 13 10 -3
37 1 61 9 26 9 45 12 47 6 2 -6 13 -10 23 -10 11 0 17 -4 14 -10 -9 -15 6 -12
45 10 l35 19 -56 1 c-41 0 -58 4 -63 15 -7 18 -88 20 -124 3z m71 -15 c-7 -2
-21 -2 -30 0 -10 3 -4 5 12 5 17 0 24 -2 18 -5z m-118 -53 c3 -5 -3 -10 -14
-10 -11 0 -23 5 -26 10 -3 6 3 10 14 10 11 0 23 -4 26 -10z"/>
<path d="M3100 2401 c-22 -15 -1 -43 44 -58 58 -20 101 14 61 47 -19 16 -87
23 -105 11z m70 -26 c0 -8 -7 -15 -15 -15 -16 0 -20 12 -8 23 11 12 23 8 23
-8z"/>
<path d="M891 2383 c-30 -25 -36 -79 -17 -165 29 -131 93 -238 142 -238 39 0
50 38 35 113 -18 85 -89 261 -116 287 -21 20 -23 20 -44 3z m71 -175 c48 -124
51 -138 39 -138 -25 0 -69 101 -87 196 -12 63 11 35 48 -58z"/>
<path d="M1525 2359 c-4 -5 6 -28 21 -50 23 -33 25 -42 13 -49 -22 -14 3 -32
34 -25 51 13 52 30 6 85 -42 49 -62 60 -74 39z"/>
<path d="M3284 2344 c-11 -17 -24 -24 -36 -21 -10 3 -18 1 -18 -3 0 -11 41
-40 56 -40 16 0 57 67 49 80 -11 18 -34 11 -51 -16z"/>
<path d="M2012 2325 c-42 -18 -37 -39 9 -43 35 -3 100 25 107 46 5 17 -75 15
-116 -3z m63 -15 c-3 -5 -15 -10 -26 -10 -10 0 -19 5 -19 10 0 6 12 10 26 10
14 0 23 -4 19 -10z"/>
<path d="M3087 2329 c-9 -6 -27 -7 -40 -4 -22 6 -22 6 2 -14 27 -24 40 -26 76
-9 29 13 32 23 9 32 -21 8 -26 7 -47 -5z"/>
<path d="M2246 2299 c-32 -17 -56 -32 -54 -34 8 -8 80 23 101 43 27 28 24 27
-47 -9z"/>
<path d="M2936 2322 c-4 -6 10 -22 31 -36 41 -28 103 -35 103 -12 0 26 -121
69 -134 48z m87 -29 c-7 -2 -21 -2 -30 0 -10 3 -4 5 12 5 17 0 24 -2 18 -5z"/>
<path d="M3371 2304 c-26 -33 -26 -39 -1 -64 43 -43 120 -15 120 43 0 51 -84
66 -119 21z m79 -10 c0 -16 -23 -44 -35 -44 -18 0 -20 21 -3 38 12 12 38 17
38 6z"/>
<path d="M1761 2306 c-10 -12 -6 -18 19 -32 17 -10 28 -24 26 -31 -3 -7 1 -13
9 -13 20 0 65 22 65 31 0 6 -93 59 -105 59 -1 0 -8 -6 -14 -14z"/>
<path d="M2700 2312 c0 -4 5 -13 12 -20 9 -9 9 -12 0 -12 -9 0 -8 -9 2 -35 9
-20 13 -41 10 -48 -2 -7 12 -39 31 -72 40 -66 52 -81 59 -74 3 3 -13 32 -34
64 -47 71 -52 94 -10 45 32 -39 39 -26 13 23 -10 18 -18 39 -19 48 -1 9 -14
33 -29 53 -28 37 -35 42 -35 28z m51 -69 c13 -16 12 -17 -3 -4 -17 13 -22 21
-14 21 2 0 10 -8 17 -17z"/>
<path d="M1387 2292 c-29 -31 -21 -70 22 -113 46 -47 80 -51 110 -14 25 33 14
72 -35 115 -39 34 -73 38 -97 12z m74 -54 c27 -30 38 -58 22 -58 -15 0 -63 55
-63 72 0 25 7 23 41 -14z"/>
<path d="M777 2283 c-22 -25 -22 -34 9 -128 31 -96 70 -184 108 -244 25 -39
26 -45 12 -53 -14 -8 -13 -14 9 -58 23 -46 27 -49 45 -37 12 6 25 28 31 48 10
33 8 40 -36 107 -58 90 -89 160 -129 285 -30 95 -32 98 -49 80z"/>
<path d="M2810 2291 c0 -5 18 -25 39 -44 22 -20 34 -38 28 -40 -17 -5 37 -73
73 -92 33 -17 60 -20 60 -6 0 13 -59 71 -72 71 -6 0 -8 6 -5 14 9 22 -22 58
-43 51 -10 -3 -21 -1 -25 4 -3 7 0 8 9 5 27 -11 17 4 -18 25 -37 23 -46 25
-46 12z m141 -141 l24 -21 -32 16 c-32 15 -42 25 -24 25 5 0 19 -9 32 -20z"/>
<path d="M3162 2281 c-24 -15 -9 -45 32 -65 35 -17 42 -18 65 -5 14 8 27 22
29 31 6 33 -90 62 -126 39z m78 -25 c0 -18 -30 -30 -43 -17 -9 9 11 23 41 30
1 1 2 -5 2 -13z"/>
<path d="M3572 2276 c-5 -6 -17 -26 -26 -44 -14 -27 -21 -31 -41 -26 -34 8
-33 -18 1 -45 22 -17 30 -19 41 -9 15 12 73 107 73 119 0 13 -39 17 -48 5z"/>
<path d="M2108 2266 c-26 -6 -53 -17 -59 -23 -10 -10 -2 -12 40 -9 37 3 59 10
74 25 24 24 18 25 -55 7z"/>
<path d="M2290 2235 c-61 -49 -84 -86 -27 -42 19 15 39 27 44 27 5 0 17 14 26
30 10 17 17 30 15 30 -2 -1 -28 -21 -58 -45z"/>
<path d="M1897 2253 c-15 -15 -5 -23 29 -23 28 0 35 -3 30 -15 -7 -20 3 -19
43 6 27 16 31 23 20 30 -16 10 -112 12 -122 2z"/>
<path d="M1640 2232 c-45 -37 -2 -92 71 -92 19 0 39 9 55 25 22 22 24 28 12
42 -15 19 -69 43 -97 43 -10 0 -29 -8 -41 -18z m75 -34 c25 -11 34 -28 15 -28
-13 0 -70 29 -70 35 0 9 29 5 55 -7z"/>
<path d="M2930 2241 c0 -19 39 -51 63 -51 12 0 33 -3 47 -6 l25 -6 -24 21
c-13 12 -33 21 -45 21 -12 0 -32 7 -44 16 -12 8 -22 10 -22 5z"/>
<path d="M3045 2239 c-16 -25 61 -74 106 -67 37 5 35 35 -3 58 -35 21 -93 27
-103 9z m90 -29 c-3 -5 -15 -10 -25 -10 -10 0 -22 5 -25 10 -4 6 7 10 25 10
18 0 29 -4 25 -10z"/>
<path d="M3641 2203 c-39 -47 -48 -86 -27 -118 31 -47 93 -29 126 35 36 70 19
120 -40 120 -21 0 -37 -10 -59 -37z m59 -54 c-13 -31 -50 -60 -50 -39 0 15 19
51 39 73 20 24 27 5 11 -34z"/>
<path d="M1274 2215 c-6 -16 -4 -20 58 -96 31 -38 35 -48 23 -53 -13 -4 -14
-10 -5 -26 14 -26 22 -25 59 6 l32 26 -38 42 c-21 22 -51 58 -67 79 -30 39
-53 47 -62 22z"/>
<path d="M2780 2221 c0 -20 93 -120 113 -121 20 -1 2 35 -41 80 -45 47 -72 62
-72 41z m71 -58 c13 -15 12 -15 -8 -4 -24 12 -29 21 -14 21 5 0 15 -7 22 -17z"/>
<path d="M3301 2218 c-13 -7 -29 -21 -35 -31 -9 -15 -6 -23 17 -43 34 -29 80
-31 107 -4 25 25 25 42 3 63 -26 23 -65 29 -92 15z m50 -48 c-27 -24 -41 -25
-41 -6 0 16 15 24 45 25 19 0 18 -1 -4 -19z"/>
<path d="M2251 2154 c-60 -60 -74 -84 -47 -84 28 0 122 109 113 132 -2 8 -28
-10 -66 -48z m39 13 c0 -2 -12 -14 -27 -28 l-28 -24 24 28 c23 25 31 32 31 24z"/>
<path d="M2037 2185 c-75 -16 -101 -39 -40 -33 24 2 44 -1 46 -6 2 -5 12 -3
23 4 22 14 50 51 37 49 -5 -1 -34 -7 -66 -14z"/>
<path d="M1803 2166 c-27 -24 -27 -26 -10 -43 34 -34 134 -12 151 34 9 23 -11
33 -66 33 -35 0 -54 -6 -75 -24z m97 -16 c0 -5 -16 -10 -35 -10 -19 0 -35 5
-35 10 0 6 16 10 35 10 19 0 35 -4 35 -10z"/>
<path d="M2378 2120 c-40 -73 -52 -119 -17 -60 12 19 29 46 39 60 18 28 32 70
22 70 -4 0 -24 -32 -44 -70z"/>
<path d="M2143 2150 c-70 -40 -105 -90 -64 -90 16 0 13 -6 -16 -35 -37 -37
-39 -60 -5 -59 19 0 19 -2 -9 -34 -34 -38 -35 -65 -2 -70 26 -4 106 70 116
107 6 24 -13 38 -35 25 -7 -4 -3 4 8 17 22 24 44 62 44 75 0 3 -9 4 -20 1 -17
-4 -14 3 15 34 20 22 33 44 30 49 -8 13 -2 15 -62 -20z m12 -26 c-28 -21 -55
-36 -55 -29 0 6 62 45 70 45 3 -1 -4 -8 -15 -16z m-15 -78 c0 -8 -61 -48 -66
-43 -3 2 10 14 28 26 35 22 38 23 38 17z m-26 -107 c-10 -11 -28 -25 -39 -31
-12 -5 -7 3 13 21 37 35 55 42 26 10z"/>
<path d="M3830 2150 c-25 -60 -71 -124 -80 -110 -4 7 -15 10 -25 7 -18 -8 -14
-34 12 -75 19 -31 30 -21 93 82 53 85 60 110 34 120 -22 8 -20 9 -34 -24z"/>
<path d="M1539 2144 c-14 -18 -12 -20 54 -55 32 -16 36 -23 27 -34 -10 -12 -9
-16 4 -21 11 -4 28 3 46 21 l30 28 -71 39 c-39 21 -72 38 -73 38 -2 0 -9 -7
-17 -16z"/>
<path d="M3005 2149 c-9 -14 32 -58 70 -75 19 -8 23 -13 13 -14 -45 -1 13 -98
59 -101 12 -1 10 -3 -7 -8 -37 -10 -36 -37 4 -77 31 -31 40 -35 78 -32 38 3
43 6 46 29 4 30 -36 69 -72 69 -20 0 -20 1 4 20 l25 19 -21 28 c-11 15 -34 33
-51 38 -24 8 -28 13 -20 26 15 25 2 46 -42 69 -44 22 -76 26 -86 9z m100 -39
c7 -12 -12 -12 -40 0 -18 8 -17 9 7 9 15 1 30 -3 33 -9z m60 -100 c8 -13 -35
-13 -55 0 -11 7 -7 10 17 10 17 0 35 -4 38 -10z m55 -110 c8 -5 11 -12 8 -16
-10 -9 -78 5 -78 16 0 13 50 13 70 0z"/>
<path d="M3134 2149 c-3 -6 7 -25 23 -41 35 -35 93 -42 119 -16 15 15 15 18
-9 42 -21 21 -36 26 -76 26 -27 0 -53 -5 -57 -11z m101 -29 c-3 -5 -17 -10
-31 -10 -13 0 -24 5 -24 10 0 6 14 10 31 10 17 0 28 -4 24 -10z"/>
<path d="M2424 2139 c-41 -51 -80 -176 -53 -167 18 6 71 133 67 160 -2 18 -5
19 -14 7z"/>
<path d="M3390 2120 c-30 -28 -31 -32 -18 -53 9 -12 27 -29 41 -37 24 -13 30
-13 63 5 49 26 62 61 33 92 -32 33 -79 31 -119 -7z m90 -20 c0 -13 -60 -43
-68 -35 -9 8 36 45 54 45 8 0 14 -4 14 -10z"/>
<path d="M2820 2124 c0 -22 96 -122 106 -111 4 4 -17 33 -46 64 -30 32 -55 60
-57 62 -2 2 -3 -4 -3 -15z"/>
<path d="M1171 2111 c-12 -22 3 -46 78 -124 36 -37 43 -50 32 -56 -17 -11 -8
-39 15 -48 19 -7 54 29 54 56 0 9 -25 41 -56 71 -30 30 -64 70 -75 88 -24 37
-34 40 -48 13z"/>
<path d="M2241 2074 c-28 -30 -51 -60 -51 -66 0 -14 104 81 112 103 13 33 -9
20 -61 -37z"/>
<path d="M2425 2041 c-14 -44 -25 -89 -23 -98 2 -11 11 5 22 37 10 30 25 70
33 89 10 22 12 36 5 43 -6 6 -19 -18 -37 -71z"/>
<path d="M2720 2111 c0 -5 4 -21 10 -35 8 -21 7 -26 -6 -26 -19 0 -14 -22 29
-110 18 -39 33 -58 35 -48 2 9 -8 39 -22 67 -34 66 -34 100 0 44 27 -46 61
-60 48 -20 -10 34 -44 100 -62 120 -16 19 -32 22 -32 8z m55 -73 l16 -33 -20
25 c-20 24 -26 40 -16 40 2 0 12 -15 20 -32z"/>
<path d="M3931 2094 c-43 -36 -85 -99 -107 -160 -17 -49 -17 -53 -1 -78 10
-14 26 -26 37 -26 56 0 154 147 148 221 -2 29 -9 46 -24 56 -19 12 -25 11 -53
-13z m6 -117 c-26 -44 -64 -84 -72 -76 -6 7 31 75 63 119 21 28 27 31 30 17 2
-10 -8 -37 -21 -60z"/>
<path d="M660 2084 c-23 -58 17 -213 89 -351 94 -179 254 -339 278 -277 16 42
-48 174 -279 574 -47 82 -72 97 -88 54z m129 -240 c26 -44 71 -117 99 -163 29
-46 50 -87 47 -89 -26 -26 -215 269 -215 336 0 24 15 6 69 -84z"/>
<path d="M1971 2090 c-79 -19 -99 -47 -27 -37 27 4 46 3 46 -3 0 -5 6 -7 14
-4 18 7 48 52 38 57 -4 1 -36 -4 -71 -13z"/>
<path d="M2580 2053 c0 -68 9 -123 20 -123 10 0 0 163 -11 175 -5 5 -9 -16 -9
-52z"/>
<path d="M2930 2092 c0 -11 12 -29 28 -40 35 -25 102 -53 102 -43 0 11 -35 41
-48 41 -6 0 -27 14 -47 31 -32 28 -35 29 -35 11z"/>
<path d="M2477 2094 c-12 -21 -37 -120 -37 -151 0 -36 14 -43 29 -15 17 31 33
141 23 158 -5 9 -12 13 -15 8z m-10 -116 c-3 -8 -6 -5 -6 6 -1 11 2 17 5 13 3
-3 4 -12 1 -19z"/>
<path d="M2544 2082 c-6 -20 -8 -21 -19 -6 -10 14 -13 8 -19 -42 -4 -32 -9
-76 -13 -96 -3 -23 -1 -38 4 -38 6 0 13 30 16 66 7 90 22 100 22 14 0 -70 6
-87 24 -75 14 8 14 165 1 185 -8 12 -11 11 -16 -8z"/>
<path d="M1717 2066 c-6 -16 20 -26 71 -26 32 0 43 -14 20 -23 -7 -3 -3 -6 9
-6 12 -1 31 11 43 27 l22 27 -44 7 c-73 11 -115 9 -121 -6z"/>
<path d="M2255 2028 c-50 -58 -72 -105 -57 -120 14 -14 67 40 93 97 35 77 19
87 -36 23z m16 -26 c-5 -10 -18 -25 -28 -33 -12 -10 -11 -5 6 19 24 35 38 43
22 14z"/>
<path d="M1456 2036 c-30 -29 -32 -43 -10 -74 35 -50 125 -69 158 -33 29 32
17 72 -29 98 -67 37 -90 38 -119 9z m84 -46 c46 -24 54 -46 13 -35 -35 8 -73
32 -73 45 0 15 17 12 60 -10z"/>
<path d="M2830 2032 c0 -26 54 -108 80 -122 27 -15 45 -1 36 28 -8 26 -89 112
-104 112 -7 0 -12 -8 -12 -18z m60 -57 c13 -14 21 -25 18 -25 -2 0 -15 11 -28
25 -13 14 -21 25 -18 25 2 0 15 -11 28 -25z"/>
<path d="M3220 2036 c0 -8 8 -23 18 -35 16 -20 19 -20 71 -6 63 16 77 27 58
44 -11 9 -26 9 -63 -1 -38 -10 -48 -10 -51 0 -6 17 -33 15 -33 -2z"/>
<path d="M3552 2013 c-32 -28 -46 -33 -54 -25 -35 35 -52 -9 -19 -49 l18 -23
67 48 c66 47 80 69 50 80 -19 7 -12 11 -62 -31z"/>
<path d="M4064 1969 c-45 -90 -108 -177 -112 -156 -2 12 -9 16 -19 13 -8 -3
-16 -6 -18 -6 -11 0 -26 -88 -20 -118 l6 -35 35 34 c45 43 121 147 164 222
l33 59 -21 20 -20 21 -28 -54z"/>
<path d="M1940 1992 c-78 -26 -90 -31 -90 -41 0 -5 29 -8 65 -7 51 2 68 6 80
22 18 24 19 44 3 43 -7 -1 -33 -8 -58 -17z"/>
<path d="M2964 1995 c-7 -17 19 -61 49 -85 18 -15 18 -16 -9 -15 -37 0 -41
-22 -12 -64 30 -44 84 -74 110 -60 28 15 22 38 -20 78 -37 36 -37 36 -13 36
55 0 23 68 -50 105 -46 24 -48 24 -55 5z m96 -67 c0 -14 -14 -9 -45 17 l-30
25 38 -17 c20 -9 37 -20 37 -25z m15 -108 c3 -5 1 -10 -5 -10 -15 0 -60 31
-60 41 0 11 56 -16 65 -31z"/>
<path d="M2266 1933 c-51 -75 -61 -126 -11 -57 16 21 37 46 48 55 12 10 18 25
15 44 -3 28 -5 26 -52 -42z"/>
<path d="M1084 1965 c-7 -30 37 -89 117 -156 39 -33 47 -45 38 -56 -9 -10 -8
-18 6 -33 10 -11 23 -20 30 -20 13 0 35 42 35 65 0 12 -206 225 -217 225 -1 0
-5 -11 -9 -25z"/>
<path d="M2690 1949 c0 -54 37 -141 59 -137 11 3 16 14 15 35 -2 38 -49 143
-63 143 -6 0 -11 -18 -11 -41z m48 -84 c0 -5 -6 4 -13 20 -8 17 -14 37 -14 45
0 8 7 -1 14 -20 7 -19 13 -39 13 -45z"/>
<path d="M1656 1954 c-9 -24 -3 -27 58 -32 41 -3 53 -8 49 -18 -3 -9 2 -14 14
-14 19 0 59 55 46 63 -5 3 -42 8 -84 12 -67 6 -77 4 -83 -11z"/>
<path d="M3344 1960 c-44 -10 -54 -18 -54 -46 0 -62 92 -87 147 -40 27 24 27
26 13 53 -17 30 -57 43 -106 33z m71 -40 c7 -11 -35 -30 -66 -30 -31 0 -22 19
14 29 43 12 45 12 52 1z"/>
<path d="M3634 1951 c-47 -21 -108 -87 -100 -108 3 -8 6 -19 6 -24 0 -5 11
-16 24 -24 22 -14 27 -14 65 1 70 28 119 101 93 140 -18 28 -47 33 -88 15z
m46 -50 c0 -17 -61 -61 -83 -61 -20 1 -18 4 15 35 36 33 68 45 68 26z"/>
<path d="M2834 1945 c-9 -22 10 -55 62 -106 58 -56 61 -27 4 35 -22 24 -40 50
-40 59 0 23 -19 31 -26 12z"/>
<path d="M2302 1871 c-45 -83 -47 -91 -33 -91 6 0 22 22 37 49 14 28 33 52 40
55 15 6 19 52 6 60 -5 3 -27 -30 -50 -73z"/>
<path d="M2650 1908 c1 -38 36 -152 48 -156 16 -5 15 17 -3 68 -8 23 -15 58
-15 76 0 24 -5 34 -15 34 -9 0 -15 -9 -15 -22z"/>
<path d="M1387 1914 c-4 -4 -7 -16 -7 -26 0 -15 18 -28 70 -51 55 -24 69 -35
67 -51 -3 -34 30 -31 48 4 9 17 15 36 13 41 -3 8 -35 24 -174 85 -5 3 -13 1
-17 -2z"/>
<path d="M1895 1896 c-68 -30 -89 -98 -31 -104 58 -7 126 44 126 94 0 20 -5
24 -32 24 -18 -1 -46 -7 -63 -14z m45 -40 c-19 -18 -70 -32 -70 -19 0 12 39
31 65 32 17 1 17 -1 5 -13z"/>
<path d="M2091 1851 c-42 -38 -60 -61 -52 -65 7 -5 30 7 55 28 24 19 47 32 50
28 4 -3 11 0 16 8 12 18 13 60 3 60 -5 -1 -37 -27 -72 -59z"/>
<path d="M4144 1878 c-45 -47 -181 -234 -205 -279 -23 -45 -26 -117 -5 -125
25 -10 71 23 143 100 91 97 137 188 138 271 0 53 -2 60 -20 63 -13 2 -32 -10
-51 -30z m-16 -154 c-41 -69 -130 -164 -136 -146 -5 15 26 62 105 157 64 78
82 72 31 -11z"/>
<path d="M2373 1883 c-3 -10 -14 -37 -23 -59 -25 -57 -34 -104 -21 -104 5 0
20 27 32 60 12 33 26 60 30 60 5 0 9 14 9 30 0 33 -17 41 -27 13z"/>
<path d="M2598 1875 c-14 -32 3 -153 24 -166 18 -12 38 9 38 42 0 46 -20 127
-35 139 -12 10 -17 7 -27 -15z m31 -85 l-1 -35 -8 30 c-4 17 -8 39 -9 50 -1
16 1 17 9 5 5 -8 9 -31 9 -50z"/>
<path d="M2421 1833 c-20 -75 -32 -136 -27 -140 12 -12 24 11 35 67 7 33 17
60 22 60 14 0 7 42 -8 47 -7 3 -16 -12 -22 -34z"/>
<path d="M2478 1848 c-6 -13 -12 -57 -12 -98 -1 -62 2 -75 16 -78 24 -5 39 30
40 96 2 61 -8 102 -22 102 -5 0 -15 -10 -22 -22z m12 -115 c-11 -17 -11 -17
-6 0 3 10 7 35 8 55 l1 37 4 -37 c2 -21 -1 -46 -7 -55z"/>
<path d="M2546 1855 c-3 -9 -6 -52 -6 -96 0 -64 3 -79 15 -79 12 0 15 15 17
70 1 39 2 80 2 92 1 26 -19 35 -28 13z"/>
<path d="M2805 1860 c-11 -17 18 -90 50 -127 55 -63 89 -19 44 57 -41 68 -78
96 -94 70z m68 -79 c10 -17 14 -31 8 -31 -9 0 -51 61 -51 75 0 13 24 -12 43
-44z"/>
<path d="M1616 1823 c-10 -24 11 -33 78 -33 47 0 57 -3 52 -15 -10 -27 30 -17
42 10 24 52 19 55 -77 55 -74 0 -90 -3 -95 -17z"/>
<path d="M2138 1801 c-71 -63 -89 -131 -34 -131 50 0 126 125 94 156 -13 13
-20 9 -60 -25z m33 -28 c-14 -27 -61 -68 -61 -54 0 13 53 71 65 71 3 0 1 -8
-4 -17z"/>
<path d="M3144 1816 c-17 -44 15 -65 119 -80 43 -7 48 -5 45 10 -4 22 -23 32
-79 39 -35 4 -48 11 -52 25 -6 23 -25 26 -33 6z"/>
<path d="M3742 1791 c-23 -20 -56 -45 -72 -55 -29 -17 -30 -17 -30 2 0 27 -36
18 -44 -11 -9 -32 -7 -75 3 -81 16 -10 210 118 211 140 0 5 -6 17 -12 26 -12
15 -17 13 -56 -21z"/>
<path d="M3340 1780 c0 -38 1 -40 32 -40 17 0 58 7 90 16 43 13 58 21 58 35 0
27 -12 29 -71 14 -67 -18 -69 -18 -69 0 0 8 -9 15 -20 15 -17 0 -20 -7 -20
-40z"/>
<path d="M644 1747 c6 -78 31 -128 125 -255 83 -112 152 -184 253 -264 61 -49
96 -85 112 -115 15 -30 40 -56 81 -83 32 -22 61 -38 62 -36 5 5 -57 113 -105
183 -22 32 -58 71 -79 85 -144 95 -300 277 -413 478 l-42 75 6 -68z"/>
<path d="M1040 1767 c0 -46 24 -74 130 -153 65 -49 87 -70 83 -83 -5 -20 43
-65 58 -55 11 6 12 95 1 109 -4 6 -32 26 -62 45 -30 19 -90 66 -132 103 l-78
68 0 -34z"/>
<path d="M1908 1762 c-43 -21 -78 -39 -78 -42 0 -3 4 -11 9 -19 7 -11 19 -9
64 12 48 22 56 23 59 9 3 -14 5 -14 21 2 17 17 25 77 10 75 -5 0 -43 -17 -85
-37z"/>
<path d="M2765 1778 c-6 -15 57 -139 80 -158 26 -21 18 25 -12 72 -14 24 -26
54 -27 68 -1 27 -32 41 -41 18z"/>
<path d="M2964 1775 c-4 -9 -1 -28 6 -44 32 -78 140 -115 140 -48 0 62 -127
142 -146 92z m108 -72 c8 -10 6 -13 -4 -13 -18 0 -68 38 -68 51 0 11 55 -19
72 -38z"/>
<path d="M1350 1732 c0 -32 3 -34 125 -76 27 -9 39 -19 37 -29 -1 -9 6 -21 17
-27 16 -8 22 -7 31 9 5 11 10 33 10 50 0 25 -5 32 -27 36 -27 6 -140 44 -175
60 -15 6 -18 2 -18 -23z"/>
<path d="M2185 1690 c-28 -38 -50 -75 -50 -81 0 -29 24 -16 56 31 19 27 39 50
46 50 6 0 15 5 18 11 8 12 -2 59 -13 59 -4 0 -30 -31 -57 -70z"/>
<path d="M2706 1714 c-20 -53 20 -166 61 -172 52 -7 50 68 -3 151 -26 39 -48
47 -58 21z m49 -71 c20 -47 13 -68 -8 -26 -16 31 -22 63 -12 63 3 0 12 -17 20
-37z"/>
<path d="M4237 1666 c-51 -77 -183 -231 -219 -257 l-30 -22 11 22 c20 37 7 45
-27 16 -33 -28 -129 -192 -118 -202 11 -11 119 70 210 157 81 78 186 203 214
257 14 25 16 83 3 83 -4 0 -24 -24 -44 -54z"/>
<path d="M1725 1703 c-100 -6 -115 -12 -115 -39 l0 -26 71 7 c61 6 72 5 84
-11 19 -27 47 -1 43 40 -3 34 -6 34 -83 29z"/>
<path d="M3144 1685 c-30 -46 10 -96 88 -110 31 -6 41 -3 62 18 41 41 17 85
-59 106 -59 16 -73 14 -91 -14z m101 -35 c14 -5 24 -14 20 -20 -8 -12 -66 -1
-85 16 -12 12 -11 14 12 14 15 0 39 -4 53 -10z"/>
<path d="M3445 1705 c-5 -2 -22 -6 -37 -9 -74 -16 -79 -103 -7 -129 52 -18
159 42 159 89 0 39 -64 66 -115 49z m65 -54 c0 -13 -65 -33 -92 -29 -29 4 -26
21 4 30 35 10 88 9 88 -1z"/>
<path d="M1952 1679 c-73 -37 -101 -89 -64 -122 40 -36 112 -4 148 65 14 27
14 32 -1 54 -19 29 -28 30 -83 3z m30 -59 c-18 -17 -41 -30 -52 -30 -28 0 -25
6 17 35 53 35 76 32 35 -5z"/>
<path d="M2255 1662 c-46 -70 -54 -133 -18 -146 25 -10 60 20 78 67 38 99 -7
159 -60 79z m45 -17 c0 -15 -34 -85 -41 -85 -12 0 -12 3 7 50 9 22 20 40 25
40 5 0 9 -2 9 -5z"/>
<path d="M2942 1678 c-7 -7 -12 -17 -12 -23 0 -18 118 -127 130 -120 20 12 9
33 -36 70 -25 21 -43 43 -40 50 4 12 -11 35 -24 35 -3 0 -11 -5 -18 -12z"/>
<path d="M3735 1661 c-28 -16 -70 -48 -93 -72 -38 -38 -43 -47 -40 -83 l3 -41
47 1 c96 1 223 124 204 197 -5 22 -12 27 -39 27 -17 0 -55 -13 -82 -29z m65
-50 c0 -14 -60 -58 -104 -76 -74 -31 -54 9 29 56 52 30 75 36 75 20z"/>
<path d="M2634 1666 c-6 -15 23 -167 34 -178 4 -4 13 -3 21 1 12 8 12 18 -2
68 -9 32 -14 69 -10 82 8 32 -31 58 -43 27z"/>
<path d="M2344 1574 c-20 -64 -24 -88 -15 -97 16 -16 28 0 43 61 7 29 17 52
21 50 5 -2 13 5 19 15 7 14 5 23 -8 38 -9 10 -21 19 -25 19 -5 0 -20 -39 -35
-86z"/>
<path d="M2545 1638 c-3 -7 -1 -51 3 -98 5 -66 10 -85 22 -85 12 0 14 13 12
73 -3 48 0 72 7 72 18 0 12 29 -8 40 -25 13 -31 13 -36 -2z"/>
<path d="M2456 1631 c-3 -5 -9 -47 -12 -95 -6 -73 -5 -86 8 -86 16 0 28 46 28
108 0 20 4 31 10 27 16 -10 24 23 10 40 -14 17 -36 20 -44 6z"/>
<path d="M2016 1536 c-50 -45 -68 -68 -63 -79 10 -27 28 -20 79 30 26 26 48
42 48 35 0 -17 29 -15 36 2 4 11 -21 77 -29 76 -1 -1 -33 -29 -71 -64z"/>
<path d="M1700 1574 c-39 -17 -50 -30 -50 -62 0 -70 119 -99 181 -44 85 76
-14 157 -131 106z m110 -43 c0 -17 -31 -34 -65 -35 -46 -1 -49 16 -5 31 42 14
70 16 70 4z"/>
<path d="M2872 1578 c-39 -39 28 -158 90 -158 33 0 63 39 53 69 -8 27 -91 101
-113 101 -10 0 -23 -5 -30 -12z m96 -109 c-6 -19 -68 43 -68 68 0 14 8 10 36
-19 20 -19 34 -42 32 -49z"/>
<path d="M3110 1553 l-21 -28 21 -17 c25 -20 123 -58 151 -58 15 0 20 6 17 22
-2 16 -17 26 -58 40 -53 18 -86 38 -62 38 6 0 9 7 6 15 -9 23 -30 18 -54 -12z"/>
<path d="M1364 1534 c4 -16 12 -32 18 -35 10 -6 83 -23 151 -34 27 -4 37 -11
37 -24 0 -17 18 -31 41 -31 12 0 11 67 -1 91 -6 10 -21 19 -33 19 -12 0 -53 7
-92 16 -143 31 -129 31 -121 -2z"/>
<path d="M1071 1536 c-17 -20 0 -80 40 -139 95 -144 329 -249 329 -148 0 40
-60 119 -130 172 -52 39 -207 129 -222 129 -3 0 -11 -6 -17 -14z m179 -147
c43 -22 86 -49 96 -60 17 -18 16 -19 -12 -19 -41 0 -123 42 -164 85 -47 48
-20 46 80 -6z"/>
<path d="M3341 1500 c-32 -58 -24 -64 86 -57 104 7 133 18 133 48 0 19 -4 20
-66 14 -36 -4 -73 -8 -82 -9 -10 -1 -17 7 -17 19 0 36 -30 28 -54 -15z"/>
<path d="M2124 1490 c-17 -11 -42 -40 -55 -64 -22 -42 -22 -45 -6 -70 45 -68
138 -22 154 77 4 27 1 39 -16 56 -26 26 -38 26 -77 1z m46 -42 c0 -22 -39 -78
-55 -78 -17 0 -11 21 17 63 20 28 38 36 38 15z"/>
<path d="M2782 1491 c-11 -6 -8 -20 16 -67 16 -33 39 -70 50 -84 20 -24 22
-24 38 -8 17 16 16 20 -19 69 -27 39 -34 56 -26 65 22 27 -25 47 -59 25z"/>
<path d="M3815 1454 c-52 -33 -124 -69 -153 -79 -21 -6 -23 -5 -13 13 15 27
14 32 -4 32 -30 0 -117 -121 -100 -138 9 -9 144 37 218 76 71 36 107 72 107
103 0 24 -7 24 -55 -7z"/>
<path d="M4223 1448 c-22 -18 -85 -73 -139 -122 -54 -49 -142 -124 -194 -166
-179 -145 -270 -239 -270 -278 0 -26 89 -9 170 32 108 56 184 110 276 198 121
116 224 274 224 344 0 33 -19 30 -67 -8z m-82 -185 c-51 -72 -171 -172 -273
-228 -87 -47 -108 -40 -38 13 30 23 114 86 185 141 72 55 134 101 138 101 5 0
-1 -12 -12 -27z"/>
<path d="M1828 1406 c-48 -22 -88 -46 -88 -52 0 -6 8 -19 19 -28 18 -16 22
-15 85 16 61 30 67 31 78 15 9 -11 18 -14 27 -8 17 11 9 50 -16 79 -18 20 -18
19 -105 -22z"/>
<path d="M2240 1363 c-40 -87 -41 -98 -6 -105 15 -2 23 10 41 57 19 49 27 60
44 58 40 -5 22 44 -26 71 -8 4 -26 -23 -53 -81z"/>
<path d="M2672 1434 c-18 -12 -22 -25 -22 -69 0 -43 5 -59 26 -84 44 -53 114
-33 114 33 0 35 -34 100 -62 120 -28 20 -28 20 -56 0z m54 -70 c8 -20 14 -46
12 -58 -3 -20 -4 -20 -20 5 -10 14 -21 39 -24 57 -9 45 13 42 32 -4z"/>
<path d="M3031 1423 c-56 -71 79 -172 157 -117 57 40 45 90 -31 125 -61 27
-101 25 -126 -8z m126 -54 c18 -16 16 -29 -4 -29 -27 0 -83 38 -83 55 0 14 4
14 37 0 20 -9 42 -20 50 -26z"/>
<path d="M2388 1393 c-28 -32 -38 -61 -38 -107 0 -51 24 -76 71 -76 45 0 72
44 67 107 -7 81 -60 121 -100 76z m52 -61 c0 -42 -11 -72 -26 -72 -17 0 -19
46 -4 85 12 32 30 24 30 -13z"/>
<path d="M2536 1402 c-3 -5 -3 -46 1 -91 6 -83 19 -109 49 -97 13 5 15 15 11
51 -4 25 -9 56 -13 70 -5 19 -2 25 9 25 20 0 28 12 18 28 -9 16 -67 27 -75 14z"/>
<path d="M3338 1383 c-35 -5 -98 -64 -98 -90 0 -33 36 -56 94 -61 70 -6 118
11 156 55 68 77 1 119 -152 96z m109 -67 c24 -23 -90 -36 -130 -14 -21 11 -21
11 -2 19 23 10 121 6 132 -5z"/>
<path d="M1454 1312 c27 -52 38 -56 140 -49 94 6 94 6 100 -18 5 -19 13 -25
32 -25 24 0 25 3 19 28 -3 15 -16 42 -27 60 l-20 32 -129 0 -130 0 15 -28z"/>
<path d="M2933 1323 c-18 -9 -33 -22 -33 -28 0 -14 81 -92 123 -120 26 -17 28
-17 47 0 11 10 20 21 20 25 0 4 -25 24 -55 45 -58 40 -65 49 -39 59 13 5 14 9
4 21 -15 19 -26 18 -67 -2z"/>
<path d="M1976 1320 c-39 -12 -96 -69 -96 -95 0 -38 66 -85 119 -85 35 0 98
50 107 85 8 34 -20 81 -57 94 -36 12 -34 12 -73 1z m69 -50 c8 -13 -58 -80
-79 -80 -27 0 -18 33 16 62 35 29 53 34 63 18z"/>
<path d="M3660 1252 c-109 -40 -166 -71 -217 -118 -36 -34 -44 -47 -41 -70 l3
-29 80 1 c66 0 90 5 138 29 104 50 200 156 183 200 -8 22 -60 18 -146 -13z
m46 -81 c-19 -21 -109 -57 -167 -67 -44 -7 -60 10 -27 27 35 19 160 58 187 59
23 0 23 -1 7 -19z"/>
<path d="M2141 1159 c-29 -45 -48 -86 -44 -90 5 -5 23 -11 40 -15 30 -6 33 -4
63 55 27 55 33 60 50 51 22 -12 40 -6 40 13 0 12 -50 50 -81 62 -12 4 -29 -16
-68 -76z"/>
<path d="M2750 1220 c-40 -40 -11 -126 54 -157 32 -15 38 -15 80 1 24 9 50 24
56 31 19 23 2 66 -41 107 -34 32 -47 38 -84 38 -32 0 -51 -6 -65 -20z m103
-63 c22 -27 28 -40 20 -48 -16 -16 -49 5 -68 41 -32 63 -1 68 48 7z"/>
<path d="M3158 1191 c-25 -16 -49 -34 -53 -40 -9 -15 58 -44 153 -66 l73 -18
29 28 c16 15 27 31 25 35 -2 4 -31 10 -63 13 -33 4 -72 11 -87 17 -26 10 -27
12 -10 24 19 13 13 36 -9 36 -6 0 -33 -13 -58 -29z"/>
<path d="M1210 1192 c0 -4 20 -32 44 -63 52 -66 85 -80 235 -102 83 -13 96
-17 123 -46 20 -21 38 -31 59 -31 16 0 29 4 29 8 0 4 -30 40 -66 80 -63 69
-68 72 -111 72 -55 0 -186 33 -258 65 -30 13 -55 21 -55 17z"/>
<path d="M2363 1175 c-17 -7 -39 -27 -47 -44 -41 -79 3 -141 100 -141 66 0 94
22 94 75 0 88 -72 142 -147 110z m62 -91 c0 -42 -3 -49 -20 -49 -15 0 -21 8
-23 32 -4 37 14 76 31 70 7 -2 12 -24 12 -53z"/>
<path d="M2575 1179 c-8 -11 0 -79 17 -148 11 -42 12 -43 46 -37 19 3 37 7 40
10 3 3 -5 31 -17 62 -26 69 -26 74 -1 74 13 0 20 7 20 19 0 14 -10 20 -37 25
-52 8 -61 8 -68 -5z"/>
<path d="M1673 1169 c-39 -11 -58 -41 -44 -67 17 -32 87 -89 122 -100 73 -24
129 -19 168 14 36 30 39 55 11 94 -43 60 -160 87 -257 59z m185 -66 c-5 -27
-72 -56 -108 -48 -16 4 -30 13 -30 20 0 17 66 44 108 44 27 1 33 -3 30 -16z"/>
<path d="M880 1155 c0 -23 196 -250 249 -289 111 -82 318 -166 454 -185 52 -7
85 -20 136 -51 77 -46 118 -60 176 -60 l40 0 -80 43 c-44 24 -129 74 -190 111
-88 54 -129 73 -205 92 -172 45 -362 150 -511 283 -38 34 -69 59 -69 56z"/>
<path d="M2942 1049 c-52 -26 -70 -58 -54 -94 39 -84 214 -87 300 -5 35 33 25
61 -31 89 -70 34 -159 39 -215 10z m118 -52 c57 -28 60 -52 7 -51 -42 2 -90
31 -95 58 -5 23 33 20 88 -7z"/>
<path d="M2000 959 c-82 -76 -82 -74 -3 -105 l42 -16 28 33 c75 89 67 84 102
69 28 -11 34 -11 48 3 14 14 9 19 -55 51 -40 20 -75 36 -79 36 -5 -1 -42 -32
-83 -71z"/>
<path d="M3245 937 c-55 -29 -99 -57 -97 -62 5 -19 59 -27 192 -29 146 -1 158
2 223 62 36 35 34 42 -10 31 -21 -5 -85 -11 -143 -14 l-105 -6 38 21 c42 23
44 26 19 39 -14 7 -41 -3 -117 -42z"/>
<path d="M2700 963 c-30 -2 -58 -7 -62 -11 -8 -8 54 -136 80 -165 16 -18 55
-16 110 4 23 9 23 10 -27 66 -28 31 -48 60 -45 65 3 4 19 8 35 8 24 0 30 4 27
18 -3 19 -25 21 -118 15z"/>
<path d="M3966 919 c-101 -72 -287 -163 -405 -198 -57 -17 -106 -29 -108 -27
-2 2 27 21 64 42 64 37 66 39 38 42 -21 2 -72 -17 -165 -61 -74 -36 -166 -77
-205 -92 -38 -15 -74 -31 -80 -36 -5 -5 44 -9 120 -9 104 0 150 5 230 25 197
48 345 117 440 206 56 53 153 160 143 158 -1 0 -34 -22 -72 -50z"/>
<path d="M2298 933 c-40 -25 -58 -75 -42 -118 10 -25 78 -55 143 -61 108 -12
171 15 171 73 0 35 -45 92 -86 109 -47 19 -152 18 -186 -3z m142 -42 c29 -55
-4 -116 -50 -91 -23 12 -28 78 -8 98 18 18 46 14 58 -7z"/>
<path d="M1598 879 c-27 -15 -22 -42 15 -76 120 -117 386 -195 464 -137 59 44
38 93 -64 146 -108 57 -190 78 -302 78 -53 0 -104 -5 -113 -11z m340 -81 c35
-29 -10 -68 -81 -68 -52 0 -111 24 -104 43 2 6 28 19 58 29 53 17 102 15 127
-4z"/>
<path d="M2890 775 c-92 -21 -143 -42 -170 -70 -20 -21 -22 -28 -12 -49 39
-87 282 -90 459 -5 62 30 101 68 88 88 -23 38 -256 61 -365 36z m145 -74 c40
-18 46 -23 35 -36 -16 -20 -121 -20 -159 -1 -36 19 -55 42 -45 57 10 17 112 5
169 -20z"/>
<path d="M2296 714 c-34 -114 -44 -165 -33 -169 23 -7 220 -25 225 -20 3 2 -3
31 -12 63 -23 84 -24 82 46 79 50 -2 63 1 66 14 3 17 -64 31 -214 45 -65 6
-72 4 -78 -12z"/>
<path d="M2286 499 c-2 -8 -15 -50 -29 -94 -14 -44 -24 -81 -23 -82 23 -25
560 -29 601 -5 18 10 18 11 2 12 -56 1 -249 92 -232 109 4 3 57 8 118 11 92 4
112 8 115 21 3 14 -25 17 -240 23 -134 3 -258 9 -275 12 -23 4 -34 2 -37 -7z"/>
<path d="M3653 4997 l118 -42 263 -255 c331 -321 536 -514 541 -508 5 5 -159
221 -253 333 -42 50 -141 160 -219 246 l-143 157 -129 56 c-123 54 -132 56
-212 55 l-84 0 118 -42z"/>
<path d="M3791 5036 c12 -13 167 -66 191 -66 34 0 41 11 28 44 -9 26 -11 26
-116 26 -59 0 -105 -2 -103 -4z"/>
<path d="M4170 5033 c8 -2 49 -52 90 -110 145 -206 185 -252 269 -313 45 -33
83 -60 86 -60 9 0 -287 446 -311 468 -21 18 -36 22 -87 21 -34 -1 -55 -3 -47
-6z"/>
<path d="M4526 5008 c39 -76 67 -109 125 -148 33 -23 63 -40 65 -37 3 2 -21
52 -53 111 l-57 106 -48 0 -49 0 17 -32z"/>
<path d="M4726 5028 c17 -31 49 -57 74 -63 24 -5 37 -25 99 -151 39 -80 71
-149 71 -154 0 -11 99 -100 111 -100 10 0 4 16 -75 190 -104 229 -106 232
-161 262 -53 29 -133 39 -119 16z"/>
<path d="M5071 4989 c23 -60 38 -89 44 -89 3 0 5 32 5 70 l0 70 -35 0 -35 0
21 -51z"/>
<path d="M944 4885 c-199 -90 -449 -340 -618 -618 -77 -128 -142 -287 -116
-287 27 0 56 28 191 187 182 214 280 323 454 503 156 161 205 216 205 230 0
18 -64 9 -116 -15z m-130 -147 c-5 -7 -75 -94 -157 -193 -83 -99 -175 -210
-205 -247 -31 -37 -58 -66 -60 -63 -7 7 46 96 118 197 67 96 276 318 299 318
7 0 9 -5 5 -12z"/>
<path d="M157 4849 c-31 -22 -79 -68 -107 -102 -46 -57 -50 -66 -50 -117 l0
-55 38 64 c41 70 111 153 112 133 0 -17 -20 -56 -91 -174 -41 -67 -59 -107
-59 -130 l1 -33 25 30 c37 44 188 272 218 330 54 103 15 128 -87 54z"/>
<path d="M4561 4836 c-23 -28 38 -135 203 -356 108 -145 252 -300 279 -300 46
0 -7 164 -110 340 -103 176 -329 368 -372 316z m311 -343 c56 -111 67 -146 40
-129 -35 22 -207 320 -195 339 13 21 94 -89 155 -210z"/>
<path d="M5060 4838 c0 -4 12 -27 28 -51 l27 -42 3 33 c2 19 1 40 -1 47 -6 14
-57 27 -57 13z"/>
<path d="M4412 4579 c41 -46 96 -94 125 -111 44 -25 62 -45 116 -131 125 -198
239 -414 315 -599 34 -82 133 -248 147 -248 3 0 -17 62 -44 138 -81 232 -189
460 -333 705 -62 105 -77 124 -148 180 -68 54 -223 147 -244 147 -4 0 26 -36
66 -81z"/>
<path d="M450 4604 c-90 -59 -209 -173 -236 -225 -32 -64 -30 -69 11 -29 19
19 35 30 35 26 0 -4 -23 -46 -51 -93 -27 -47 -86 -157 -130 -244 -60 -122 -79
-168 -79 -200 0 -35 2 -40 15 -29 8 7 52 87 98 179 92 183 205 371 327 540 43
61 76 111 72 111 -4 0 -32 -16 -62 -36z"/>
<path d="M4980 4514 c13 -21 29 -47 34 -56 6 -10 23 -22 38 -27 16 -6 35 -25
47 -48 l20 -38 1 65 0 65 -48 32 c-26 18 -62 36 -81 39 l-35 7 24 -39z"/>
<path d="M759 4377 c-228 -187 -435 -439 -514 -627 -43 -100 -74 -180 -70
-180 1 0 26 41 54 90 29 50 54 90 56 90 2 0 -21 -57 -52 -127 -190 -441 -263
-891 -223 -1368 12 -133 44 -325 64 -383 21 -57 117 -255 122 -250 2 3 -5 31
-16 64 -30 87 -85 323 -106 454 -28 175 -26 596 4 775 94 561 314 1011 711
1453 51 56 91 102 89 102 -2 0 -56 -42 -119 -93z"/>
<path d="M95 4392 c-54 -33 -95 -89 -95 -129 0 -30 2 -34 15 -23 19 16 19 9 0
-37 -8 -19 -15 -63 -14 -97 l1 -61 74 152 c42 84 76 165 77 180 2 34 -18 40
-58 15z"/>
<path d="M4327 4315 c11 -16 31 -39 43 -50 59 -53 238 -294 315 -425 21 -36
60 -90 87 -122 68 -79 119 -197 188 -428 76 -259 100 -433 100 -742 0 -248
-10 -353 -51 -548 -71 -338 -239 -716 -441 -993 -27 -38 -48 -71 -45 -73 4 -4
173 183 215 239 13 18 57 97 96 177 306 620 365 1305 171 1978 -105 368 -231
591 -449 799 -122 117 -258 229 -229 188z"/>
<path d="M4929 4183 c-6 -38 7 -73 120 -348 l70 -170 1 76 c0 55 -7 95 -25
149 -29 86 -28 111 3 60 l22 -35 0 47 c0 39 -7 55 -45 106 -25 33 -61 74 -81
91 -33 29 -63 40 -65 24z"/>
<path d="M193 3847 c-40 -41 -113 -147 -166 -238 -26 -44 -27 -51 -26 -195 l0
-149 25 83 c34 115 106 303 165 429 27 58 48 107 46 109 -2 2 -22 -15 -44 -39z"/>
<path d="M5091 3318 c0 -29 6 -87 14 -128 l13 -75 -2 124 c-1 90 -4 126 -13
129 -10 3 -13 -11 -12 -50z"/>
<path d="M5102 1970 c-7 -41 -33 -155 -57 -252 -45 -175 -54 -238 -36 -238 12
0 49 49 85 111 l26 46 -2 204 c-3 202 -3 203 -16 129z"/>
<path d="M0 1652 c0 -51 10 -87 64 -224 35 -90 91 -224 123 -298 33 -74 63
-146 67 -160 7 -24 6 -24 -19 5 -45 52 -142 256 -189 395 l-45 135 -1 -92 c0
-83 3 -99 36 -175 71 -166 167 -313 274 -419 77 -77 114 -99 132 -81 6 6 -27
82 -97 218 -136 267 -208 423 -280 604 -32 80 -59 147 -61 149 -2 2 -4 -23 -4
-57z"/>
<path d="M160 1404 c0 -3 34 -73 76 -154 62 -122 83 -153 115 -176 26 -18 61
-62 105 -132 86 -139 205 -305 331 -462 100 -125 105 -129 220 -198 65 -39
127 -74 138 -78 11 -4 -13 28 -54 72 -324 348 -421 468 -587 717 -151 228
-269 384 -303 402 -33 16 -41 18 -41 9z"/>
<path d="M5049 1274 c-63 -93 -146 -254 -131 -254 4 0 22 21 41 46 133 177
-114 -253 -277 -480 -34 -48 -62 -90 -60 -91 2 -2 29 13 61 32 51 32 67 51
140 167 112 176 176 289 242 431 52 111 56 123 53 183 l-3 64 -66 -98z"/>
<path d="M4864 1157 c-28 -28 -103 -117 -166 -197 -156 -197 -339 -391 -557
-595 -215 -200 -249 -247 -163 -223 298 81 678 455 877 863 90 185 93 240 9
152z m-216 -379 c-122 -182 -330 -412 -410 -454 -28 -14 -29 -14 -19 3 5 10
56 68 111 128 56 61 165 186 242 278 77 92 143 165 146 162 3 -2 -29 -56 -70
-117z"/>
<path d="M5098 1084 c-10 -21 -47 -99 -83 -173 -35 -75 -68 -151 -71 -168 -11
-54 26 -43 106 33 65 62 70 69 70 108 l0 41 -20 -25 c-29 -38 -31 -21 -4 45
19 45 24 75 22 119 l-3 58 -17 -38z"/>
<path d="M0 1014 c0 -28 6 -64 14 -80 8 -16 39 -83 69 -149 132 -290 132 -290
184 -327 69 -50 74 -52 65 -31 -4 10 -46 95 -93 188 -47 94 -107 219 -134 278
-27 60 -62 123 -77 140 l-27 32 -1 -51z"/>
<path d="M265 770 c-11 -17 5 -71 42 -145 117 -236 258 -393 434 -485 210
-109 158 14 -144 342 -188 204 -316 314 -332 288z m262 -289 c138 -176 193
-286 109 -220 -54 43 -206 268 -206 306 0 28 22 8 97 -86z"/>
<path d="M4340 668 c-70 -59 -308 -224 -420 -292 -128 -78 -309 -166 -445
-218 -49 -19 -112 -43 -140 -54 l-50 -19 46 -3 c46 -3 132 24 262 82 78 34 64
18 -29 -35 l-77 -44 88 -3 87 -3 114 82 c63 45 163 121 222 168 110 88 391
356 382 364 -3 3 -21 -8 -40 -25z"/>
<path d="M5078 663 c-33 -35 -75 -113 -61 -113 4 0 20 12 36 28 l29 27 -16
-32 c-19 -39 -141 -240 -181 -301 -15 -23 -25 -45 -22 -48 3 -3 23 4 46 15 34
18 53 42 126 164 l86 144 -3 77 -3 77 -37 -38z"/>
<path d="M4910 612 c-58 -37 -225 -212 -350 -368 -139 -173 -136 -164 -51
-164 69 0 71 1 132 50 111 89 243 260 309 403 48 101 35 127 -40 79z m-60
-127 c0 -3 -23 -42 -51 -88 -82 -132 -196 -263 -214 -245 -11 11 237 338 256
338 5 0 9 -2 9 -5z"/>
<path d="M0 560 c0 -20 4 -40 9 -45 18 -19 101 -194 107 -227 l6 -33 -26 25
c-14 14 -41 54 -61 90 l-35 65 0 -62 0 -61 58 -59 c58 -59 142 -110 162 -98
20 12 9 77 -24 148 -38 80 -117 202 -164 257 l-31 35 -1 -35z"/>
<path d="M1120 419 c0 -34 179 -204 307 -290 l72 -49 112 0 c98 0 110 2 99 15
-21 26 11 28 98 6 52 -14 109 -21 164 -20 74 1 78 2 43 10 -205 47 -403 119
-671 245 -110 52 -206 94 -212 94 -7 0 -12 -5 -12 -11z"/>
<path d="M4529 374 c-197 -131 -322 -234 -305 -251 2 -3 28 11 57 31 29 19 55
33 58 30 3 -2 -17 -27 -44 -54 l-49 -50 49 0 50 0 110 132 c126 150 169 207
163 213 -2 3 -42 -21 -89 -51z"/>
<path d="M202 378 c16 -28 39 -50 65 -62 35 -17 46 -31 92 -123 28 -57 57
-106 65 -109 8 -3 30 -4 49 -2 l35 3 -65 118 c-68 123 -97 152 -196 197 -65
30 -73 26 -45 -22z"/>
<path d="M5108 396 c-3 -14 -1 -31 3 -38 6 -8 9 1 9 25 0 42 -6 48 -12 13z"/>
<path d="M780 341 c0 -4 26 -33 58 -63 38 -36 77 -62 117 -78 46 -18 69 -34
98 -71 l38 -49 77 0 76 0 -30 31 c-51 54 -434 257 -434 230z"/>
<path d="M5024 210 c-81 -62 -86 -68 -99 -109 l-7 -24 30 22 c32 23 54 29 34
9 -20 -20 -13 -29 20 -26 29 3 38 12 75 73 40 65 54 115 34 115 -5 0 -44 -27
-87 -60z"/>
<path d="M0 132 c0 -51 0 -52 31 -52 l31 0 -28 48 c-15 26 -29 49 -30 51 -2 2
-4 -19 -4 -47z"/>
<path d="M72 143 c32 -66 27 -63 97 -63 64 0 65 0 42 16 -25 18 -114 54 -132
54 -6 0 -9 -3 -7 -7z"/>
<path d="M607 143 c-4 -3 -7 -19 -7 -35 l0 -28 83 0 82 1 -65 34 c-67 35 -82
40 -93 28z"/>
<path d="M4790 117 l-55 -32 33 -3 c45 -4 54 0 75 37 23 39 15 39 -53 -2z"/>
<path d="M4026 115 c-37 -13 -71 -26 -74 -29 -3 -3 28 -6 69 -6 77 0 99 9 99
42 0 23 -11 23 -94 -7z"/>
</g>
</svg>
