<?xml version="1.0" encoding="utf-8"?>
<!DOCTYPE svg PUBLIC "-//W3C//DTD SVG 1.1//EN" "http://www.w3.org/Graphics/SVG/1.1/DTD/svg11.dtd">
<svg version="1.1" xmlns="http://www.w3.org/2000/svg" x="0" y="0" width="895" height="615" viewBox="0 0 895 615">
<style type="text/css">
	.st0{fill:#E5F3E5;stroke:#1B1464;stroke-dasharray:10;}
	.st1{fill:#ACDBE8;stroke:#1B1464;}
	.st2{fill:none;stroke:#1B1464;stroke-dasharray:10;}
	.st3{fill:#3CB64A;stroke:#1B1464;}
	.st4{fill:#949494;stroke:#1B1464;}
	.st5{fill:#B71E81;stroke:#1B1464;}
	.st6{fill:#ED1D24;stroke:#1B1464;}
	.st7{fill:#8B893D;stroke:#1B1464;}
	.st8{fill:#94BD3D;stroke:#1B1464;}
	.st9{fill:#8B893D;stroke:#1B1464;stroke-linejoin:round;}
	.st10{fill:#94BD3D;stroke:#1B1464;stroke-linejoin:round;}
	.st11{fill:#C3632F;stroke:#1B1464;stroke-linejoin:round;}
	.st12{fill:#ED1D24;stroke:#1B1464;stroke-linejoin:round;}
	.st13{fill:#3CB64A;stroke:#1B1464;stroke-linejoin:round;}
	.st14{fill:#B71E81;stroke:#1B1464;stroke-linejoin:round;}
	.st15{fill:#949494;stroke:#1B1464;stroke-linejoin:round;}
	.st16{font-family:Liberation Sans,Arial;}
	.st17{font-size:78px;}
	.st18{font-size:18px;}
	.st19{fill:#fff;}
	.st20{font-size:12px;}
	.st21{font-size:11px;}
	.st22{fill:none;}
	.st23{display:none;}
</style>
<g id="large_circles">
	<ellipse class="st0" cx="591" cy="298.3" rx="299" ry="297.5"/>
	<ellipse class="st1" cx="591" cy="313" rx="183.5" ry="201"/>
	<circle class="st2" cx="591" cy="353.4" r="145"/>
</g>
<g id="small_circles">
	<g id="outer_ring">
		<circle class="st3" cx="591.3" cy="64" r="29.5"/>
		<circle class="st3" cx="517.8" cy="76.2" r="29.5"/>
		<circle class="st4" cx="373.1" cy="193.9" r="29.5"/>
		<circle class="st4" cx="354.9" cy="260.5" r="29.5"/>
		<circle class="st4" cx="349.9" cy="334" r="29.5"/>
		<circle class="st5" cx="370.5" cy="403.3" r="29.5"/>
		<circle class="st6" cx="402.9" cy="468.4" r="29.5"/>
		<circle class="st6" cx="457.8" cy="519.9" r="29.5"/>
		<circle class="st6" cx="525.1" cy="550.2" r="29.5"/>
		<circle class="st6" cx="606" cy="556.9" r="29.5"/>
		<circle class="st6" cx="680.8" cy="538.5" r="29.5"/>
		<circle class="st6" cx="743.9" cy="499" r="29.5"/>
		<circle class="st6" cx="791.9" cy="443.7" r="29.5"/>
		<circle class="st7" cx="823.2" cy="375.9" r="29.5"/>
		<circle class="st8" cx="830.9" cy="301" r="29.5"/>
		<circle class="st3" cx="818.1" cy="229.2" r="29.5"/>
		<circle class="st3" cx="782.3" cy="165.8" r="29.5"/>
		<circle class="st3" cx="731" cy="114.4" r="29.5"/>
		<circle class="st3" cx="665.7" cy="76.2" r="29.5"/>
		<g>
			<circle class="st9" cx="431.7" cy="119.3" r="50.5"/>
			<path class="st10" d="M431.7,119.3l-1.5,50.5c10.3,0.3,20.8-2.5,30-8.8c11.7-8,19-20,21.3-33L431.7,119.3z"/>
			<path class="st11" d="M480,133.9c4.3-14.1,2.3-30-6.6-43.1c-2.9-4.2-6.2-7.8-10-10.8l-31.7,39.3L480,133.9z"/>
			<path class="st12" d="M431.7,119.3l34-37.3c-13.2-12.1-31.9-16.2-48.9-11L431.7,119.3z"/>
		</g>
	</g>
	<g id="mid_ring">
		<circle class="st7" cx="590.8" cy="167.3" r="29.5"/>
		<circle class="st3" cx="685.5" cy="196.8" r="29.5"/>
		<circle class="st4" cx="496.1" cy="193" r="29.5"/>
	</g>
	<g id="inner_ring">
		<circle class="st7" cx="591" cy="271.5" r="29.5"/>
		<circle class="st7" cx="519.3" cy="306" r="29.5"/>
		<circle class="st7" cx="501.5" cy="383.4" r="29.5"/>
		<circle class="st7" cx="551.2" cy="445.7" r="29.5"/>
		<circle class="st6" cx="630.9" cy="445.7" r="29.5"/>
		<circle class="st7" cx="680.7" cy="382.8" r="29.5"/>
		<circle class="st7" cx="662.9" cy="305.9" r="29.5"/>
		<circle class="st7" cx="591" cy="363.6" r="46"/>
	</g>
	<g id="Legend_1_">
		<circle class="st13" cx="22" cy="137.2" r="16"/>
		<circle class="st10" cx="22" cy="184.3" r="16"/>
		<circle class="st9" cx="22" cy="231.4" r="16"/>
		<circle class="st11" cx="22" cy="278.4" r="16"/>
		<circle class="st12" cx="22" cy="325.5" r="16"/>
		<circle class="st14" cx="22" cy="372.6" r="16"/>
		<circle class="st15" cx="22" cy="419.7" r="16"/>
	</g>
</g>
<g id="text">
	<g id="Legend">
		<text transform="matrix(1 0 0 1 4.1299 63.5961)" class="st16 st17">HTML5    </text>
		<text transform="matrix(1 0 0 1 4.1298 100.3786)" class="st16 st18">Taxonomy &amp; Status on January 20, 2013</text>
		<text transform="matrix(1 0 0 1 48.2667 142.0668)" class="st16 st18">W3C Recommendation</text>
		<text transform="matrix(1 0 0 1 48.2667 189.1489)" class="st16 st18">Proposed Recommendation</text>
		<text transform="matrix(1 0 0 1 48.2667 236.2309)" class="st16 st18">Candidate Recommendation</text>
		<text transform="matrix(1 0 0 1 48.2665 283.3132)" class="st16 st18">Last Call</text>
		<text transform="matrix(1 0 0 1 48.2668 330.3952)" class="st16 st18">Working Draft</text>
		<text transform="matrix(1 0 0 1 48.2668 377.4775)" class="st16 st18">Non-W3C Specifications</text>
		<text transform="matrix(1 0 0 1 48.2665 424.5593)" class="st16 st18">Deprecated</text>
	</g>
	<g id="outer_ring_1_">
		<text transform="matrix(1 0 0 1 578.6329 67.2299)" class="st19 st16 st20">SVG</text>
		<text transform="matrix(1 0 0 1 496.1007 72.2586)"><tspan x="0" y="0" class="st19 st16 st20">MathML</tspan><tspan x="13.3" y="14.4" class="st19 st16 st20">3.0</tspan></text>
		<text transform="matrix(1 0 0 1 640.6795 72.2586)"><tspan x="0" y="0" class="st19 st16 st20">Selectors</tspan><tspan x="18.3" y="14.4" class="st19 st16 st20">L1</tspan></text>
		<text transform="matrix(1 0 0 1 705.0587 110.8038)"><tspan x="0" y="0" class="st19 st16 st21">Navigation</tspan><tspan x="9.5" y="13.2" class="st19 st16 st21">Timing</tspan></text>
		<text transform="matrix(1 0 0 1 755.9835 162.175)"><tspan x="0" y="0" class="st19 st16 st21">Web Open</tspan><tspan x="15.3" y="13.2" class="st19 st16 st21">Font</tspan></text>
		<text transform="matrix(1 0 0 1 802.4448 232.4791)" class="st19 st16 st20">RDFa</text>
		<text transform="matrix(1 0 0 1 819.5786 297.0292)"><tspan x="0" y="0" class="st19 st16 st20">Geo</tspan><tspan x="-11.3" y="14.4" class="st19 st16 st20">Location</tspan></text>
		<text transform="matrix(1 0 0 1 806.5372 371.9075)"><tspan x="0" y="0" class="st19 st16 st20">Touch</tspan><tspan x="-1.7" y="14.4" class="st19 st16 st20">Events</tspan></text>
		<text transform="matrix(1 0 0 1 765.2039 439.7552)"><tspan x="0" y="0" class="st19 st16 st20">Animation</tspan><tspan x="8.7" y="14.4" class="st19 st16 st20">Timing</tspan></text>
		<text transform="matrix(1 0 0 1 727.0549 494.9999)"><tspan x="0" y="0" class="st19 st16 st21">Device</tspan><tspan x="-10.1" y="13.2" class="st19 st16 st21">Orientation</tspan></text>
		<text transform="matrix(1 0 0 1 657.1486 534.54)"><tspan x="0" y="0" class="st19 st16 st20">Contacts</tspan><tspan x="14" y="14.4" class="st19 st16 st20">API</tspan></text>
		<text transform="matrix(1 0 0 1 586.4642 553.2578)"><tspan x="0" y="0" class="st19 st16 st21">Indexed</tspan><tspan x="-4" y="13.2" class="st19 st16 st21">Database</tspan></text>
		<text transform="matrix(1 0 0 1 508.74 546.2933)"><tspan x="0" y="0" class="st19 st16 st20">Media</tspan><tspan x="-5" y="14.4" class="st19 st16 st20">Capture</tspan></text>
		<text transform="matrix(1 0 0 1 436.8097 523.1213)" class="st19 st16 st20">File API</text>
		<text transform="matrix(1 0 0 1 379.1022 464.7271)"><tspan x="0" y="0" class="st19 st16 st21">XmlHTTP</tspan><tspan x="3.3" y="13.2" class="st19 st16 st21">Request</tspan></text>
		<text transform="matrix(1 0 0 1 350.1535 406.5271)" class="st19 st16 st20">WebGL</text>
		<text transform="matrix(1 0 0 1 325.5196 330.0555)"><tspan x="0" y="0" class="st19 st16 st20">Calendar</tspan><tspan x="14.7" y="14.4" class="st19 st16 st20">API</tspan></text>
		<text transform="matrix(1 0 0 1 328.3245 256.5143)"><tspan x="0" y="0" class="st19 st16 st21">Messaging</tspan><tspan x="17.7" y="13.2" class="st19 st16 st21">API</tspan></text>
		<text transform="matrix(1 0 0 1 357.4465 189.914)"><tspan x="0" y="0" class="st19 st16 st20">HTTP</tspan><tspan x="-6.3" y="14.4" class="st19 st16 st20">Caching</tspan></text>
		<text transform="matrix(1 0 0 1 416.0292 122.5172)" class="st19 st16 st20">CSS3</text>
		<path id="SVGID_x5F_1_x5F_" class="st22" d="M408.2,84.8c51-40.4,115.7-69.2,186-69.2c70.3,0,134.9,28.9,186,69.4"/>
		
	</g>
	<g id="mid_ring_1_">
		<text transform="matrix(1 0 0 1 578.4512 163.3204)"><tspan x="0" y="0" class="st19 st16 st20">Web</tspan><tspan x="-8.7" y="14.4" class="st19 st16 st20">Storage</tspan></text>
		<text transform="matrix(1 0 0 1 663.9558 192.8203)"><tspan x="0" y="0" class="st19 st16 st20">HTML +</tspan><tspan x="5.8" y="14.4" class="st19 st16 st20">RDFa</tspan></text>
		<text transform="matrix(1 0 0 1 471.7516 196.203)" class="st19 st16 st20">WebSQL</text>
		<path id="SVGID_x5F_2_x5F_" class="st22" d="M461.9,185c32.8-36.4,78.2-61.7,126.8-61.7c50.7,0,99.5,24.2,132.7,63.4"/>
		
	</g>
	<g id="inner_ring_1_">
		<text transform="matrix(1 0 0 1 650.603 301.9818)"><tspan x="0" y="0" class="st19 st16 st20">Web</tspan><tspan x="-9" y="14.4" class="st19 st16 st20">Sockets</tspan></text>
		<text transform="matrix(1 0 0 1 667.7049 371.6144)"><tspan x="0" y="0" class="st19 st16 st20">Drag</tspan><tspan x="3" y="14.4" class="st19 st16 st20">and</tspan><tspan x="0" y="28.8" class="st19 st16 st20">Drop</tspan></text>
		<text transform="matrix(1 0 0 1 616.27 441.7643)"><tspan x="0" y="0" class="st19 st16 st20">Micro</tspan><tspan x="3" y="14.4" class="st19 st16 st20">data</tspan></text>
		<text transform="matrix(1 0 0 1 538.8604 441.7095)"><tspan x="0" y="0" class="st19 st16 st20">Web</tspan><tspan x="-10" y="14.4" class="st19 st16 st20">Workers</tspan></text>
		<text transform="matrix(1 0 0 1 486.1432 379.4488)"><tspan x="0" y="0" class="st19 st16 st20">Audio</tspan><tspan x="0" y="14.4" class="st19 st16 st20">Video</tspan></text>
		<text transform="matrix(1 0 0 1 498.9257 302.0536)"><tspan x="0" y="0" class="st19 st16 st20">Canvas</tspan><tspan x="12.7" y="14.4" class="st19 st16 st20">2D</tspan></text>
		<text transform="matrix(1 0 0 1 574.6672 359.6447)"><tspan x="0" y="0" class="st19 st16 st20">HTML</tspan><tspan x="-3.7" y="14.4" class="st19 st16 st20">Markup</tspan></text>
		<text transform="matrix(1 0 0 1 579.6912 267.8508)"><tspan x="0" y="0" class="st19 st16 st21">Web</tspan><tspan x="-15.3" y="13.2" class="st19 st16 st21">Messaging</tspan></text>
		<path id="SVGID_x5F_3_x5F_" class="st22" d="M456.7,333.1c14.4-64.9,65.3-115.4,134.5-115.4c68.3,0,118.6,49.3,134,112.9"/>
		
	</g>
	<g id="outer_ring_copy">
		<g>
			<path d="M472.5,52.4l-3-6l-7,3.5l3,6l-1.7,0.9L457.2,44l1.7-0.9l2.8,5.4l7-3.5l-2.8-5.4l1.7-0.9l6.6,12.9L472.5,52.4z"/>
			<path d="M476.9,36.1l5.3,11.7l-1.8,0.8l-5.3-11.7l-4.5,2.1l-0.7-1.5l10.8-4.9l0.7,1.5L476.9,36.1z"/>
			<path d="M499.9,40.5l-3.6-9c-0.4-1-0.7-2-1.1-2.9c0.1,1.3,0.2,2.3,0.2,3l0.2,10.5l-1.3,0.5l-7.2-7.7l-1.2-1.4l-0.7-0.9l0.4,1
				l0.8,1.8l3.6,9l-1.6,0.6l-5.3-13.4l2.4-1l7.3,7.9c0.3,0.3,0.6,0.7,0.8,1.1c0.3,0.4,0.5,0.7,0.6,0.8c0-0.3-0.1-0.7-0.1-1.3
				s-0.1-1-0.1-1.1l-0.2-10.7l2.3-0.9l5.3,13.4L499.9,40.5z"/>
			<path d="M504.4,38.8l-4.7-13.7l1.9-0.6l4.2,12.2l6.9-2.4l0.5,1.5L504.4,38.8z"/>
			<path d="M522.6,28.1c0.4,1.5,0.3,2.7-0.3,3.8c-0.6,1.1-1.7,1.9-3.2,2.3c-1.3,0.4-2.4,0.4-3.4,0.1c-1-0.3-1.7-1-2.2-2l1.7-0.7
				c0.8,1.3,1.9,1.7,3.5,1.2c1-0.3,1.6-0.8,2-1.5c0.4-0.7,0.4-1.6,0.1-2.6c-0.3-0.9-0.7-1.5-1.4-1.9s-1.5-0.4-2.4-0.2
				c-0.5,0.1-0.9,0.4-1.3,0.6s-0.7,0.7-1,1.1l-1.7,0.5l-1.8-7.6L519,19l0.4,1.5l-6.3,1.9l1,4.5c0.6-0.8,1.5-1.4,2.6-1.7
				c1.4-0.4,2.6-0.3,3.6,0.2S522.2,26.8,522.6,28.1z"/>
			<path d="M541.9,28.3c-1.2,0.3-2.3,0.1-3.3-0.6c-0.4,0.5-0.9,1-1.5,1.4c-0.6,0.4-1.2,0.6-1.9,0.8c-1.4,0.3-2.6,0.2-3.6-0.3
				c-0.9-0.5-1.6-1.4-1.8-2.6c-0.4-1.9,0.4-3.5,2.4-5.1c-0.3-0.4-0.6-0.8-0.9-1.3c-0.3-0.5-0.5-1-0.6-1.5c-0.2-1-0.1-1.8,0.4-2.5
				c0.5-0.7,1.3-1.2,2.4-1.4c1-0.2,1.9-0.2,2.6,0.2c0.7,0.4,1.2,1,1.4,1.9c0.2,0.8,0,1.6-0.4,2.3s-1.4,1.6-2.8,2.5
				c1.1,1.2,2.3,2.3,3.9,3.4c0.5-1.3,0.8-2.8,0.8-4.5l1.5,0.1c0,1.8-0.4,3.5-1,5.2c0.8,0.5,1.6,0.7,2.3,0.5c0.5-0.1,0.9-0.3,1.1-0.4
				l0.3,1.3C542.9,28,542.5,28.2,541.9,28.3z M537.4,26.9c-1.7-1.3-3.1-2.5-4.2-3.8c-1.4,1-2,2.2-1.7,3.5c0.2,0.8,0.6,1.4,1.2,1.7
				c0.6,0.4,1.4,0.4,2.3,0.2c0.5-0.1,0.9-0.3,1.4-0.6C536.8,27.7,537.1,27.3,537.4,26.9z M536,17.6c-0.1-0.5-0.4-0.8-0.8-1.1
				c-0.4-0.2-0.9-0.3-1.5-0.1c-0.6,0.1-1.1,0.4-1.3,0.8s-0.3,0.9-0.2,1.5c0.2,0.8,0.6,1.5,1.2,2.3c0.8-0.6,1.4-1,1.7-1.4
				s0.6-0.7,0.7-1.1C536.1,18.3,536.1,18,536,17.6z"/>
			<path d="M550.4,26.6l-1.4-8.4c-0.1-0.8-0.3-1.6-0.5-2.5l1.7-0.3c0.3,1.2,0.4,2,0.5,2.2l0,0c0.1-1,0.4-1.7,0.7-2.1
				c0.3-0.4,0.8-0.7,1.5-0.8c0.2,0,0.5,0,0.8,0l0.3,1.7c-0.3,0-0.6,0-1,0.1c-0.8,0.1-1.3,0.5-1.6,1.3c-0.3,0.7-0.3,1.7-0.1,2.9
				l0.9,5.7L550.4,26.6z"/>
			<path d="M557.7,20.2c0.2,1.3,0.6,2.2,1.2,2.8s1.4,0.9,2.4,0.7c0.8-0.1,1.4-0.3,1.8-0.7c0.4-0.4,0.7-0.8,0.8-1.3l1.7,0.2
				c-0.4,1.8-1.8,2.9-4.1,3.2c-1.6,0.2-2.9-0.1-3.9-1c-1-0.9-1.6-2.2-1.8-4.2c-0.2-1.8,0-3.3,0.7-4.3c0.7-1.1,1.9-1.7,3.5-1.9
				c3.2-0.4,5.1,1.3,5.6,5.2l0,0.2L557.7,20.2z M563.5,18c-0.3-1.1-0.7-2-1.2-2.4S561,15,560,15.1c-0.9,0.1-1.6,0.5-2,1.2
				c-0.4,0.7-0.6,1.5-0.5,2.6L563.5,18z"/>
			<path d="M568.3,24.1L566.8,9l1.8-0.2l1.5,15.1L568.3,24.1z"/>
			<path d="M575.6,23.7c-1.1,0.1-2-0.2-2.6-0.7c-0.6-0.5-0.9-1.3-1-2.4c-0.1-1.1,0.2-2.1,1-2.7s1.9-1.1,3.6-1.2l2.5-0.2l0-0.6
				c-0.1-0.9-0.3-1.5-0.7-1.9c-0.4-0.4-1-0.5-1.8-0.5c-0.8,0.1-1.4,0.2-1.8,0.5c-0.4,0.3-0.6,0.8-0.6,1.4l-1.9,0
				c0.2-2,1.6-3.1,4.2-3.3c1.4-0.1,2.5,0.2,3.2,0.7s1.2,1.5,1.2,2.7l0.3,4.8c0,0.5,0.1,1,0.3,1.2s0.4,0.4,0.8,0.4
				c0.2,0,0.4,0,0.6-0.1l0.1,1.1c-0.5,0.1-0.9,0.2-1.4,0.3c-0.7,0-1.2-0.1-1.5-0.4s-0.5-0.9-0.6-1.6l-0.1,0
				c-0.4,0.9-0.9,1.5-1.5,1.9C577.2,23.4,576.5,23.6,575.6,23.7z M575.9,22.3c0.7,0,1.3-0.2,1.8-0.6c0.5-0.3,0.9-0.8,1.2-1.3
				s0.4-1.1,0.3-1.7l-0.1-0.9l-2,0.2c-0.9,0.1-1.5,0.2-2,0.4c-0.4,0.2-0.8,0.5-1,0.8c-0.2,0.4-0.3,0.8-0.3,1.4
				c0,0.6,0.2,1.1,0.6,1.4C574.8,22.2,575.3,22.3,575.9,22.3z"/>
			<path d="M588.4,22.8c-0.6,0.2-1.2,0.3-1.9,0.3c-1.5,0.1-2.2-0.8-2.3-2.4l-0.3-7.4l-1.3,0l0-1.3l1.4,0l0.5-2.5l1.2,0l0.1,2.5
				l2-0.1l0,1.3l-2,0.1l0.2,7c0,0.5,0.1,0.9,0.3,1.1s0.5,0.3,0.9,0.3c0.2,0,0.6-0.1,1.1-0.2L588.4,22.8z"/>
			<path d="M591.2,17.7c0,1.3,0.3,2.3,0.8,2.9c0.5,0.7,1.3,1,2.3,1c0.8,0,1.4-0.2,1.9-0.5c0.5-0.3,0.8-0.7,1-1.2l1.6,0.4
				c-0.6,1.8-2.1,2.6-4.5,2.7c-1.6,0-2.9-0.5-3.8-1.4c-0.9-1-1.3-2.4-1.3-4.3c0-1.8,0.4-3.2,1.3-4.2c0.8-1,2.1-1.5,3.7-1.5
				c3.3,0,4.9,1.9,4.9,5.9l0,0.2L591.2,17.7z M597.2,16.2c-0.1-1.2-0.4-2-0.9-2.6c-0.5-0.5-1.2-0.8-2.1-0.8c-0.9,0-1.6,0.3-2.1,0.9
				c-0.5,0.6-0.8,1.4-0.8,2.5L597.2,16.2z"/>
			<path d="M608.2,21.4c-0.4,0.7-0.8,1.2-1.4,1.5s-1.3,0.4-2.1,0.4c-1.4-0.1-2.4-0.6-3-1.6s-0.9-2.4-0.8-4.3
				c0.2-3.9,1.6-5.7,4.3-5.6c0.8,0,1.5,0.2,2.1,0.6c0.5,0.3,1,0.8,1.3,1.5l0,0l0-1.2l0.2-4.6l1.8,0.1L610.1,21
				c-0.1,1.2-0.1,1.9,0,2.3l-1.8-0.1c0-0.1,0-0.4,0-0.8C608.2,22,608.2,21.7,608.2,21.4L608.2,21.4z M602.8,17.4
				c-0.1,1.5,0.1,2.7,0.5,3.4c0.4,0.7,1,1.1,2,1.1c1,0,1.8-0.3,2.3-1c0.5-0.7,0.8-1.8,0.9-3.3c0.1-1.5-0.1-2.6-0.6-3.3
				s-1.2-1.1-2.2-1.1c-0.9,0-1.6,0.3-2.1,0.9C603.1,14.7,602.8,15.8,602.8,17.4z"/>
			<path d="M622.4,24.3c-0.6,0.1-1.2,0.1-1.9,0.1c-1.5-0.1-2.1-1.1-2-2.7l0.7-7.4l-1.3-0.1l0.1-1.3l1.3,0.1l0.8-2.4l1.2,0.1
				l-0.3,2.5l2,0.2l-0.1,1.3l-2-0.2l-0.7,7c-0.1,0.5,0,0.9,0.1,1.1c0.2,0.2,0.4,0.4,0.9,0.4c0.2,0,0.6,0,1.1,0L622.4,24.3z"/>
			<path d="M625.8,19.6c-0.2,1.3,0,2.3,0.4,3c0.4,0.8,1.1,1.2,2.1,1.3c0.8,0.1,1.4,0,2-0.2s0.9-0.6,1.1-1.1l1.5,0.7
				c-0.9,1.6-2.5,2.3-4.8,2c-1.6-0.2-2.8-0.9-3.5-2c-0.7-1.1-1-2.6-0.7-4.5c0.2-1.8,0.9-3.2,1.8-4c1-0.9,2.3-1.2,3.8-1
				c3.2,0.4,4.6,2.6,4.1,6.5l0,0.2L625.8,19.6z M632,19c0.1-1.2-0.1-2.1-0.5-2.7s-1.1-1-2-1.1c-0.9-0.1-1.6,0.1-2.2,0.6
				c-0.6,0.5-1,1.3-1.2,2.3L632,19z"/>
			<path d="M637.4,20.8c-0.3,1.5-0.2,2.6,0.1,3.4c0.3,0.8,1,1.3,1.9,1.4c0.6,0.1,1.2,0,1.7-0.2s0.9-0.8,1.1-1.5l1.8,0.4
				c-0.3,1-0.9,1.8-1.8,2.3s-1.9,0.6-3,0.4c-1.5-0.3-2.6-1-3.2-2.1c-0.6-1.1-0.8-2.6-0.5-4.4c0.3-1.8,1-3.2,2-4
				c1-0.8,2.2-1.1,3.7-0.8c1.1,0.2,2,0.7,2.6,1.4c0.6,0.7,1,1.6,1,2.6l-1.9-0.2c0-0.6-0.1-1.1-0.5-1.6s-0.8-0.7-1.5-0.8
				c-1-0.2-1.7,0-2.3,0.6C638.1,18.3,637.7,19.3,637.4,20.8z"/>
			<path d="M648.8,19.3c0.5-0.6,1.1-1,1.7-1.3c0.6-0.2,1.3-0.2,2.2,0c1.2,0.3,2,0.7,2.4,1.4c0.4,0.7,0.5,1.7,0.2,3.1l-1.6,7.2
				l-1.8-0.4l1.5-6.9c0.2-0.8,0.2-1.3,0.2-1.7c-0.1-0.4-0.2-0.7-0.5-1c-0.3-0.2-0.7-0.4-1.3-0.6c-0.8-0.2-1.6,0-2.2,0.4
				c-0.6,0.5-1.1,1.2-1.3,2.2l-1.4,6.4l-1.8-0.4l3.3-14.9l1.8,0.4l-0.8,3.9c-0.1,0.4-0.2,0.8-0.3,1.3
				C648.9,19,648.8,19.2,648.8,19.3L648.8,19.3z"/>
			<path d="M663,32.2l1.8-6.8c0.2-0.7,0.3-1.3,0.2-1.7c0-0.4-0.2-0.8-0.4-1c-0.3-0.3-0.7-0.5-1.3-0.6c-0.9-0.2-1.6-0.1-2.3,0.3
				c-0.7,0.5-1.1,1.2-1.4,2.3l-1.6,6.2l-1.8-0.5l2.2-8.4c0.3-1.2,0.5-2,0.5-2.3l1.7,0.4c0,0,0,0.1-0.1,0.3c0,0.1-0.1,0.3-0.1,0.5
				s-0.1,0.5-0.2,1.1l0,0c0.6-0.6,1.2-1,1.8-1.2c0.6-0.2,1.3-0.1,2.1,0.1c1.2,0.3,2,0.8,2.4,1.6c0.4,0.7,0.4,1.8,0.1,3.1l-1.9,7.1
				L663,32.2z"/>
			<path d="M677.8,30.8c-0.6,1.9-1.4,3.1-2.5,3.8c-1.1,0.7-2.4,0.7-4,0.3c-1.5-0.5-2.6-1.3-3.1-2.5c-0.5-1.2-0.5-2.7,0.1-4.5
				c1.1-3.7,3.3-5,6.4-4c1.6,0.5,2.7,1.3,3.2,2.4C678.4,27.4,678.3,28.9,677.8,30.8z M675.9,30.2c0.5-1.5,0.6-2.6,0.3-3.4
				c-0.2-0.8-0.9-1.4-1.9-1.7c-1-0.3-1.9-0.2-2.6,0.3s-1.2,1.5-1.7,3c-0.4,1.4-0.5,2.5-0.3,3.4c0.2,0.8,0.8,1.4,1.8,1.7
				c1.1,0.3,1.9,0.2,2.6-0.3C674.9,32.7,675.5,31.7,675.9,30.2z"/>
			<path d="M678.1,36.8l4.9-14.4l1.7,0.6l-4.9,14.4L678.1,36.8z"/>
			<path d="M693.1,36.3c-0.7,1.8-1.6,3-2.7,3.6s-2.5,0.6-4,0c-1.5-0.6-2.5-1.4-2.9-2.7c-0.4-1.2-0.3-2.7,0.3-4.4
				c1.3-3.6,3.5-4.8,6.7-3.7c1.6,0.6,2.6,1.5,3,2.6C693.9,32.9,693.7,34.4,693.1,36.3z M691.2,35.6c0.5-1.4,0.7-2.6,0.5-3.4
				s-0.8-1.4-1.8-1.8c-1-0.4-1.9-0.3-2.6,0.2c-0.7,0.5-1.3,1.4-1.8,2.9c-0.5,1.4-0.7,2.5-0.5,3.3s0.8,1.5,1.7,1.8
				c1,0.4,1.9,0.3,2.6-0.2C690.1,38,690.7,37,691.2,35.6z"/>
			<path d="M695.2,47.9c-1.1-0.5-1.9-1.1-2.4-1.8c-0.5-0.7-0.6-1.5-0.5-2.4l1.8,0.5c-0.1,0.5,0,1,0.3,1.4c0.3,0.4,0.7,0.8,1.4,1
				c1.7,0.7,3,0.1,3.8-1.9l0.7-1.6l0,0c-0.6,0.5-1.2,0.8-1.9,0.9s-1.4,0-2.2-0.3c-1.3-0.5-2-1.3-2.3-2.4c-0.2-1.1,0-2.5,0.7-4.3
				c0.8-1.8,1.6-3,2.6-3.6c1-0.6,2.1-0.6,3.4-0.1c0.7,0.3,1.3,0.7,1.7,1.3s0.6,1.2,0.6,1.9l0,0c0.1-0.2,0.2-0.5,0.4-1
				c0.2-0.5,0.4-0.7,0.4-0.7l1.6,0.7c-0.2,0.3-0.5,1-0.9,2.1l-3.2,7.8C700.1,48.2,698.1,49.1,695.2,47.9z M701.6,39.8
				c0.3-0.8,0.5-1.6,0.6-2.3s-0.1-1.3-0.4-1.8c-0.3-0.5-0.7-0.8-1.2-1.1c-0.9-0.4-1.6-0.3-2.3,0.2c-0.7,0.5-1.3,1.4-1.9,2.8
				c-0.6,1.4-0.8,2.5-0.7,3.3s0.6,1.3,1.5,1.7c0.5,0.2,1.1,0.3,1.6,0.1c0.5-0.1,1.1-0.5,1.5-1C700.9,41.3,701.3,40.6,701.6,39.8z"/>
			<path d="M703.6,46.7l4.5-10.1l1.7,0.8l-4.5,10.1L703.6,46.7z M709.1,34.4l0.7-1.6l1.7,0.8l-0.7,1.6L709.1,34.4z"/>
			<path d="M711.2,44.5c-0.5,1.1-0.7,2.1-0.6,3c0.2,0.8,0.7,1.5,1.6,1.9c0.7,0.3,1.4,0.5,1.9,0.4s1-0.3,1.4-0.7l1.3,1.1
				c-1.4,1.3-3.1,1.4-5.2,0.4c-1.5-0.7-2.4-1.7-2.8-2.9s-0.1-2.7,0.7-4.5c0.8-1.7,1.8-2.7,3-3.3c1.2-0.5,2.5-0.4,3.9,0.3
				c2.9,1.4,3.6,3.9,1.9,7.4l-0.1,0.2L711.2,44.5z M717.2,45.8c0.4-1.1,0.5-2,0.3-2.7c-0.2-0.7-0.7-1.2-1.6-1.6
				c-0.8-0.4-1.6-0.4-2.3-0.1s-1.3,0.9-1.8,1.9L717.2,45.8z"/>
			<path d="M726.8,54.6c-0.5,0.9-1.2,1.5-2.2,1.6c-1,0.1-2.1-0.1-3.3-0.8c-1.2-0.6-2.1-1.3-2.5-2.1c-0.5-0.7-0.6-1.6-0.3-2.6
				l1.6,0.5c-0.1,0.6,0,1.1,0.3,1.6c0.3,0.5,0.9,0.9,1.6,1.3c0.8,0.4,1.5,0.6,2,0.6c0.5-0.1,0.9-0.3,1.2-0.8
				c0.2-0.4,0.2-0.8,0.1-1.2s-0.5-0.8-1-1.3l-1-0.9c-0.8-0.7-1.4-1.3-1.6-1.8c-0.3-0.4-0.4-0.9-0.5-1.3s0-0.9,0.3-1.4
				c0.5-0.9,1.1-1.4,2-1.6c0.9-0.1,1.9,0.1,3.2,0.7c1.1,0.6,1.8,1.2,2.3,1.9c0.4,0.7,0.5,1.5,0.3,2.5l-1.6-0.6
				c0.1-0.5,0.1-0.9-0.2-1.4c-0.3-0.4-0.7-0.8-1.4-1.2c-0.7-0.4-1.3-0.6-1.8-0.5c-0.5,0-0.8,0.3-1.1,0.7c-0.1,0.3-0.2,0.5-0.1,0.8
				s0.2,0.5,0.4,0.8c0.2,0.3,0.7,0.8,1.5,1.5c0.8,0.7,1.3,1.2,1.6,1.6c0.3,0.4,0.5,0.7,0.6,1.1c0.1,0.3,0.1,0.7,0.1,1
				C727.1,53.9,727,54.2,726.8,54.6z"/>
		</g>
	</g>
	<g id="mid_ring_copy">
		<g>
			<path d="M508.6,153.6l-1.7,1.1l-6.1-5.4c-0.4-0.3-1-1-2-1.9c0.2,0.7,0.5,1.2,0.6,1.6c0.2,0.4,1.1,3.3,2.8,8.7l-1.7,1.1l-9.9-8.3
				l1.5-1l6.2,5.3c0.8,0.7,1.5,1.4,2.3,2.1c-0.2-0.6-0.5-1.3-0.8-2c-0.3-0.7-1.2-3.6-2.8-8.7l1.3-0.9l6,5.3c1,0.9,1.8,1.6,2.4,2.2
				l-0.1-0.3c-0.2-0.6-0.4-1.2-0.6-1.6s-1.1-3.4-2.9-8.8l1.5-1L508.6,153.6z"/>
			<path d="M517.8,144.4c0.6,1,0.7,1.9,0.3,2.8c-0.3,0.9-1.1,1.7-2.3,2.3c-1.1,0.6-2.1,0.9-3,0.7c-0.9-0.1-1.7-0.6-2.4-1.5l1.4-0.9
				c0.9,1.2,2,1.4,3.4,0.6c0.7-0.4,1.1-0.9,1.4-1.4c0.2-0.6,0.1-1.2-0.3-1.9c-0.3-0.6-0.8-0.9-1.4-1c-0.6-0.1-1.4,0.1-2.2,0.6
				l-0.8,0.4l-0.7-1.2l0.8-0.4c0.8-0.4,1.3-0.9,1.5-1.5c0.2-0.6,0.2-1.1-0.1-1.7c-0.3-0.6-0.7-0.9-1.3-1.1s-1.1,0-1.8,0.3
				c-0.6,0.3-1,0.8-1.2,1.3s-0.2,1.1,0.1,1.7l-1.4,0.7c-0.4-0.9-0.4-1.8-0.1-2.7c0.4-0.8,1-1.6,2-2.1c1.1-0.6,2.1-0.8,3-0.7
				s1.6,0.7,2.1,1.6c0.4,0.7,0.5,1.4,0.4,2c-0.1,0.6-0.5,1.3-1.2,1.8l0,0c0.9-0.4,1.6-0.4,2.3-0.2
				C516.8,143.3,517.4,143.7,517.8,144.4z"/>
			<path d="M521.2,134c-1.2,0.6-2,1.4-2.3,2.6s-0.1,2.4,0.5,3.8c0.7,1.4,1.5,2.3,2.7,2.8c1.1,0.5,2.3,0.4,3.5-0.1
				c1.6-0.7,2.4-2.1,2.4-4l1.5,0c0,1.2-0.3,2.2-0.9,3.1s-1.4,1.6-2.5,2.1c-1.1,0.5-2.2,0.8-3.3,0.7c-1-0.1-2-0.4-2.8-1.1
				s-1.6-1.6-2.1-2.8c-0.9-1.8-1-3.4-0.6-4.9c0.5-1.5,1.6-2.6,3.3-3.4c1.2-0.6,2.3-0.8,3.3-0.7s1.9,0.5,2.7,1.2l-1.2,1.2
				c-0.6-0.5-1.2-0.8-2-0.9C522.8,133.5,522,133.6,521.2,134z"/>
			<path d="M544.8,136.6l-1.9-5.4l-6.3,2.2l1.9,5.4l-1.6,0.6l-4.1-11.7l1.6-0.6l1.7,4.9l6.3-2.2l-1.7-4.9l1.6-0.6l4.1,11.7
				L544.8,136.6z"/>
			<path d="M550.6,123.4l2.8,10.6l-1.6,0.4l-2.8-10.6l-4.1,1.1l-0.4-1.3l9.8-2.6l0.4,1.3L550.6,123.4z"/>
			<path d="M569.2,130.8l-1.4-8.1c-0.2-0.9-0.3-1.8-0.4-2.6c-0.1,1.1-0.2,1.9-0.3,2.6l-1.7,8.9l-1.2,0.2l-4.7-7.7l-0.7-1.4l-0.5-0.9
				l0.2,1l0.3,1.6l1.4,8.1l-1.5,0.3l-2.2-12.2l2.2-0.4l4.7,7.9c0.2,0.3,0.4,0.7,0.5,1s0.3,0.6,0.4,0.8c0-0.2,0-0.6,0.1-1.1
				c0.1-0.5,0.1-0.8,0.1-0.9l1.7-9l2.1-0.4l2.2,12.2L569.2,130.8z"/>
			<path d="M573.1,130.3L572,118l1.7-0.1l1,11l6.2-0.6l0.1,1.4L573.1,130.3z"/>
			<path d="M590.4,125.4c0,1.3-0.3,2.3-1.1,3.1c-0.8,0.8-1.8,1.2-3.2,1.2c-1.2,0-2.1-0.2-2.8-0.7c-0.7-0.5-1.2-1.2-1.4-2.2l1.6-0.2
				c0.4,1.2,1.2,1.8,2.6,1.8c0.8,0,1.5-0.3,2-0.8c0.5-0.5,0.7-1.2,0.7-2.1c0-0.8-0.3-1.4-0.8-1.9c-0.5-0.5-1.1-0.7-2-0.7
				c-0.4,0-0.8,0.1-1.2,0.2c-0.4,0.1-0.7,0.4-1.1,0.7l-1.5,0l0.3-6.7l7-0.1l0,1.3l-5.6,0.1l-0.2,3.9c0.7-0.5,1.5-0.8,2.5-0.8
				c1.2,0,2.2,0.3,2.9,1C590,123.3,590.4,124.2,590.4,125.4z"/>
			<path d="M604.2,127.6c-0.1,0.9-0.5,1.6-1.2,2c-0.7,0.4-1.7,0.6-2.9,0.5c-1.2-0.1-2.1-0.3-2.7-0.8c-0.6-0.4-1-1.1-1.1-1.9l1.4-0.2
				c0.1,0.5,0.3,0.9,0.7,1.2c0.4,0.3,1,0.4,1.7,0.5c0.8,0.1,1.4,0,1.8-0.2s0.6-0.6,0.6-1.1c0-0.4-0.1-0.7-0.3-0.9
				c-0.2-0.3-0.6-0.5-1.2-0.7l-1.1-0.4c-0.9-0.3-1.5-0.6-1.9-0.8c-0.4-0.3-0.6-0.5-0.8-0.9s-0.3-0.7-0.2-1.2
				c0.1-0.9,0.4-1.5,1.1-1.9c0.7-0.4,1.6-0.6,2.7-0.5c1,0.1,1.9,0.3,2.5,0.7c0.6,0.4,0.9,1,1,1.9l-1.4,0.1c-0.1-0.4-0.3-0.8-0.6-1
				c-0.4-0.3-0.9-0.4-1.5-0.5c-0.7-0.1-1.2,0-1.6,0.2c-0.4,0.2-0.5,0.5-0.6,0.9c0,0.3,0,0.5,0.2,0.7c0.1,0.2,0.3,0.4,0.6,0.5
				c0.3,0.1,0.8,0.4,1.7,0.6c0.8,0.3,1.4,0.5,1.8,0.7c0.4,0.2,0.6,0.4,0.8,0.7s0.3,0.5,0.4,0.8C604.2,126.9,604.2,127.2,604.2,127.6
				z"/>
			<path d="M614.1,126.6c-0.4,3.3-1.8,4.8-4.1,4.5c-1.5-0.2-2.4-0.9-2.7-2l0,0c0,0,0,0.5-0.2,1.5l-0.5,3.7L605,134l1.5-11.2
				c0.1-1,0.2-1.6,0.2-1.9l1.5,0.2c0,0,0,0.1,0,0.3c0,0.1,0,0.4,0,0.7c0,0.3,0,0.5-0.1,0.6l0,0c0.4-0.5,0.8-0.9,1.3-1.1
				s1.1-0.3,1.9-0.2c1.2,0.2,2,0.7,2.4,1.5C614.2,123.7,614.3,125,614.1,126.6z M612.4,126.5c0.2-1.3,0.1-2.3-0.2-2.9
				c-0.3-0.6-0.8-1-1.6-1.1c-0.6-0.1-1.1,0-1.5,0.2c-0.4,0.2-0.7,0.6-1,1.1s-0.4,1.2-0.6,2.1c-0.2,1.2-0.1,2.2,0.2,2.8
				s0.9,1,1.8,1.1c0.8,0.1,1.4-0.1,1.8-0.6S612.2,127.8,612.4,126.5z"/>
			<path d="M617,127.6c-0.2,1.1-0.2,1.9,0.2,2.6s0.9,1.1,1.8,1.3c0.7,0.1,1.2,0.1,1.7-0.1c0.5-0.2,0.8-0.5,1-0.9l1.3,0.7
				c-0.8,1.4-2.3,1.9-4.2,1.5c-1.4-0.3-2.3-0.9-2.9-1.9c-0.6-1-0.7-2.3-0.4-3.9c0.3-1.5,0.9-2.7,1.8-3.3c0.9-0.7,2-0.9,3.3-0.6
				c2.7,0.5,3.8,2.5,3.1,5.8l0,0.2L617,127.6z M622.3,127.4c0.1-1,0-1.8-0.3-2.3c-0.3-0.5-0.9-0.9-1.7-1c-0.8-0.1-1.4,0-1.9,0.4
				s-0.9,1.1-1.1,1.9L622.3,127.4z"/>
			<path d="M626.8,129.2c-0.3,1.2-0.4,2.2-0.1,2.9c0.2,0.7,0.7,1.1,1.5,1.3c0.5,0.1,1,0.1,1.5-0.1c0.4-0.2,0.8-0.6,1-1.2l1.5,0.5
				c-0.3,0.9-0.9,1.5-1.7,1.8c-0.8,0.4-1.6,0.4-2.6,0.2c-1.3-0.3-2.2-1-2.6-2c-0.5-1-0.5-2.3-0.1-3.8c0.4-1.5,1-2.6,1.9-3.3
				s2-0.8,3.2-0.5c0.9,0.2,1.7,0.7,2.2,1.3s0.7,1.4,0.7,2.3l-1.6-0.3c0.1-0.5,0-1-0.3-1.4c-0.2-0.4-0.7-0.7-1.3-0.8
				c-0.8-0.2-1.5-0.1-2,0.4C627.6,127.1,627.2,128,626.8,129.2z"/>
			<path d="M632.9,135.9l2.7-9.1l1.5,0.5l-2.7,9.1L632.9,135.9z M636.2,124.8l0.4-1.4l1.5,0.5l-0.4,1.4L636.2,124.8z"/>
			<path d="M641,129.6l-2.6,7.9l-1.5-0.5l2.6-7.9l-1.3-0.4l0.4-1.1l1.3,0.4l0.3-1c0.3-0.8,0.6-1.4,1.1-1.6c0.5-0.2,1.1-0.2,1.8,0
				c0.4,0.1,0.8,0.3,1,0.4l-0.4,1.1c-0.2-0.1-0.5-0.2-0.6-0.3c-0.4-0.1-0.7-0.1-0.9,0c-0.2,0.1-0.4,0.5-0.6,1l-0.3,0.8l1.8,0.6
				l-0.4,1.1L641,129.6z"/>
			<path d="M641.2,138.5l3.2-9l1.5,0.5l-3.2,9L641.2,138.5z M645.1,127.6l0.5-1.4l1.5,0.5l-0.5,1.4L645.1,127.6z"/>
			<path d="M647.6,135.7c-0.5,1.2-0.6,2.1-0.5,2.8c0.1,0.7,0.6,1.2,1.3,1.5c0.5,0.2,1,0.2,1.5,0.1s0.9-0.5,1.2-1l1.4,0.7
				c-0.5,0.8-1.1,1.3-1.9,1.6c-0.8,0.3-1.7,0.2-2.6-0.2c-1.2-0.5-2-1.3-2.4-2.3c-0.3-1-0.2-2.3,0.4-3.8c0.6-1.5,1.4-2.5,2.3-3
				c1-0.5,2.1-0.5,3.3-0.1c0.9,0.4,1.6,0.9,2,1.6c0.4,0.7,0.5,1.5,0.4,2.4l-1.6-0.5c0.1-0.5,0.1-1-0.1-1.4c-0.2-0.4-0.6-0.7-1.2-1
				c-0.8-0.3-1.4-0.3-2,0.1C648.6,133.7,648.1,134.5,647.6,135.7z"/>
			<path d="M654.9,144.2c-0.9-0.4-1.4-0.9-1.6-1.6c-0.2-0.7-0.2-1.4,0.2-2.2c0.4-0.9,1-1.4,1.8-1.7c0.8-0.2,1.9,0,3.2,0.5l2,0.9
				l0.2-0.5c0.3-0.7,0.4-1.3,0.2-1.7c-0.2-0.4-0.6-0.8-1.2-1.1c-0.6-0.3-1.2-0.4-1.6-0.3c-0.4,0.1-0.7,0.4-1,0.8l-1.4-0.8
				c1-1.4,2.5-1.7,4.5-0.7c1.1,0.5,1.8,1.1,2.1,1.9s0.3,1.6-0.2,2.5l-1.7,3.7c-0.2,0.4-0.3,0.8-0.3,1c0,0.3,0.2,0.5,0.5,0.6
				c0.1,0.1,0.3,0.1,0.5,0.2l-0.4,0.9c-0.4-0.1-0.8-0.2-1.2-0.4c-0.5-0.2-0.9-0.6-1-1s0-0.9,0.2-1.5l0,0c-0.7,0.5-1.3,0.8-1.9,0.8
				S655.6,144.5,654.9,144.2z M655.7,143.3c0.5,0.2,1,0.3,1.6,0.3c0.5-0.1,1-0.2,1.4-0.5c0.4-0.3,0.7-0.7,1-1.1l0.3-0.7l-1.6-0.7
				c-0.7-0.3-1.2-0.5-1.6-0.5c-0.4,0-0.8,0-1.1,0.2s-0.6,0.5-0.8,0.9c-0.2,0.5-0.3,0.9-0.1,1.3C655,142.7,655.3,143,655.7,143.3z"/>
			<path d="M664.9,148.8c-0.5-0.1-1-0.3-1.5-0.5c-1.1-0.6-1.4-1.5-0.7-2.8l2.9-5.6l-1-0.5l0.5-1l1,0.5l1.4-1.7l0.9,0.5l-1,1.9
				l1.6,0.8l-0.5,1l-1.6-0.8l-2.7,5.3c-0.2,0.4-0.3,0.7-0.2,1s0.2,0.4,0.6,0.6c0.2,0.1,0.5,0.2,0.9,0.3L664.9,148.8z"/>
			<path d="M665.9,149.4l4.6-8.3l1.4,0.8l-4.6,8.3L665.9,149.4z M671.4,139.3l0.7-1.3l1.4,0.8l-0.7,1.3L671.4,139.3z"/>
			<path d="M678.5,151.2c-0.9,1.4-1.8,2.3-2.8,2.6c-1,0.3-2.2,0.1-3.4-0.6c-1.2-0.7-1.9-1.6-2-2.7c-0.2-1.1,0.1-2.3,1-3.7
				c1.7-2.8,3.7-3.5,6.2-2c1.2,0.7,2,1.6,2.1,2.7C679.8,148.6,679.4,149.8,678.5,151.2z M677.1,150.4c0.7-1.1,1-2,1-2.8
				c0-0.7-0.4-1.3-1.2-1.8c-0.8-0.5-1.5-0.6-2.2-0.2c-0.7,0.3-1.3,1-2,2.1c-0.6,1.1-1,2-0.9,2.7c0,0.7,0.4,1.3,1.2,1.8
				c0.8,0.5,1.6,0.6,2.2,0.3C675.8,152.2,676.5,151.5,677.1,150.4z"/>
			<path d="M682.5,159.6l3.4-5c0.4-0.5,0.6-1,0.7-1.3s0.1-0.7-0.1-0.9c-0.1-0.3-0.4-0.6-0.9-0.9c-0.6-0.4-1.3-0.5-1.9-0.4
				c-0.7,0.2-1.2,0.7-1.8,1.4l-3.1,4.6l-1.3-0.9l4.2-6.2c0.6-0.9,1-1.5,1.1-1.7l1.2,0.8c0,0-0.1,0.1-0.1,0.2
				c-0.1,0.1-0.1,0.2-0.2,0.4c-0.1,0.1-0.3,0.4-0.5,0.8l0,0c0.7-0.3,1.3-0.5,1.8-0.4c0.5,0,1.1,0.3,1.7,0.7c0.9,0.6,1.4,1.2,1.5,1.9
				c0.1,0.7-0.2,1.5-0.8,2.5l-3.5,5.3L682.5,159.6z"/>
		</g>
	</g>
	<g id="inner_ring_copy">
		<g>
			<path d="M494.5,267.1l-7.3-6.3l0.9-1l7.3,6.3L494.5,267.1z"/>
			<path d="M499.9,261.2l-3.4-3.2c-0.4-0.3-0.7-0.6-0.9-0.7c-0.3-0.1-0.5-0.1-0.7-0.1c-0.2,0.1-0.5,0.3-0.8,0.5
				c-0.4,0.4-0.6,0.9-0.5,1.4c0.1,0.5,0.4,1,0.9,1.5l3.1,2.9l-0.8,0.9l-4.2-4c-0.6-0.6-1-0.9-1.2-1.1l0.8-0.8c0,0,0.1,0.1,0.1,0.1
				c0.1,0.1,0.2,0.1,0.3,0.2c0.1,0.1,0.3,0.2,0.5,0.5l0,0c-0.2-0.6-0.2-1-0.1-1.5s0.3-0.8,0.7-1.2c0.6-0.6,1.1-0.9,1.7-0.9
				c0.6,0,1.2,0.3,1.8,1l3.6,3.4L499.9,261.2z"/>
			<path d="M495.6,252.8l-0.8-0.8l0.9-0.9l0.8,0.8L495.6,252.8z M501.9,259.2l-5.2-5.3l0.9-0.9l5.2,5.3L501.9,259.2z"/>
			<path d="M506.1,255.1c-0.2,0.4-0.5,0.7-0.8,1c-0.7,0.7-1.5,0.6-2.2-0.2l-3.4-3.6l-0.6,0.6l-0.6-0.7l0.7-0.6l-0.9-1.5l0.6-0.6
				l1.1,1.2l1-0.9l0.6,0.7l-1,0.9l3.2,3.4c0.2,0.3,0.5,0.4,0.6,0.4s0.4-0.1,0.6-0.3c0.1-0.1,0.3-0.3,0.5-0.6L506.1,255.1z"/>
			<path d="M500.9,247.8l-0.8-0.9l0.9-0.8l0.8,0.9L500.9,247.8z M506.8,254.5l-4.9-5.5l0.9-0.8l4.9,5.5L506.8,254.5z"/>
			<path d="M510.6,251.5c-0.6,0.5-1.1,0.7-1.7,0.6s-1-0.4-1.5-0.9c-0.5-0.6-0.7-1.2-0.5-1.8c0.1-0.6,0.6-1.3,1.5-2l1.3-1.1l-0.3-0.3
				c-0.4-0.5-0.8-0.7-1.1-0.8c-0.4,0-0.8,0.1-1.2,0.5c-0.4,0.3-0.7,0.7-0.8,1c-0.1,0.3,0,0.6,0.2,1l-1.1,0.7c-0.7-1.2-0.3-2.3,1-3.4
				c0.7-0.6,1.4-0.9,2-0.8s1.2,0.4,1.7,1l2,2.5c0.2,0.3,0.4,0.5,0.6,0.5c0.2,0.1,0.4,0,0.6-0.1c0.1-0.1,0.2-0.2,0.3-0.3l0.5,0.6
				c-0.2,0.3-0.4,0.5-0.7,0.7c-0.4,0.3-0.7,0.4-1,0.3s-0.6-0.3-1-0.6l0,0c0.1,0.6,0.1,1.2-0.1,1.6
				C511.4,250.7,511,251.1,510.6,251.5z M510.2,250.6c0.3-0.3,0.6-0.6,0.7-1c0.1-0.4,0.2-0.8,0.1-1.2c-0.1-0.4-0.2-0.8-0.5-1
				l-0.4-0.5l-1,0.9c-0.4,0.4-0.7,0.7-0.9,1c-0.2,0.3-0.2,0.5-0.2,0.8c0,0.3,0.1,0.6,0.4,0.8c0.3,0.3,0.5,0.5,0.8,0.5
				C509.6,251,509.9,250.9,510.2,250.6z"/>
			<path d="M515,247.9l-6.1-8.1l1-0.7l6.1,8.1L515,247.9z"/>
			<path d="M528.2,239l-1.3,0.8l-4.6-4.3c-0.3-0.3-0.8-0.8-1.5-1.5c0.2,0.5,0.3,0.9,0.4,1.3c0.1,0.3,0.8,2.6,2,6.8l-1.3,0.8
				l-7.5-6.7l1.2-0.7l4.7,4.3c0.6,0.5,1.1,1.1,1.7,1.7c-0.2-0.5-0.3-1-0.5-1.6c-0.2-0.6-0.8-2.9-2-6.8l1.1-0.7l4.6,4.2
				c0.7,0.7,1.3,1.3,1.8,1.8l-0.1-0.2c-0.2-0.5-0.3-0.9-0.4-1.2c-0.1-0.3-0.8-2.6-2-6.9l1.2-0.7L528.2,239z"/>
			<path d="M537.2,234.4l-2-4l-4.7,2.3l2,4l-1.2,0.6l-4.3-8.6l1.2-0.6l1.8,3.6l4.7-2.3l-1.8-3.6l1.2-0.6l4.3,8.6L537.2,234.4z"/>
			<path d="M546.5,230.5l-2.1-2.2l-4.1,1.6l0,3l-1.3,0.5l0-10.4l1.4-0.6l7.2,7.5L546.5,230.5z M540.2,223.7l0,0.2
				c0,0.4,0.1,0.9,0.1,1.5l0,3.4l3.3-1.4l-2.3-2.5c-0.2-0.2-0.5-0.5-0.8-0.8L540.2,223.7z"/>
			<path d="M548.4,220.7l2.7,8.1l-1.2,0.4l-2.7-8.1l-3.1,1l-0.3-1l7.5-2.5l0.3,1L548.4,220.7z"/>
			<path d="M564.2,225.3l-1.5,0.4l-3.1-5.6c-0.2-0.3-0.5-1-1-1.9c0,0.5,0,1,0,1.4c0,0.4-0.1,2.7-0.2,7.1L557,227l-5-8.7l1.3-0.3
				l3.1,5.5c0.4,0.7,0.8,1.4,1.1,2.2c0-0.5,0-1.1,0-1.7c0-0.6,0.1-3,0.2-7.1l1.2-0.3l3,5.4c0.5,0.9,0.9,1.7,1.2,2.3l0-0.2
				c0-0.5,0-1,0-1.3c0-0.3,0.1-2.7,0.2-7.2l1.3-0.3L564.2,225.3z"/>
			<path d="M566.6,219.8c-0.2-1.5,0-2.8,0.7-3.8c0.7-1,1.8-1.6,3.3-1.8c1.1-0.2,1.9-0.1,2.6,0.2c0.7,0.3,1.3,0.8,1.8,1.5l-1.2,0.5
				c-0.4-0.5-0.8-0.8-1.3-1c-0.5-0.2-1.1-0.2-1.8-0.1c-1.1,0.2-1.9,0.6-2.4,1.4c-0.5,0.8-0.6,1.7-0.5,2.9c0.2,1.2,0.6,2.1,1.3,2.7
				c0.7,0.6,1.6,0.8,2.7,0.7c0.6-0.1,1.2-0.3,1.7-0.5c0.5-0.3,0.9-0.6,1.2-1l-0.3-1.7l-2.8,0.4l-0.2-1.1l4-0.6l0.5,3.3
				c-0.4,0.6-1,1.1-1.7,1.5c-0.7,0.4-1.5,0.6-2.3,0.8c-1,0.1-1.9,0.1-2.7-0.2c-0.8-0.3-1.4-0.8-1.9-1.5S566.7,220.8,566.6,219.8z"/>
			<path d="M588.4,222.6l-0.2-4.5l-5.2,0.2l0.2,4.5l-1.3,0.1l-0.4-9.6l1.3-0.1l0.2,4.1l5.2-0.2l-0.2-4.1l1.3-0.1l0.4,9.6
				L588.4,222.6z"/>
			<path d="M595.7,214l-0.2,8.6l-1.3,0l0.2-8.6l-3.3-0.1l0-1.1l7.9,0.2l0,1.1L595.7,214z"/>
			<path d="M608,223.6l0.6-6.4c0.1-0.7,0.2-1.4,0.3-2c-0.3,0.8-0.6,1.4-0.8,1.8l-3.1,6.3l-0.9-0.1l-1.9-6.8l-0.3-1.2l-0.1-0.8
				l-0.1,0.8l-0.1,1.3l-0.6,6.4l-1.2-0.1l1-9.6l1.7,0.2l1.9,6.9c0.1,0.3,0.1,0.6,0.2,0.9s0.1,0.5,0.1,0.7c0.1-0.2,0.2-0.4,0.3-0.8
				c0.2-0.4,0.3-0.6,0.3-0.7l3.2-6.4l1.7,0.2l-1,9.6L608,223.6z"/>
			<path d="M611.1,224l1.7-9.5l1.3,0.2l-1.5,8.4l4.8,0.8l-0.2,1.1L611.1,224z"/>
			<path d="M625.1,223.7c-0.2,1-0.7,1.7-1.4,2.1c-0.7,0.4-1.6,0.5-2.6,0.3c-0.9-0.2-1.5-0.6-2-1.1s-0.7-1.1-0.6-1.9l1.2,0.1
				c0,1,0.6,1.6,1.6,1.9c0.6,0.2,1.2,0.1,1.6-0.2s0.8-0.8,0.9-1.5c0.1-0.6,0.1-1.1-0.2-1.6c-0.3-0.5-0.7-0.7-1.4-0.9
				c-0.3-0.1-0.6-0.1-0.9-0.1c-0.3,0-0.6,0.1-1,0.3l-1.2-0.3l1.5-5l5.3,1.3l-0.2,1l-4.2-1l-0.9,2.9c0.6-0.3,1.3-0.3,2.1-0.1
				c0.9,0.2,1.6,0.7,2,1.3C625.2,222,625.3,222.8,625.1,223.7z"/>
			<path d="M635.1,227.9c-0.2,0.7-0.6,1.1-1.3,1.3c-0.6,0.2-1.4,0.1-2.3-0.2c-0.9-0.3-1.5-0.7-1.9-1.1c-0.4-0.4-0.5-1-0.5-1.7
				l1.1,0.1c0,0.4,0.1,0.8,0.3,1c0.3,0.3,0.7,0.5,1.2,0.7c0.6,0.2,1.1,0.2,1.4,0.2c0.3-0.1,0.6-0.3,0.7-0.7c0.1-0.3,0.1-0.5-0.1-0.8
				c-0.1-0.2-0.4-0.5-0.8-0.7l-0.8-0.5c-0.6-0.4-1-0.7-1.3-1c-0.2-0.3-0.4-0.5-0.5-0.8c-0.1-0.3-0.1-0.6,0.1-1
				c0.2-0.6,0.6-1.1,1.2-1.2s1.3-0.1,2.2,0.2c0.8,0.3,1.3,0.6,1.7,1s0.5,1,0.4,1.6l-1.1-0.2c0-0.3-0.1-0.6-0.3-0.9s-0.6-0.5-1.1-0.6
				c-0.5-0.2-0.9-0.2-1.2-0.1c-0.3,0.1-0.5,0.3-0.6,0.6c-0.1,0.2-0.1,0.4,0,0.5c0.1,0.2,0.2,0.3,0.4,0.5c0.2,0.2,0.6,0.4,1.2,0.8
				c0.6,0.4,1,0.7,1.2,0.9c0.2,0.2,0.4,0.4,0.5,0.7c0.1,0.2,0.2,0.4,0.2,0.7C635.2,227.4,635.2,227.7,635.1,227.9z"/>
			<path d="M642.8,229.1c-1,2.4-2.3,3.3-4,2.6c-1.1-0.4-1.6-1.1-1.7-2l0,0c0,0-0.1,0.4-0.4,1.1l-1.1,2.7l-1.1-0.5l3.2-8.2
				c0.3-0.7,0.5-1.2,0.5-1.4l1.1,0.4c0,0,0,0.1-0.1,0.2c0,0.1-0.1,0.3-0.2,0.5s-0.1,0.4-0.2,0.5l0,0c0.4-0.3,0.8-0.5,1.2-0.6
				s0.9,0,1.4,0.2c0.8,0.3,1.4,0.9,1.6,1.6C643.4,226.9,643.2,227.9,642.8,229.1z M641.5,228.7c0.4-1,0.5-1.7,0.4-2.2
				c-0.1-0.5-0.4-0.9-1-1.1c-0.5-0.2-0.8-0.2-1.2-0.1s-0.6,0.3-0.9,0.7c-0.3,0.4-0.6,0.9-0.8,1.5c-0.4,0.9-0.5,1.6-0.4,2.2
				c0.1,0.5,0.5,0.9,1.1,1.2c0.6,0.2,1.1,0.2,1.5-0.1C640.8,230.3,641.2,229.7,641.5,228.7z"/>
			<path d="M644.8,230.4c-0.4,0.8-0.5,1.4-0.4,2c0.1,0.6,0.5,1,1.1,1.3c0.5,0.2,0.9,0.3,1.3,0.3c0.4-0.1,0.7-0.2,0.9-0.5l0.8,0.7
				c-0.9,0.9-2.1,1-3.5,0.3c-1-0.5-1.6-1.1-1.8-1.9c-0.2-0.8-0.1-1.8,0.5-3c0.5-1.1,1.2-1.8,2-2.2c0.8-0.3,1.7-0.3,2.6,0.2
				c2,0.9,2.4,2.6,1.3,4.9l-0.1,0.1L644.8,230.4z M648.9,231.2c0.3-0.7,0.3-1.3,0.2-1.8c-0.1-0.5-0.5-0.8-1.1-1.1
				c-0.5-0.3-1.1-0.3-1.5-0.1c-0.5,0.2-0.9,0.6-1.2,1.2L648.9,231.2z"/>
			<path d="M651.9,233.5c-0.5,0.9-0.7,1.6-0.6,2.1c0,0.6,0.3,1,0.9,1.3c0.4,0.2,0.8,0.3,1.1,0.2s0.7-0.3,1-0.7l1.1,0.7
				c-0.4,0.6-1,0.9-1.6,1.1c-0.7,0.1-1.3,0-2-0.4c-0.9-0.5-1.4-1.2-1.6-2c-0.2-0.8,0-1.8,0.6-2.9c0.6-1.1,1.3-1.8,2.1-2.1
				c0.8-0.3,1.6-0.2,2.5,0.3c0.7,0.4,1.1,0.8,1.4,1.4c0.3,0.6,0.3,1.2,0.1,1.9l-1.2-0.5c0.1-0.4,0.2-0.8,0-1.1
				c-0.1-0.3-0.4-0.6-0.8-0.8c-0.6-0.3-1.1-0.3-1.6-0.1C652.8,232,652.4,232.6,651.9,233.5z"/>
			<path d="M655.2,239.6l3.8-6.4l1.1,0.6l-3.8,6.4L655.2,239.6z M659.8,231.9l0.6-1l1.1,0.6l-0.6,1L659.8,231.9z"/>
			<path d="M662.5,236.5l-3.5,5.5l-1-0.7l3.5-5.5l-0.9-0.6l0.5-0.8l0.9,0.6l0.4-0.7c0.4-0.6,0.7-0.9,1.2-1c0.4-0.1,0.9,0,1.4,0.3
				c0.3,0.2,0.5,0.4,0.7,0.5l-0.5,0.8c-0.2-0.1-0.3-0.3-0.4-0.3c-0.3-0.2-0.5-0.2-0.7-0.2c-0.2,0.1-0.4,0.3-0.6,0.6l-0.4,0.6
				l1.2,0.8l-0.5,0.8L662.5,236.5z"/>
			<path d="M660.9,243.2l4.1-6.1l1,0.7l-4.1,6.1L660.9,243.2z M665.9,235.7l0.7-1l1,0.7l-0.7,1L665.9,235.7z"/>
			<path d="M666.3,242.4c-0.6,0.8-0.9,1.5-0.9,2c0,0.6,0.2,1,0.7,1.4c0.4,0.3,0.7,0.4,1.1,0.4c0.4,0,0.7-0.2,1.1-0.6l1,0.8
				c-0.5,0.5-1.1,0.8-1.7,0.8c-0.7,0-1.3-0.2-1.9-0.6c-0.8-0.6-1.3-1.3-1.3-2.2s0.3-1.8,1-2.8c0.7-1,1.5-1.6,2.3-1.8
				c0.8-0.2,1.7,0,2.5,0.6c0.6,0.4,1,1,1.2,1.6c0.2,0.6,0.1,1.2-0.2,1.9l-1.1-0.7c0.2-0.4,0.3-0.7,0.2-1.1s-0.3-0.7-0.7-0.9
				c-0.5-0.4-1-0.5-1.5-0.3S666.9,241.5,666.3,242.4z"/>
			<path d="M670.2,250.1c-0.6-0.5-0.9-1-0.9-1.5c0-0.5,0.2-1.1,0.6-1.6c0.5-0.6,1-0.9,1.7-0.9c0.6,0,1.4,0.3,2.3,1l1.3,1l0.3-0.3
				c0.4-0.5,0.6-0.9,0.5-1.2c0-0.4-0.3-0.7-0.7-1.1c-0.4-0.3-0.8-0.5-1.1-0.5s-0.6,0.1-0.9,0.4l-0.9-0.9c1-0.9,2.2-0.8,3.6,0.3
				c0.7,0.6,1.1,1.2,1.2,1.8c0.1,0.6-0.1,1.3-0.6,1.9l-2,2.5c-0.2,0.3-0.4,0.5-0.4,0.7c0,0.2,0,0.4,0.3,0.6c0.1,0.1,0.2,0.1,0.3,0.2
				l-0.5,0.6c-0.3-0.1-0.6-0.3-0.8-0.5c-0.4-0.3-0.5-0.6-0.5-0.9c0-0.3,0.1-0.7,0.4-1.1l0,0c-0.6,0.2-1.1,0.3-1.6,0.2
				S670.7,250.5,670.2,250.1z M671,249.6c0.3,0.3,0.7,0.5,1.1,0.5s0.8,0,1.2-0.1c0.4-0.1,0.7-0.4,0.9-0.7l0.4-0.5l-1.1-0.8
				c-0.5-0.4-0.8-0.6-1.1-0.7s-0.6-0.1-0.9,0s-0.5,0.3-0.8,0.5c-0.3,0.3-0.4,0.6-0.3,0.9C670.5,249,670.7,249.3,671,249.6z"/>
			<path d="M676.8,255.5c-0.4-0.2-0.7-0.4-1-0.7c-0.7-0.7-0.7-1.4,0-2.2l3.3-3.7l-0.6-0.6l0.6-0.7l0.7,0.6l1.4-1l0.6,0.5l-1.1,1.2
				l1,0.9l-0.6,0.7l-1-0.9l-3.1,3.5c-0.2,0.3-0.4,0.5-0.4,0.7s0.1,0.4,0.3,0.6c0.1,0.1,0.3,0.2,0.6,0.4L676.8,255.5z"/>
			<path d="M677.4,256.2l5-5.4l0.9,0.8l-5.1,5.4L677.4,256.2z M683.6,249.6l0.8-0.9l0.9,0.8l-0.8,0.9L683.6,249.6z"/>
			<path d="M686.6,260c-0.9,0.9-1.8,1.4-2.7,1.4c-0.9,0-1.7-0.3-2.4-1.1c-0.8-0.8-1.1-1.6-1-2.4c0.1-0.9,0.6-1.7,1.4-2.6
				c1.8-1.8,3.5-1.9,5.1-0.3c0.8,0.8,1.2,1.6,1.1,2.4C688.1,258.2,687.6,259.1,686.6,260z M685.7,259.1c0.7-0.7,1.1-1.3,1.3-1.9
				s-0.1-1.1-0.6-1.6c-0.5-0.5-1-0.7-1.6-0.6s-1.2,0.5-1.9,1.2c-0.7,0.7-1.1,1.3-1.2,1.9c-0.1,0.6,0.1,1.1,0.5,1.6
				c0.5,0.5,1.1,0.7,1.6,0.6C684.4,260.2,685,259.8,685.7,259.1z"/>
			<path d="M688,267.1l3.5-3.1c0.4-0.3,0.6-0.6,0.8-0.9s0.2-0.5,0.1-0.7c-0.1-0.2-0.2-0.5-0.5-0.8c-0.4-0.4-0.9-0.7-1.4-0.6
				c-0.5,0-1.1,0.3-1.6,0.7l-3.2,2.8l-0.8-0.9l4.4-3.9c0.6-0.6,1-0.9,1.2-1.1l0.8,0.9c0,0-0.1,0.1-0.1,0.1c-0.1,0.1-0.2,0.2-0.2,0.2
				c-0.1,0.1-0.3,0.3-0.5,0.5l0,0c0.6-0.1,1.1-0.1,1.5,0c0.4,0.1,0.8,0.4,1.2,0.8c0.5,0.6,0.8,1.2,0.7,1.7c-0.1,0.5-0.4,1.1-1.1,1.7
				l-3.7,3.3L688,267.1z"/>
		</g>
	</g>
</g>
</svg>
