<?xml version="1.0" standalone="no"?>
<!DOCTYPE svg PUBLIC "-//W3C//DTD SVG 20010904//EN"
 "http://www.w3.org/TR/2001/REC-SVG-20010904/DTD/svg10.dtd">
<svg version="1.0" xmlns="http://www.w3.org/2000/svg"
 width="658.000000pt" height="658.000000pt" viewBox="0 0 658.000000 658.000000"
 preserveAspectRatio="xMidYMid meet">
<metadata>
Created by potrace 1.11, written by Peter Selinger 2001-2013
</metadata>
<g transform="translate(0.000000,658.000000) scale(0.100000,-0.100000)"
fill="#000000" stroke="none">
<path d="M0 6349 l0 -130 28 20 c48 35 177 178 206 229 5 9 -4 12 -36 12 -41
-1 -45 -3 -83 -61 -22 -33 -55 -74 -72 -91 -28 -28 -33 -29 -33 -12 0 10 18
52 40 92 l39 72 -44 0 -45 0 0 -131z"/>
<path d="M332 6418 c-23 -34 -39 -64 -38 -66 2 -2 30 10 62 26 49 25 104 76
104 97 0 3 -20 5 -44 5 -42 0 -45 -2 -84 -62z"/>
<path d="M674 6451 c-107 -58 -214 -142 -234 -181 -29 -57 -25 -65 18 -33 59
47 69 50 47 17 -204 -303 -305 -461 -305 -478 0 -3 25 9 56 27 50 29 67 48
170 199 63 92 162 231 222 310 59 78 111 148 115 155 14 23 -35 14 -89 -16z"/>
<path d="M832 6413 c-126 -134 -252 -320 -252 -372 0 -12 6 -24 14 -27 44 -17
310 178 533 391 l78 74 -60 1 -61 0 -108 -115 c-114 -122 -168 -169 -186 -163
-17 5 57 111 140 201 l72 77 -54 0 c-52 0 -53 -1 -116 -67z"/>
<path d="M1335 6430 c-27 -27 -47 -52 -44 -55 6 -5 208 81 224 96 5 5 -18 9
-61 9 l-70 0 -49 -50z"/>
<path d="M1673 6440 c-53 -26 -90 -53 -112 -80 -17 -22 -28 -40 -24 -40 4 0
64 27 133 61 142 68 142 68 -35 -68 -71 -55 -179 -143 -240 -195 -131 -113
-395 -366 -395 -379 0 -13 326 210 470 321 173 134 220 168 419 302 l175 118
-156 0 -156 0 -79 -40z"/>
<path d="M2877 6460 c-495 -67 -913 -228 -1347 -521 -575 -387 -1032 -1006
-1253 -1694 -330 -1029 -125 -2148 546 -2983 527 -655 1288 -1065 2144 -1153
71 -7 210 -9 375 -6 218 4 290 9 419 30 466 77 876 240 1276 508 305 205 643
542 841 837 515 768 678 1684 456 2567 -101 403 -294 813 -532 1130 -522 699
-1250 1150 -2058 1276 -201 31 -667 36 -867 9z m578 -51 c44 -6 84 -15 89 -20
6 -5 25 -9 44 -9 26 0 33 -4 29 -14 -5 -11 6 -17 41 -21 62 -9 125 -25 119
-31 -2 -3 -38 1 -78 8 -94 16 -501 15 -664 -1 -955 -96 -1778 -588 -2300
-1375 -253 -382 -409 -795 -482 -1281 -28 -188 -25 -659 5 -854 112 -717 440
-1333 971 -1824 248 -230 557 -427 921 -587 110 -49 178 -81 155 -76 -388 100
-784 323 -1113 628 -184 171 -322 330 -454 523 -271 398 -427 785 -515 1280
-27 154 -28 173 -28 485 0 291 2 341 24 480 145 951 698 1772 1536 2275 415
250 837 390 1295 429 75 7 320 -3 405 -15z m253 -208 c1122 -174 2051 -953
2401 -2011 115 -351 158 -641 148 -1015 -8 -281 -38 -480 -112 -729 -140 -474
-372 -863 -724 -1217 -242 -242 -451 -395 -738 -542 -620 -315 -1319 -413
-2009 -282 -429 82 -881 279 -1223 533 -473 352 -833 855 -1014 1418 -241 747
-183 1527 164 2223 104 209 222 396 347 550 277 341 634 624 1017 806 336 160
632 243 1035 289 19 2 157 3 305 1 211 -2 299 -7 403 -24z m716 -98 c228 -84
531 -253 743 -416 700 -537 1146 -1375 1192 -2237 30 -575 -77 -1095 -329
-1589 -450 -882 -1278 -1478 -2275 -1636 -163 -26 -481 -31 -686 -10 -218 21
-295 36 -155 30 85 -4 97 -3 86 10 -10 13 -6 15 26 14 56 -1 344 19 524 36
589 58 1050 214 1471 495 610 409 1041 1029 1218 1750 67 273 75 355 76 695 0
277 -2 325 -23 455 -88 548 -313 1048 -659 1466 -101 123 -337 355 -463 455
-190 151 -406 284 -685 420 -209 103 -231 124 -61 62z"/>
<path d="M3171 6145 c-147 -27 -170 -58 -78 -100 28 -14 59 -25 67 -25 9 0 20
-4 25 -9 16 -14 115 -37 404 -96 367 -75 952 -214 1176 -279 169 -50 189 -41
99 43 -82 76 -198 149 -366 231 -227 110 -430 176 -683 221 -156 28 -530 36
-644 14z m862 -118 c91 -22 209 -73 215 -93 6 -22 -62 -34 -197 -34 -189 0
-307 33 -332 92 -13 32 -5 42 46 60 34 11 175 -2 268 -25z"/>
<path d="M2340 5961 c-337 -121 -635 -299 -849 -506 -117 -114 -204 -210 -171
-190 8 5 40 29 70 54 152 124 399 263 576 324 125 44 315 87 381 87 27 0 71 6
98 14 86 24 285 98 285 106 0 11 -83 20 -193 20 -112 0 -270 -21 -373 -49 -38
-11 -70 -18 -72 -16 -4 3 279 115 353 139 28 9 57 21 65 26 13 9 13 11 0 20
-25 16 -61 10 -170 -29z"/>
<path d="M3508 5851 c-61 -12 -88 -36 -88 -78 0 -29 8 -43 39 -74 50 -46 122
-74 276 -106 98 -20 141 -24 235 -21 123 4 179 22 207 64 12 19 11 25 -14 55
-57 67 -264 141 -449 159 -112 11 -153 11 -206 1z m365 -88 c37 -18 43 -37 23
-68 -52 -79 -216 -68 -216 15 0 25 37 68 63 73 32 7 98 -3 130 -20z"/>
<path d="M2995 5843 c-138 -11 -389 -74 -369 -92 5 -5 38 -16 74 -26 84 -23
157 -55 224 -100 l55 -36 91 18 90 18 -42 45 c-24 25 -64 64 -90 85 l-47 40
110 1 c95 2 112 4 124 20 8 11 15 22 15 27 0 7 -150 7 -235 0z"/>
<path d="M2384 5606 c-180 -41 -424 -195 -424 -266 0 -16 7 -20 33 -21 120 -5
323 24 437 61 82 28 188 81 229 116 42 35 39 70 -7 97 -44 26 -183 32 -268 13z
m101 -108 c33 -15 27 -30 -16 -45 -37 -13 -309 -18 -309 -5 0 11 40 34 85 48
51 16 206 18 240 2z"/>
<path d="M3100 5564 c-52 -10 -53 -12 -7 -76 24 -35 57 -87 72 -116 l29 -53
55 7 c31 3 58 8 60 11 3 2 -7 41 -22 86 -15 46 -27 86 -27 89 0 3 27 4 59 1
52 -5 60 -3 70 15 9 16 7 21 -7 27 -21 8 -247 16 -282 9z"/>
<path d="M3570 5550 c-45 -11 -80 -52 -80 -94 0 -50 37 -97 103 -130 49 -24
70 -29 140 -30 70 -1 88 3 119 22 43 27 78 71 78 100 0 86 -217 165 -360 132z
m181 -69 c21 -17 22 -21 11 -60 -15 -48 -51 -76 -87 -67 -31 8 -41 43 -25 90
18 56 59 71 101 37z"/>
<path d="M1900 5514 c-196 -53 -496 -263 -677 -472 -166 -193 -306 -472 -237
-472 9 0 109 91 223 203 135 134 276 259 411 367 241 193 394 338 388 366 -4
25 -38 27 -108 8z m-150 -182 c0 -14 -52 -57 -165 -137 -117 -83 -224 -168
-342 -273 -142 -126 -52 11 102 155 96 90 244 195 335 237 59 28 70 30 70 18z"/>
<path d="M4694 5487 c22 -17 73 -60 114 -93 43 -36 129 -91 205 -130 178 -93
278 -166 428 -314 123 -121 128 -127 139 -181 7 -38 28 -84 64 -140 29 -46 68
-112 87 -147 18 -34 38 -61 43 -59 21 7 27 68 12 127 -19 72 -92 231 -137 297
-44 65 -246 271 -339 346 -103 83 -239 171 -337 218 -79 38 -227 90 -288 103
l-30 6 39 -33z"/>
<path d="M4393 5500 c-64 -9 -193 -48 -193 -58 0 -4 32 -27 72 -51 l72 -43
109 11 c60 7 135 9 168 5 56 -6 62 -10 101 -56 38 -46 152 -117 165 -104 10 9
-86 134 -139 181 -29 25 -79 64 -112 86 -54 36 -63 39 -125 38 -36 -1 -89 -5
-118 -9z"/>
<path d="M2725 5456 c-104 -33 -174 -90 -155 -126 26 -49 148 -100 240 -100
109 0 210 56 210 117 0 36 -61 99 -111 113 -46 13 -135 11 -184 -4z m98 -67
c39 -20 67 -52 67 -76 0 -34 -51 -31 -117 9 -78 47 -83 78 -12 78 22 0 50 -5
62 -11z"/>
<path d="M4109 5359 c-24 -17 -70 -57 -102 -87 l-57 -57 52 -26 51 -26 48 36
c26 20 68 47 94 61 l45 25 23 -27 c12 -14 32 -31 44 -37 26 -13 73 -15 73 -3
0 17 -126 129 -167 151 -23 11 -46 21 -51 21 -5 0 -29 -14 -53 -31z"/>
<path d="M3230 5283 c-64 -23 -78 -95 -35 -170 32 -53 69 -73 136 -73 45 0 55
4 85 34 30 30 34 40 34 88 0 62 -15 89 -64 112 -33 15 -124 21 -156 9z m95
-57 c13 -9 20 -30 23 -69 4 -48 2 -58 -13 -64 -38 -14 -84 98 -55 132 15 18
21 19 45 1z"/>
<path d="M2400 5246 c-36 -19 -85 -52 -110 -74 l-45 -40 50 -6 c42 -5 197 -40
270 -60 13 -4 32 4 55 23 l35 30 -56 25 c-32 14 -83 32 -115 42 l-58 17 40 20
c52 26 52 26 30 43 -25 18 -20 19 -96 -20z"/>
<path d="M3566 5248 c-35 -202 -34 -214 6 -222 17 -3 36 -2 40 2 5 5 18 44 30
88 11 43 22 81 24 82 1 2 17 -4 34 -14 31 -19 59 -13 67 13 5 14 -109 70 -159
79 -36 6 -37 5 -42 -28z"/>
<path d="M2990 5220 c-36 -3 -75 -12 -87 -19 -22 -11 -22 -13 56 -114 64 -84
82 -102 102 -99 44 5 45 19 2 102 -22 43 -38 82 -35 85 3 3 18 5 34 5 23 0 28
4 28 25 0 18 -5 25 -17 24 -10 -1 -47 -5 -83 -9z"/>
<path d="M1790 5134 c-81 -79 -155 -184 -130 -184 6 0 41 15 78 34 93 47 225
92 323 111 85 16 109 30 149 86 l19 25 -77 -9 c-68 -8 -223 -43 -277 -62 -11
-4 3 13 30 38 l50 46 -39 1 c-35 0 -46 -7 -126 -86z"/>
<path d="M4668 5179 c-14 -6 -29 -17 -32 -26 -9 -23 34 -90 101 -155 75 -74
113 -101 254 -182 229 -131 282 -124 207 25 -41 79 -168 211 -256 263 -105 63
-221 95 -274 75z m229 -147 c94 -35 211 -127 191 -148 -7 -6 -138 46 -221 87
-64 32 -97 56 -97 71 0 14 78 9 127 -10z"/>
<path d="M3843 5165 c-35 -15 -68 -61 -78 -107 -14 -62 54 -128 132 -128 51 0
87 17 124 57 70 75 56 124 -51 172 -53 24 -83 25 -127 6z m125 -75 c4 -25 -66
-100 -94 -100 -37 0 -29 45 19 98 24 26 70 27 75 2z"/>
<path d="M4312 5131 c-75 -35 -75 -87 0 -158 58 -56 110 -73 224 -73 84 0 106
3 124 18 32 26 21 61 -35 121 -92 98 -220 135 -313 92z m207 -80 c13 -3 29
-14 35 -24 17 -28 -9 -37 -107 -37 -85 0 -88 1 -85 22 5 36 92 57 157 39z"/>
<path d="M2715 5099 c-39 -11 -95 -65 -95 -92 0 -24 64 -87 112 -110 88 -42
188 -4 188 70 0 47 -40 99 -94 124 -45 20 -65 22 -111 8z m84 -85 c40 -33 56
-63 43 -76 -6 -6 -18 -7 -28 -4 -25 8 -104 80 -104 95 0 21 58 11 89 -15z"/>
<path d="M980 5004 c-324 -410 -515 -858 -586 -1380 -19 -144 -22 -512 -4
-659 37 -316 119 -596 260 -895 34 -70 65 -152 71 -185 17 -98 109 -246 275
-445 159 -191 365 -389 236 -226 -34 42 -87 120 -119 174 -31 53 -78 133 -104
177 -26 44 -75 134 -110 200 -34 66 -87 162 -116 213 -154 263 -257 552 -313
877 -27 154 -38 537 -21 700 41 384 171 770 371 1105 33 55 81 142 106 192 25
51 66 125 91 166 25 40 43 75 41 77 -2 2 -37 -39 -78 -91z"/>
<path d="M2233 5026 c-83 -26 -143 -78 -158 -137 -14 -56 79 -82 213 -59 82
14 141 50 162 99 12 29 11 35 -7 59 -36 48 -125 64 -210 38z m130 -88 c38 -20
-6 -38 -93 -38 -77 0 -128 18 -101 35 43 26 148 28 194 3z"/>
<path d="M4119 4948 c-45 -35 -90 -69 -101 -77 -24 -18 -23 -23 13 -50 31 -23
31 -23 52 -3 12 11 48 36 79 56 l57 36 17 -25 c11 -17 25 -25 45 -25 16 0 29
2 29 5 0 21 -55 107 -79 124 l-29 21 -83 -62z"/>
<path d="M3301 4973 c0 -16 6 -71 12 -123 12 -92 13 -95 40 -98 l27 -3 0 95
c0 53 3 96 8 96 4 0 14 -4 22 -10 15 -9 30 4 30 28 0 17 -61 42 -105 42 -32 0
-35 -3 -34 -27z"/>
<path d="M3533 4980 c-77 -32 -82 -212 -6 -241 15 -5 37 -8 50 -4 49 12 104
129 89 188 -11 46 -85 78 -133 57z m60 -98 c-2 -47 -29 -106 -45 -96 -14 9 -5
108 12 129 21 25 35 11 33 -33z"/>
<path d="M1854 4956 c-154 -57 -300 -209 -292 -303 4 -54 24 -53 146 6 156 77
242 141 295 221 22 32 22 86 1 94 -30 12 -90 5 -150 -18z m53 -104 c-22 -24
-232 -125 -249 -120 -18 6 34 57 94 92 101 59 199 77 155 28z"/>
<path d="M1505 4914 c-89 -70 -261 -240 -327 -324 -72 -91 -72 -91 -48 -30 12
30 24 62 27 70 2 8 -21 -12 -51 -45 -48 -52 -60 -73 -85 -150 -16 -49 -32
-107 -36 -127 -8 -40 1 -108 13 -108 4 0 29 40 55 88 88 160 173 269 343 437
118 117 164 170 173 198 7 21 11 40 9 42 -1 2 -34 -21 -73 -51z"/>
<path d="M3082 4952 c-10 -7 -3 -34 31 -121 24 -62 48 -112 53 -112 42 0 43 6
25 77 -10 38 -21 79 -25 92 -7 21 -5 23 16 20 19 -2 23 2 23 22 0 23 -4 25
-55 28 -30 1 -61 -2 -68 -6z"/>
<path d="M2510 4911 c-30 -21 -55 -46 -55 -55 0 -11 19 -25 56 -40 32 -13 83
-38 115 -56 l58 -32 18 22 c23 29 16 39 -75 92 l-69 41 27 14 c26 14 26 15 9
34 -9 10 -20 19 -23 19 -3 0 -31 -18 -61 -39z"/>
<path d="M3736 4848 c-56 -123 -63 -148 -46 -158 29 -19 40 -9 81 71 38 76 41
80 58 65 22 -20 35 -20 50 -2 9 10 2 22 -34 55 -24 22 -52 41 -60 41 -10 0
-28 -27 -49 -72z"/>
<path d="M5240 4887 c0 -39 84 -199 213 -406 133 -212 188 -307 290 -501 36
-69 76 -136 88 -149 22 -23 23 -23 37 -5 35 47 -13 293 -91 472 -106 240 -294
487 -443 582 -59 37 -94 40 -94 7z m246 -270 c83 -88 157 -194 214 -305 44
-89 83 -192 75 -200 -7 -7 -2 -13 -75 108 -56 94 -92 147 -257 388 -74 108
-54 112 43 9z"/>
<path d="M2908 4869 c-16 -6 -28 -15 -28 -21 0 -5 30 -54 66 -109 59 -88 68
-98 85 -88 24 12 20 29 -27 110 -19 31 -34 59 -34 62 0 3 9 7 21 10 13 4 20
12 17 24 -4 21 -58 28 -100 12z"/>
<path d="M3913 4791 c-38 -24 -78 -83 -88 -128 -5 -26 -1 -37 22 -63 25 -28
34 -31 60 -26 57 13 143 103 143 150 0 23 -51 74 -80 81 -16 3 -37 -2 -57 -14z
m66 -73 c-17 -34 -71 -88 -87 -88 -18 0 -7 35 25 78 16 21 32 32 49 32 22 0
24 -2 13 -22z"/>
<path d="M4241 4792 c-19 -9 -44 -29 -55 -44 -16 -23 -18 -34 -10 -64 13 -54
52 -79 122 -78 143 2 209 74 138 152 -48 53 -130 68 -195 34z m144 -72 c0 -20
-52 -44 -100 -44 -53 -1 -57 14 -9 42 44 25 109 27 109 2z"/>
<path d="M4493 4804 c-28 -6 -28 -8 -3 -49 l20 -32 107 -6 c131 -6 143 -10
143 -48 0 -22 7 -32 30 -44 17 -9 35 -13 40 -10 15 9 12 75 -6 122 -15 38 -20
43 -66 52 -56 13 -232 22 -265 15z"/>
<path d="M2025 4718 c-19 -29 -35 -63 -35 -76 0 -21 3 -23 28 -17 52 13 147
25 209 25 65 0 83 12 83 55 0 15 -13 16 -114 13 l-115 -3 20 21 c26 28 24 34
-11 34 -24 0 -35 -9 -65 -52z"/>
<path d="M2762 4744 l-44 -26 83 -87 c46 -47 85 -88 86 -90 5 -7 33 21 33 33
0 6 -25 40 -56 75 -53 61 -55 65 -35 73 24 8 26 19 9 36 -17 17 -27 15 -76
-14z"/>
<path d="M4880 4764 c0 -3 9 -26 20 -52 18 -41 29 -51 88 -82 37 -19 109 -66
160 -104 91 -68 92 -70 77 -93 -15 -23 -14 -26 22 -73 21 -27 40 -49 43 -50 3
0 14 14 24 31 15 25 17 44 13 88 -5 49 -11 60 -44 89 -89 79 -204 157 -295
203 -99 50 -108 53 -108 43z"/>
<path d="M2386 4729 c-39 -31 -50 -66 -31 -95 22 -33 88 -65 150 -71 48 -5 56
-3 79 20 67 67 -9 167 -127 167 -30 0 -53 -7 -71 -21z m124 -61 c81 -42 57
-63 -37 -32 -55 18 -68 28 -59 43 11 17 48 13 96 -11z"/>
<path d="M3323 4629 c4 -46 7 -103 7 -127 0 -39 2 -43 22 -40 20 3 22 8 19 59
-3 75 7 129 24 123 18 -7 28 27 12 43 -7 8 -31 16 -52 20 l-38 6 6 -84z"/>
<path d="M3485 4688 c-5 -18 -25 -176 -25 -205 0 -16 6 -23 19 -23 16 0 21 13
31 80 12 78 22 101 35 80 10 -16 25 -1 25 25 0 39 -74 76 -85 43z"/>
<path d="M3183 4678 c-13 -6 -25 -20 -29 -30 -14 -46 23 -177 59 -206 23 -19
53 0 67 44 21 63 -6 171 -49 194 -23 12 -20 12 -48 -2z m47 -89 c6 -22 10 -55
8 -72 -3 -32 -3 -32 -16 -9 -18 31 -28 122 -14 122 6 0 16 -18 22 -41z"/>
<path d="M3636 4628 c-25 -59 -64 -197 -58 -202 17 -17 33 2 62 74 27 68 35
79 47 68 11 -9 16 -9 24 3 14 22 11 34 -16 63 -32 34 -43 33 -59 -6z"/>
<path d="M4100 4639 c-159 -129 -167 -138 -138 -167 8 -8 22 -2 57 27 59 49
101 76 101 65 1 -40 50 -38 50 2 0 29 -26 94 -37 94 -4 -1 -19 -10 -33 -21z"/>
<path d="M1390 4616 c-95 -69 -196 -201 -262 -344 -87 -184 -69 -340 27 -238
37 40 210 293 273 401 100 173 80 268 -38 181z m10 -110 c0 -7 -45 -78 -101
-157 -147 -210 -187 -244 -113 -96 43 84 120 193 170 236 39 35 44 37 44 17z"/>
<path d="M1852 4625 c-29 -13 -84 -45 -123 -70 l-71 -46 7 31 c7 33 0 36 -38
19 -18 -8 -29 -26 -41 -70 -16 -60 -21 -129 -9 -129 4 0 27 18 53 39 55 47
166 119 236 154 45 23 52 30 56 62 5 42 0 43 -70 10z"/>
<path d="M2657 4610 c-37 -30 -36 -69 5 -115 36 -42 100 -78 131 -73 12 2 28
15 35 30 11 24 10 34 -6 72 -21 46 -70 90 -112 101 -18 4 -34 0 -53 -15z m91
-76 c40 -33 55 -64 32 -64 -13 0 -100 79 -100 91 0 19 28 8 68 -27z"/>
<path d="M3038 4610 c-15 -9 -12 -21 28 -117 25 -59 47 -109 50 -112 2 -3 10
1 16 7 11 11 -5 80 -39 170 -3 6 2 12 12 12 11 0 15 7 13 23 -2 16 -10 23 -33
24 -16 2 -38 -2 -47 -7z"/>
<path d="M4605 4580 c-14 -15 -16 -30 -12 -62 7 -55 60 -106 143 -138 134 -51
194 -34 175 50 -21 93 -125 170 -231 170 -44 0 -61 -4 -75 -20z m151 -75 c54
-16 101 -52 87 -66 -11 -11 -132 22 -168 45 -52 34 -5 47 81 21z"/>
<path d="M3782 4568 c-28 -36 -103 -190 -98 -203 10 -27 23 -16 65 55 41 68
55 82 63 59 3 -8 10 -6 21 5 13 13 14 22 6 44 -19 49 -38 63 -57 40z"/>
<path d="M4480 4564 c-62 -9 -188 -37 -199 -43 -8 -6 -9 -15 -2 -34 12 -32 7
-31 96 -12 101 21 113 20 108 -9 -4 -18 0 -26 17 -31 28 -9 39 3 47 48 5 35
-16 89 -35 86 -4 -1 -18 -3 -32 -5z"/>
<path d="M2321 4526 c-39 -62 -32 -70 72 -90 50 -10 105 -20 120 -23 27 -5 28
-3 25 23 -3 27 -9 30 -73 48 -38 10 -76 20 -84 22 -10 3 -11 7 -1 19 6 8 9 19
5 25 -13 21 -44 9 -64 -24z"/>
<path d="M2016 4533 c-14 -14 -36 -75 -36 -99 0 -30 12 -37 47 -23 15 6 73 19
128 28 l100 18 3 30 c3 31 3 31 -40 26 -24 -2 -67 -9 -97 -14 -73 -12 -73 -12
-61 10 5 11 10 22 10 25 0 9 -45 7 -54 -1z"/>
<path d="M2934 4525 c-27 -19 -21 -76 14 -137 57 -102 112 -113 112 -22 0 97
-77 195 -126 159z m82 -121 c9 -25 14 -47 11 -50 -9 -9 -67 87 -67 110 0 18 1
18 20 1 10 -9 27 -37 36 -61z"/>
<path d="M4122 4479 c-97 -48 -125 -169 -39 -169 71 0 177 73 177 122 0 26
-44 68 -72 68 -13 0 -42 -10 -66 -21z m78 -52 c0 -14 -57 -49 -97 -62 -39 -11
-27 18 19 48 45 29 78 35 78 14z"/>
<path d="M2612 4473 c-15 -6 -45 -61 -38 -71 7 -12 173 -112 185 -112 34 0
-13 59 -87 109 -23 16 -31 28 -27 41 6 20 -14 40 -33 33z"/>
<path d="M3846 4449 c-30 -23 -70 -90 -80 -132 -8 -32 8 -67 30 -67 19 0 112
86 130 122 40 77 -14 129 -80 77z m43 -51 c-19 -36 -61 -88 -70 -88 -19 0 -8
28 27 68 38 45 62 56 43 20z"/>
<path d="M1800 4439 c-54 -24 -125 -90 -151 -141 -39 -75 -13 -149 47 -134 41
11 126 70 177 124 51 55 65 98 45 139 -17 36 -57 40 -118 12z m60 -73 c0 -19
-141 -126 -165 -126 -24 0 31 70 89 111 42 31 76 38 76 15z"/>
<path d="M4978 4434 c-15 -32 1 -97 38 -156 36 -57 186 -211 228 -233 34 -19
35 -19 57 0 49 45 1 188 -99 297 -103 111 -198 150 -224 92z m112 -90 c45 -30
102 -88 131 -133 57 -88 31 -82 -72 16 -83 79 -122 133 -96 133 7 0 24 -7 37
-16z"/>
<path d="M2862 4414 c-12 -8 -22 -22 -22 -30 0 -15 120 -182 133 -183 20 -2 3
52 -33 102 -30 42 -39 62 -35 80 9 34 -15 51 -43 31z"/>
<path d="M3322 4280 c4 -146 21 -165 28 -30 3 58 9 93 15 91 15 -7 18 28 5 44
-7 8 -21 15 -32 15 -17 0 -18 -8 -16 -120z"/>
<path d="M3408 4378 c-6 -13 -14 -62 -16 -109 -4 -72 -1 -88 13 -103 15 -14
20 -15 31 -4 30 31 55 177 38 222 -9 24 -51 20 -66 -6z m36 -85 c-7 -65 -23
-106 -24 -62 0 47 13 119 21 119 5 0 6 -26 3 -57z"/>
<path d="M4398 4388 c-66 -17 -97 -82 -61 -127 40 -50 201 -48 235 3 16 23 8
73 -14 94 -44 40 -89 49 -160 30z m111 -67 c27 -17 -1 -31 -64 -31 -66 0 -88
11 -58 29 22 13 103 14 122 2z"/>
<path d="M5400 4354 c0 -45 6 -61 51 -130 92 -141 191 -342 214 -436 6 -24 4
-28 -14 -28 -12 0 -21 -1 -21 -2 0 -2 6 -37 14 -78 12 -61 20 -79 43 -97 34
-28 50 -26 74 7 19 25 19 27 -6 117 -66 247 -194 507 -329 668 l-25 30 -1 -51z"/>
<path d="M2314 4345 c-25 -62 -16 -71 89 -83 50 -6 99 -12 107 -14 10 -2 14 3
12 17 -5 30 -13 35 -88 49 -54 10 -68 16 -66 29 1 9 -7 21 -18 27 -18 10 -22
7 -36 -25z"/>
<path d="M3210 4354 c-12 -32 -12 -67 0 -124 22 -97 46 -124 71 -78 18 34 7
183 -16 208 -25 27 -44 25 -55 -6z m44 -65 c3 -17 6 -48 5 -68 0 -48 -14 -16
-21 52 -6 52 6 65 16 16z"/>
<path d="M3504 4265 c-19 -81 -24 -119 -17 -126 8 -8 16 7 28 48 26 95 32 108
43 106 6 -2 16 6 21 16 8 14 6 25 -10 45 -11 14 -24 26 -29 26 -5 0 -21 -52
-36 -115z"/>
<path d="M1463 4306 c-37 -41 -113 -151 -171 -246 l-22 -35 0 33 c0 42 -12 41
-38 -7 -35 -61 -24 -168 18 -191 15 -8 21 -2 40 45 33 81 115 220 181 307 58
76 59 79 46 109 l-13 32 -41 -47z"/>
<path d="M3910 4284 c-80 -75 -97 -101 -82 -116 7 -7 30 8 71 47 40 38 61 52
61 42 0 -20 11 -22 28 -5 14 14 16 84 2 93 -5 3 -41 -25 -80 -61z"/>
<path d="M746 4307 c-93 -122 -201 -457 -237 -737 -19 -142 -16 -461 5 -600
36 -244 109 -471 175 -550 17 -21 22 -23 31 -10 15 23 12 124 -10 292 -30 238
-40 377 -40 583 0 239 18 394 80 707 52 257 61 348 36 348 -8 0 -26 -15 -40
-33z m-106 -573 l-32 -208 6 -305 c4 -168 9 -335 11 -371 6 -83 -7 -55 -36 78
-30 137 -38 477 -15 648 21 159 78 385 93 370 3 -2 -10 -98 -27 -212z"/>
<path d="M2030 4321 c-12 -23 -13 -81 -2 -98 6 -9 27 -6 87 12 44 13 97 27
118 30 32 5 38 10 35 28 -4 29 -44 33 -127 14 l-61 -14 0 23 c0 30 -34 33 -50
5z"/>
<path d="M4626 4333 c-3 -4 -6 -19 -6 -34 0 -25 6 -29 68 -50 37 -12 84 -30
105 -41 36 -18 38 -21 23 -37 -15 -16 -15 -19 5 -36 26 -24 47 -13 73 39 17
35 17 38 1 56 -28 31 -254 117 -269 103z"/>
<path d="M3600 4298 c-44 -71 -67 -208 -36 -208 33 0 106 134 106 193 0 53
-42 61 -70 15z m9 -104 c-12 -27 -23 -44 -26 -37 -2 6 6 35 19 65 12 29 24 46
26 37 1 -8 -7 -38 -19 -65z"/>
<path d="M2578 4309 c-23 -13 -23 -57 -2 -88 24 -33 103 -81 136 -81 21 0 29
6 34 24 11 46 -40 112 -108 141 -43 18 -38 17 -60 4z m100 -85 c33 -32 35 -35
12 -28 -33 9 -90 43 -90 55 0 21 43 6 78 -27z"/>
<path d="M3125 4310 c-3 -5 0 -34 9 -63 8 -28 22 -78 31 -110 9 -31 21 -55 26
-51 10 6 5 46 -16 132 -8 31 -9 52 -3 52 5 0 8 10 6 23 -3 24 -41 36 -53 17z"/>
<path d="M4214 4295 c-101 -38 -144 -63 -144 -85 0 -22 12 -25 39 -10 10 5 42
18 71 30 l53 21 -6 -21 c-6 -24 24 -28 42 -6 15 18 26 82 15 89 -5 3 -36 -5
-70 -18z"/>
<path d="M5980 4279 c6 -19 20 -92 31 -164 11 -71 33 -184 49 -250 128 -522
101 -1037 -81 -1539 -38 -103 -197 -441 -205 -433 -2 2 17 54 41 117 25 62 45
118 45 124 0 6 -24 -30 -53 -80 -30 -50 -68 -111 -85 -136 -18 -26 -59 -97
-93 -160 -92 -171 -285 -446 -411 -583 -136 -149 30 -14 219 178 212 215 342
395 472 656 137 273 213 514 268 846 14 87 18 168 18 385 -1 242 -3 291 -24
410 -31 183 -80 370 -136 520 -44 118 -76 184 -55 109z"/>
<path d="M2797 4293 c-27 -26 25 -130 89 -179 39 -30 54 -25 54 18 0 80 -106
199 -143 161z m87 -94 c27 -32 33 -49 17 -49 -9 0 -57 57 -76 88 -14 25 30 -5
59 -39z"/>
<path d="M3048 4235 c-19 -43 60 -230 91 -211 27 17 0 159 -40 210 -26 32 -36
33 -51 1z m56 -78 c19 -46 29 -94 18 -82 -15 15 -54 127 -42 120 6 -4 16 -21
24 -38z"/>
<path d="M3702 4238 c-5 -7 -31 -53 -57 -101 -58 -108 -49 -140 12 -40 26 45
46 67 56 65 19 -3 32 36 22 67 -7 24 -18 27 -33 9z"/>
<path d="M1904 4191 c-32 -22 -70 -49 -84 -60 -25 -21 -45 -28 -36 -13 2 4 1
13 -3 20 -5 9 -13 8 -30 -5 -20 -13 -22 -22 -18 -55 3 -22 13 -48 22 -58 17
-18 20 -17 89 43 39 34 88 73 109 86 30 19 36 27 31 45 -11 37 -19 37 -80 -3z"/>
<path d="M3949 4190 c-69 -46 -122 -142 -86 -156 37 -14 177 93 177 135 0 58
-26 65 -91 21z m51 -29 c0 -12 -99 -85 -106 -78 -10 9 4 24 53 56 51 34 53 35
53 22z"/>
<path d="M2344 4176 c-10 -42 10 -63 68 -71 29 -3 72 -9 96 -12 33 -4 42 -2
42 10 0 28 -16 34 -121 52 -25 4 -38 12 -42 25 -7 28 -35 25 -43 -4z"/>
<path d="M4966 4183 c-3 -3 -6 -19 -6 -35 0 -20 10 -38 37 -61 20 -18 63 -63
96 -101 57 -66 59 -70 38 -78 -18 -6 -21 -13 -15 -30 3 -13 11 -29 16 -35 23
-29 90 -4 101 37 6 25 -49 102 -153 213 -74 79 -102 101 -114 90z"/>
<path d="M1525 4151 c-59 -36 -112 -114 -145 -210 -36 -108 -21 -181 37 -181
33 0 100 84 151 189 51 106 60 165 28 200 -23 26 -33 26 -71 2z m-19 -184
c-50 -89 -69 -117 -81 -117 -26 0 39 147 88 198 49 51 46 16 -7 -81z"/>
<path d="M2580 4144 c-8 -20 -7 -32 2 -46 14 -20 157 -90 170 -82 16 10 -6 34
-63 64 -35 19 -64 41 -69 55 -13 35 -29 39 -40 9z"/>
<path d="M2777 4163 c-26 -25 19 -105 92 -162 31 -25 45 -31 53 -23 20 20 -10
90 -61 143 -44 46 -69 58 -84 42z m78 -83 c40 -41 44 -61 7 -35 -25 18 -67 75
-55 75 5 0 26 -18 48 -40z"/>
<path d="M4165 4155 c-87 -31 -129 -126 -58 -133 83 -8 173 45 173 103 0 48
-37 57 -115 30z m73 -47 c-5 -14 -63 -36 -97 -37 -20 -1 -21 1 -11 14 22 26
115 46 108 23z"/>
<path d="M4333 4159 c-7 -7 -13 -21 -13 -31 0 -16 10 -18 81 -18 81 0 81 0 75
-24 -8 -31 20 -43 45 -21 24 22 44 74 33 85 -5 4 -54 11 -109 15 -75 5 -103 3
-112 -6z"/>
<path d="M2095 4140 c-8 -26 13 -90 29 -90 7 0 37 8 67 19 30 10 71 21 92 25
39 7 47 25 21 47 -13 10 -27 10 -75 0 -33 -6 -66 -14 -73 -17 -8 -3 -16 4 -19
15 -7 27 -34 27 -42 1z"/>
<path d="M2994 4147 c-2 -7 19 -58 48 -112 61 -115 80 -107 25 10 -24 49 -32
75 -24 78 9 3 8 8 -2 20 -16 20 -40 22 -47 4z"/>
<path d="M3723 4127 c-32 -36 -68 -104 -78 -149 -16 -66 65 -6 122 89 45 77
12 123 -44 60z m-4 -81 c-35 -50 -60 -64 -32 -18 22 36 55 73 61 68 2 -3 -11
-25 -29 -50z"/>
<path d="M4606 4128 c-24 -34 -20 -85 8 -113 35 -35 120 -75 160 -75 66 0 88
75 40 138 -51 67 -176 97 -208 50z m112 -57 c46 -23 77 -56 63 -66 -21 -12
-141 52 -141 77 0 14 39 9 78 -11z"/>
<path d="M3394 4095 c-23 -35 -34 -230 -13 -223 21 7 41 74 46 159 6 85 -5
106 -33 64z m11 -100 c-3 -31 -9 -54 -12 -51 -3 3 -2 30 2 61 3 31 9 54 12 51
3 -3 2 -30 -2 -61z"/>
<path d="M3331 3988 l2 -123 11 90 c7 50 16 98 20 108 8 17 -8 47 -25 47 -5 0
-8 -55 -8 -122z"/>
<path d="M3260 4080 c-21 -40 7 -257 31 -233 13 13 23 124 15 176 -4 24 -13
52 -20 62 -13 18 -14 17 -26 -5z m29 -125 l-1 -50 -9 40 c-4 22 -8 51 -8 65
-1 20 1 22 9 10 5 -8 9 -37 9 -65z"/>
<path d="M3466 4073 c-10 -25 -46 -190 -46 -210 0 -31 12 -5 32 73 10 43 27
83 35 89 11 8 14 20 9 38 -7 31 -21 35 -30 10z"/>
<path d="M2964 4057 c-9 -24 12 -78 56 -145 52 -82 64 -87 58 -28 -10 87 -96
218 -114 173z m72 -110 c13 -29 18 -43 9 -32 -24 29 -58 98 -46 90 6 -3 23
-30 37 -58z"/>
<path d="M3937 4019 c-53 -35 -77 -56 -77 -70 0 -19 3 -18 43 9 67 46 88 56
81 37 -4 -8 -2 -15 3 -15 16 0 41 33 48 63 10 40 -8 35 -98 -24z"/>
<path d="M1976 4009 c-60 -45 -69 -49 -80 -34 -13 19 -46 11 -46 -12 0 -18 25
-66 42 -80 10 -9 27 1 74 40 34 29 74 61 89 72 25 18 27 23 16 43 -6 12 -15
22 -20 22 -4 0 -38 -23 -75 -51z"/>
<path d="M3517 4039 c-36 -57 -71 -219 -48 -219 13 0 66 111 81 169 10 36 9
46 -3 59 -13 13 -17 12 -30 -9z m-12 -114 c-22 -60 -30 -53 -9 9 9 26 19 45
22 42 2 -3 -3 -26 -13 -51z"/>
<path d="M2410 4021 c0 -52 25 -69 113 -74 56 -3 77 -1 77 8 0 23 -29 37 -90
42 -40 4 -60 10 -60 19 0 7 -9 18 -20 24 -18 10 -20 8 -20 -19z"/>
<path d="M3201 4033 c1 -40 35 -212 43 -220 5 -4 5 23 0 62 -5 39 -9 92 -9
120 0 39 -4 50 -17 53 -12 2 -18 -3 -17 -15z"/>
<path d="M3748 3998 c-96 -114 -120 -172 -33 -79 26 28 51 48 55 46 15 -9 40
26 40 56 0 16 -4 29 -9 29 -5 0 -28 -24 -53 -52z"/>
<path d="M5369 4033 c-24 -29 -14 -136 26 -266 55 -181 107 -315 135 -349 23
-27 29 -29 47 -19 97 51 11 475 -124 614 -38 40 -63 46 -84 20z m130 -243 c52
-135 76 -250 52 -250 -10 0 -25 37 -90 226 -22 67 -41 130 -41 140 1 36 46
-30 79 -116z"/>
<path d="M2228 4025 c-55 -31 -57 -74 -6 -109 34 -24 119 -21 152 5 33 26 33
41 -2 80 -34 38 -100 49 -144 24z m117 -45 c7 -12 -53 -40 -85 -40 -27 0 -26
24 3 38 29 14 74 15 82 2z"/>
<path d="M4335 4026 c-66 -29 -85 -88 -35 -113 14 -7 51 -13 82 -13 49 0 62 4
89 28 26 23 31 33 25 55 -12 50 -95 72 -161 43z m99 -52 c32 -12 15 -24 -33
-24 -54 0 -81 7 -81 21 0 10 90 12 114 3z"/>
<path d="M2780 4015 c0 -30 29 -72 81 -119 28 -25 55 -46 59 -46 37 0 -1 91
-61 144 -41 38 -79 47 -79 21z m90 -70 c18 -19 31 -37 29 -40 -3 -2 -23 13
-44 35 -22 22 -35 40 -29 40 6 0 25 -16 44 -35z"/>
<path d="M833 3898 c-64 -226 -87 -403 -81 -640 l3 -147 -22 27 -22 27 0 -55
c0 -30 4 -89 9 -130 8 -63 14 -78 37 -97 37 -30 50 -29 72 7 17 29 17 35 3
108 -11 54 -15 145 -15 307 -1 253 9 339 64 544 28 105 29 115 14 137 -8 13
-19 24 -23 24 -4 0 -22 -51 -39 -112z"/>
<path d="M2615 4000 c-18 -30 58 -105 133 -131 45 -16 56 -2 33 41 -35 68
-144 126 -166 90z m106 -57 c26 -15 38 -33 24 -33 -10 0 -85 40 -85 45 0 11
34 4 61 -12z"/>
<path d="M3155 3990 c-15 -24 35 -230 55 -230 14 0 12 65 -5 145 -15 71 -36
107 -50 85z m39 -120 c4 -24 3 -29 -3 -15 -4 11 -11 36 -15 55 -4 24 -3 29 3
15 4 -11 11 -36 15 -55z"/>
<path d="M3557 3948 c-66 -140 -88 -230 -26 -107 17 35 37 67 44 72 18 10 30
66 17 79 -6 6 -18 -9 -35 -44z"/>
<path d="M1656 3923 c-24 -38 -51 -83 -60 -100 -17 -35 -31 -41 -40 -20 -3 8
-11 5 -25 -12 -12 -13 -21 -27 -21 -32 0 -15 62 -79 76 -79 8 0 27 28 43 63
15 34 47 92 70 130 44 72 48 86 29 105 -20 20 -27 15 -72 -55z"/>
<path d="M4140 3979 c-60 -17 -88 -30 -95 -46 -8 -23 -4 -24 55 -8 70 19 81
19 74 0 -11 -28 25 -15 50 18 15 19 26 37 26 40 0 10 -69 7 -110 -4z"/>
<path d="M4895 3965 c-40 -39 -35 -98 16 -173 44 -68 106 -122 137 -122 28 0
62 46 62 84 -1 69 -75 183 -141 216 -48 25 -45 25 -74 -5z m89 -95 c41 -45 73
-106 63 -117 -14 -14 -127 118 -127 149 0 20 31 4 64 -32z"/>
<path d="M4530 3950 c-16 -29 -12 -37 23 -49 17 -7 50 -23 71 -38 37 -24 38
-27 21 -39 -14 -11 -16 -16 -6 -28 15 -18 53 -6 88 26 29 27 21 37 -66 86
-107 60 -119 64 -131 42z"/>
<path d="M2960 3930 c0 -11 23 -54 52 -95 55 -80 88 -104 44 -32 -15 23 -38
66 -52 95 -26 54 -44 67 -44 32z"/>
<path d="M3756 3920 c-43 -38 -99 -124 -94 -146 2 -13 15 -7 60 29 57 47 98
101 98 131 0 25 -26 19 -64 -14z m15 -38 c-6 -11 -27 -32 -48 -47 l-38 -28 45
46 c48 51 56 56 41 29z"/>
<path d="M3914 3916 c-72 -49 -111 -116 -66 -116 32 0 137 66 155 98 36 61
-11 70 -89 18z m56 -21 c0 -2 -22 -16 -50 -30 -58 -29 -68 -19 -12 13 35 20
62 28 62 17z"/>
<path d="M3586 3897 c-31 -41 -76 -140 -76 -169 0 -31 23 -7 70 71 62 104 66
177 6 98z m-13 -76 c-15 -28 -29 -48 -31 -46 -5 5 47 95 54 95 3 0 -7 -22 -23
-49z"/>
<path d="M2100 3876 c-50 -40 -57 -43 -72 -29 -18 16 -38 10 -38 -12 0 -8 13
-29 28 -47 l29 -31 61 51 c34 28 69 55 79 61 17 9 17 10 -1 30 -11 12 -22 21
-25 21 -3 0 -31 -20 -61 -44z"/>
<path d="M3118 3914 c-6 -6 53 -181 72 -213 16 -27 11 3 -11 65 -11 32 -24 79
-27 103 -7 41 -20 59 -34 45z"/>
<path d="M2500 3895 c-10 -12 -9 -20 4 -40 23 -34 55 -54 107 -63 76 -14 88 3
42 59 -44 52 -126 76 -153 44z m120 -45 c8 -5 11 -12 8 -15 -9 -10 -88 5 -88
16 0 12 61 11 80 -1z"/>
<path d="M2810 3889 c0 -6 4 -19 10 -29 12 -23 140 -123 148 -116 3 3 -25 35
-61 70 -37 35 -67 69 -67 75 0 6 -7 11 -15 11 -8 0 -15 -5 -15 -11z"/>
<path d="M4242 3870 c-18 -11 -38 -32 -44 -46 -15 -33 3 -49 67 -58 49 -8 99
9 130 43 51 58 -75 108 -153 61z m106 -47 c2 -9 -9 -13 -36 -13 -48 0 -74 9
-66 22 8 13 97 5 102 -9z"/>
<path d="M4052 3854 c-49 -24 -90 -73 -75 -88 12 -12 84 -6 121 9 69 29 105
84 66 99 -30 11 -60 6 -112 -20z m72 -34 c-5 -5 -32 -12 -59 -15 -48 -6 -49
-6 -25 9 28 17 100 22 84 6z"/>
<path d="M982 3842 c-33 -35 -78 -159 -97 -268 -19 -107 -19 -317 0 -402 17
-74 47 -132 68 -132 21 0 44 31 56 75 23 79 61 655 47 709 -3 14 -15 30 -27
36 -17 9 -24 6 -47 -18z m-1 -402 c-15 -204 -20 -239 -33 -216 -29 51 -16 317
20 429 l17 52 3 -55 c2 -30 -1 -125 -7 -210z"/>
<path d="M1750 3832 c-38 -38 -60 -91 -60 -148 0 -35 35 -74 67 -74 33 0 83
49 109 105 31 64 31 105 1 133 -35 33 -73 28 -117 -16z m53 -104 c-33 -61 -53
-73 -53 -31 0 30 32 90 59 110 28 21 25 -22 -6 -79z"/>
<path d="M2300 3859 c0 -18 40 -79 52 -79 6 0 36 7 67 16 31 9 62 18 70 21 12
3 10 8 -6 24 -19 20 -24 20 -76 9 -49 -11 -58 -11 -72 4 -19 19 -35 21 -35 5z"/>
<path d="M2680 3859 c0 -25 31 -60 77 -89 39 -25 42 -29 22 -32 -22 -3 -22 -3
6 -36 47 -56 145 -110 145 -80 0 14 -56 72 -100 102 -22 16 -23 17 -3 12 12
-4 24 -3 27 2 8 13 -45 84 -78 106 -38 24 -96 33 -96 15z m108 -57 c12 -8 21
-17 18 -19 -5 -5 -86 35 -86 43 0 8 41 -7 68 -24z m70 -122 c45 -28 40 -35 -8
-10 -38 19 -49 30 -32 30 4 0 22 -9 40 -20z"/>
<path d="M2970 3822 c0 -17 23 -50 117 -171 2 -2 5 -2 7 0 3 2 -13 29 -35 59
-22 30 -46 69 -54 87 -18 39 -35 51 -35 25z"/>
<path d="M3100 3822 c0 -22 74 -192 84 -192 3 0 -4 24 -16 53 -11 28 -26 71
-32 94 -14 51 -36 79 -36 45z"/>
<path d="M3607 3808 c-40 -53 -99 -149 -95 -154 3 -2 22 21 43 51 20 30 43 55
50 55 14 0 41 67 32 76 -3 3 -16 -10 -30 -28z"/>
<path d="M3718 3783 c-78 -75 -118 -145 -60 -107 19 13 14 3 -20 -35 -45 -50
-57 -71 -41 -71 10 0 75 50 121 94 57 54 58 87 2 49 -14 -9 -1 9 28 40 49 53
65 87 41 87 -6 0 -38 -26 -71 -57z m26 -14 c-10 -12 -32 -30 -49 -41 -23 -15
-20 -11 12 21 44 42 71 57 37 20z m-34 -93 c0 -2 -19 -19 -42 -36 l-43 -32 39
36 c38 35 46 40 46 32z"/>
<path d="M4443 3811 c-59 -37 -52 -86 17 -121 77 -39 160 -17 160 43 0 40 -76
97 -128 97 -9 0 -31 -9 -49 -19z m85 -51 c31 -19 44 -50 21 -50 -18 0 -88 42
-93 57 -8 20 34 16 72 -7z"/>
<path d="M3327 3800 c-4 -14 -6 -70 -5 -125 l1 -100 8 88 c10 118 21 125 13 9
-7 -95 -2 -116 15 -59 8 29 9 30 11 7 2 -26 37 85 47 148 9 54 -13 36 -25 -20
l-10 -53 1 57 c2 57 -15 86 -22 38 -3 -25 -3 -25 -15 5 l-12 30 -7 -25z m40
-82 c-3 -8 -6 -5 -6 6 -1 11 2 17 5 13 3 -3 4 -12 1 -19z m10 -50 c-3 -8 -6
-5 -6 6 -1 11 2 17 5 13 3 -3 4 -12 1 -19z"/>
<path d="M4777 3800 c-53 -42 -41 -105 39 -190 51 -54 81 -63 122 -34 35 24
31 97 -9 157 -30 46 -83 87 -111 87 -9 0 -27 -9 -41 -20z m104 -108 c30 -48
36 -72 18 -72 -28 0 -106 111 -92 132 9 15 45 -14 74 -60z"/>
<path d="M5253 3793 c-25 -38 -21 -124 12 -248 35 -136 76 -222 109 -231 32
-8 45 1 62 42 40 96 -7 318 -93 432 -30 41 -66 43 -90 5z m90 -140 c31 -71 50
-156 45 -203 l-3 -35 -17 31 c-15 27 -56 160 -72 237 -11 50 20 30 47 -30z"/>
<path d="M3875 3777 c-39 -19 -76 -41 -84 -50 -20 -25 1 -22 60 9 28 14 48 21
44 15 -14 -24 13 -9 45 24 43 45 25 45 -65 2z"/>
<path d="M3284 3785 c-9 -23 6 -225 17 -225 13 0 12 227 -1 235 -6 3 -13 -1
-16 -10z"/>
<path d="M2233 3758 c-35 -25 -45 -29 -57 -19 -17 14 -36 7 -36 -14 0 -14 50
-55 67 -55 7 0 104 68 123 87 6 6 -30 33 -44 33 -6 -1 -30 -15 -53 -32z"/>
<path d="M2445 3750 c-17 -19 -17 -21 1 -41 39 -45 122 -62 160 -35 19 14 18
15 -6 41 -52 56 -122 72 -155 35z m118 -35 c1 -5 -15 -11 -35 -13 -36 -3 -52
10 -25 22 19 8 57 2 60 -9z"/>
<path d="M2608 3738 c22 -35 36 -41 122 -52 l55 -7 -20 20 c-11 12 -41 25 -66
29 -26 5 -57 16 -70 25 -36 26 -43 20 -21 -15z"/>
<path d="M2870 3756 c0 -18 24 -44 80 -87 65 -51 74 -56 61 -32 -5 11 -30 35
-55 54 -25 19 -50 44 -57 57 -14 25 -29 29 -29 8z"/>
<path d="M3412 3698 c-12 -40 -26 -93 -31 -118 -9 -40 -8 -43 5 -26 8 11 14
25 14 30 0 6 5 4 10 -4 8 -12 10 -12 10 -1 0 8 3 12 6 9 3 -4 0 -16 -6 -28
-15 -29 -4 -39 16 -14 15 18 15 18 5 -3 -14 -27 -14 -36 -1 -28 5 3 0 -10 -13
-29 -12 -19 -27 -35 -32 -36 -6 0 -11 -8 -11 -17 0 -10 -4 -28 -8 -40 -5 -14
-3 -23 3 -23 6 0 11 5 11 10 0 6 9 20 20 32 11 12 20 27 20 34 0 7 10 30 22
50 12 21 17 34 10 30 -17 -10 -15 6 3 30 19 25 19 40 0 24 -12 -10 -11 -2 5
34 23 54 23 56 12 56 -5 0 -17 -16 -27 -35 -11 -19 -21 -32 -23 -30 -3 2 5 20
16 39 19 33 26 58 23 81 -1 6 -11 -10 -22 -35 -11 -25 -17 -34 -14 -20 27 115
9 137 -23 28z"/>
<path d="M1158 3750 c-97 -58 -137 -481 -54 -577 41 -47 83 -9 105 96 6 29 16
133 22 231 11 167 10 181 -7 217 -20 40 -38 49 -66 33z m7 -298 c-7 -90 -16
-166 -19 -170 -37 -37 -33 240 5 331 23 55 28 4 14 -161z"/>
<path d="M1968 3722 c-14 -20 -33 -52 -42 -70 -14 -28 -20 -31 -32 -21 -11 9
-18 9 -26 1 -16 -16 -3 -39 34 -62 39 -24 40 -23 97 81 l41 77 -24 15 c-23 16
-25 15 -48 -21z"/>
<path d="M3255 3698 c4 -35 11 -81 16 -103 7 -32 8 -25 4 30 -3 39 -5 85 -5
103 0 17 -5 32 -11 32 -8 0 -9 -19 -4 -62z"/>
<path d="M3598 3733 c-29 -33 -68 -88 -68 -98 0 -4 8 -1 18 6 15 13 16 12 3
-3 -7 -10 -17 -15 -22 -12 -11 6 -35 -43 -26 -52 11 -11 137 153 137 177 0 16
-16 9 -42 -18z m-8 -47 c0 -2 -8 -10 -17 -17 -16 -13 -17 -12 -4 4 13 16 21
21 21 13z"/>
<path d="M4155 3745 c-90 -49 -83 -95 15 -95 82 0 152 52 117 87 -23 23 -96
27 -132 8z m54 -31 c41 -9 40 -24 -3 -24 -47 0 -72 10 -54 21 16 11 18 11 57
3z"/>
<path d="M3100 3727 c0 -18 80 -180 86 -174 3 2 -11 37 -31 78 -19 40 -35 79
-35 86 0 6 -4 15 -10 18 -5 3 -10 0 -10 -8z"/>
<path d="M3980 3719 c-24 -5 -53 -18 -65 -30 l-20 -21 35 7 c19 4 45 9 58 12
17 4 21 2 16 -11 -3 -9 -3 -16 1 -16 11 0 85 54 85 63 0 9 -52 7 -110 -4z"/>
<path d="M3000 3707 c0 -17 82 -121 116 -147 18 -14 18 -14 4 5 -8 11 -31 41
-52 66 -21 26 -38 51 -38 57 0 5 -7 15 -15 22 -12 10 -15 10 -15 -3z"/>
<path d="M3236 3638 c8 -40 17 -90 20 -111 12 -73 15 -28 4 55 -16 114 -19
128 -29 128 -5 0 -2 -33 5 -72z"/>
<path d="M3821 3688 c-53 -26 -132 -99 -114 -105 32 -12 183 82 183 113 0 19
-17 17 -69 -8z m19 -23 c0 -7 -81 -47 -86 -42 -3 2 14 14 38 26 47 23 48 23
48 16z"/>
<path d="M2317 3682 c-27 -29 -21 -60 16 -82 40 -25 80 -25 118 -3 38 23 35
50 -10 80 -42 28 -101 31 -124 5z m106 -19 c12 -11 -25 -43 -49 -43 -29 0 -23
23 9 38 27 13 32 14 40 5z"/>
<path d="M4300 3672 c-27 -27 -29 -34 -20 -53 26 -47 128 -64 174 -28 56 44
19 98 -74 107 -45 4 -52 2 -80 -26z m106 -35 c15 -13 23 -27 17 -30 -12 -7
-93 31 -93 44 0 18 50 8 76 -14z"/>
<path d="M4631 3664 c-47 -39 -37 -86 31 -151 50 -48 114 -47 136 2 22 48 -18
129 -78 160 -40 21 -54 19 -89 -11z m64 -40 c20 -8 58 -81 49 -95 -8 -13 -50
25 -70 63 -21 40 -17 46 21 32z"/>
<path d="M1306 3649 c-39 -46 -60 -129 -60 -244 0 -102 12 -144 48 -174 26
-22 64 -5 86 38 24 48 44 209 37 297 -8 110 -57 147 -111 83z m45 -200 c-6
-68 -14 -125 -16 -128 -3 -2 -10 0 -16 6 -8 8 -10 45 -7 110 5 105 21 164 39
146 8 -8 8 -47 0 -134z"/>
<path d="M2119 3613 c-23 -37 -36 -48 -56 -48 -43 0 -37 -21 13 -46 29 -14 49
-19 51 -12 2 6 20 37 39 69 33 54 34 59 18 71 -27 20 -32 17 -65 -34z"/>
<path d="M2716 3652 c-13 -22 108 -101 157 -102 26 0 21 15 -19 50 -48 42
-126 71 -138 52z m114 -52 c12 -8 12 -10 -5 -9 -11 0 -29 4 -40 9 -18 8 -18 9
5 9 14 0 32 -4 40 -9z"/>
<path d="M3549 3598 c-84 -100 -88 -106 -28 -53 54 49 96 102 86 111 -2 3 -28
-24 -58 -58z"/>
<path d="M5099 3628 c-17 -27 -20 -44 -15 -98 6 -79 37 -184 69 -231 30 -44
70 -47 101 -6 16 22 20 42 20 95 -2 189 -112 340 -175 240z m86 -105 c31 -73
39 -173 14 -173 -11 0 -47 116 -55 182 -7 49 -6 52 10 39 9 -8 23 -29 31 -48z"/>
<path d="M2940 3644 c0 -19 31 -53 80 -89 28 -21 49 -40 46 -42 -3 -3 -11 -1
-18 3 -7 5 -17 9 -23 9 -14 0 -106 54 -132 78 -13 11 -25 18 -28 15 -11 -11
52 -62 110 -89 62 -30 145 -93 145 -110 0 -5 15 -23 33 -40 l32 -30 -55 30
c-107 59 -142 71 -137 49 1 -9 -10 -12 -33 -11 l-35 2 35 -16 c19 -8 54 -17
76 -18 23 -2 55 -11 70 -20 16 -9 20 -13 9 -9 -59 20 -180 11 -132 -10 6 -3 0
-3 -14 0 -37 8 -47 -14 -12 -27 19 -7 29 -7 31 0 4 13 32 15 32 2 0 -5 -10
-12 -22 -16 -62 -21 -65 -23 -40 -24 19 -1 22 -5 17 -21 -5 -17 -2 -20 24 -20
16 0 33 -4 36 -10 3 -5 30 -10 58 -10 50 -1 51 -1 27 -15 -33 -19 -13 -19 40
0 23 8 54 16 69 16 14 1 -12 6 -59 10 -99 10 -125 20 -133 48 -4 18 -1 21 25
21 16 0 27 4 24 8 -3 5 27 7 67 6 95 -3 91 -3 84 -11 -4 -3 0 -15 10 -25 9
-11 11 -18 5 -18 -7 0 -12 4 -12 9 0 9 -8 12 -63 30 -24 8 -26 7 -16 -5 9 -12
6 -14 -24 -14 -28 0 -35 -3 -31 -15 7 -18 60 -20 67 -2 4 10 7 10 18 0 16 -16
53 -17 80 -3 21 12 26 45 7 56 -8 5 -9 0 -5 -15 5 -22 5 -22 -14 -5 -11 10
-18 22 -16 28 5 13 -53 90 -61 82 -2 -3 7 -21 22 -41 15 -19 23 -35 19 -35 -5
0 -13 8 -20 18 -6 10 -38 50 -71 88 -32 38 -57 74 -55 80 2 6 -12 23 -32 38
-19 15 -51 43 -70 63 -19 20 -35 32 -35 27z m130 -244 c8 -5 11 -10 5 -10 -5
0 -17 5 -25 10 -8 5 -10 10 -5 10 6 0 17 -5 25 -10z m-10 -60 c0 -5 -7 -7 -15
-4 -8 4 -15 8 -15 10 0 2 7 4 15 4 8 0 15 -4 15 -10z m135 -10 c3 -6 -1 -7 -9
-4 -18 7 -21 14 -7 14 6 0 13 -4 16 -10z"/>
<path d="M3110 3640 c0 -7 14 -38 31 -69 18 -31 25 -50 15 -42 -18 15 -21 8
-6 -20 6 -10 17 -19 25 -19 8 0 15 -5 15 -11 0 -5 -5 -7 -11 -4 -15 10 17 -62
42 -93 20 -25 22 -25 16 -4 -7 30 -1 28 17 -5 20 -36 20 -22 0 47 -8 30 -17
91 -19 134 -2 44 -10 84 -16 90 -9 8 -10 2 -5 -26 4 -23 3 -38 -3 -38 -6 0 -6
-12 -1 -31 5 -18 7 -36 4 -41 -3 -4 0 -24 6 -43 6 -19 10 -41 7 -48 -2 -6 -9
6 -15 28 -10 34 -85 190 -98 204 -2 2 -4 -2 -4 -9z m117 -82 c-3 -8 -6 -5 -6
6 -1 11 2 17 5 13 3 -3 4 -12 1 -19z"/>
<path d="M2570 3631 c0 -6 15 -21 33 -34 28 -22 38 -24 80 -18 26 5 50 10 53
14 12 12 -40 29 -75 24 -23 -4 -43 -1 -55 8 -23 17 -36 19 -36 6z"/>
<path d="M3909 3631 c-52 -16 -119 -62 -119 -83 0 -24 116 10 168 49 49 37 22
55 -49 34z m6 -41 c-11 -5 -33 -9 -50 -9 -26 0 -27 2 -10 9 11 5 34 9 50 9 26
0 27 -2 10 -9z"/>
<path d="M4008 3616 c-27 -20 -22 -26 21 -26 39 0 63 -14 39 -23 -7 -2 -10 -8
-6 -11 7 -9 92 27 102 42 3 6 -20 14 -57 21 -78 13 -78 13 -99 -3z"/>
<path d="M3616 3564 c-43 -31 -75 -58 -72 -61 3 -3 18 4 34 16 17 12 34 21 40
21 14 0 61 39 72 61 6 10 9 19 7 19 -3 0 -39 -25 -81 -56z"/>
<path d="M1516 3583 c-6 -29 -26 -198 -26 -221 0 -9 -5 -10 -19 -3 -16 9 -20
6 -25 -22 -8 -40 20 -67 69 -67 41 0 45 10 45 112 0 45 5 110 11 146 9 53 9
66 -2 73 -27 17 -47 10 -53 -18z"/>
<path d="M3050 3592 c0 -7 16 -30 36 -52 20 -21 33 -43 30 -48 -6 -10 54 -86
62 -77 3 3 -5 16 -18 30 -13 14 -18 25 -12 25 7 0 -9 26 -34 58 -61 76 -64 78
-64 64z"/>
<path d="M3361 3584 c0 -11 3 -14 6 -6 3 7 2 16 -1 19 -3 4 -6 -2 -5 -13z"/>
<path d="M4191 3587 c-19 -6 -40 -22 -48 -34 -14 -21 -13 -23 19 -43 81 -49
210 3 151 61 -25 25 -79 32 -122 16z m67 -39 c34 -28 -8 -39 -46 -12 -12 8
-20 20 -16 25 6 11 41 3 62 -13z"/>
<path d="M2543 3569 c-26 -17 -36 -18 -53 -9 -31 17 -39 2 -11 -21 46 -38 74
-34 140 18 5 3 -30 32 -39 33 -3 0 -19 -10 -37 -21z"/>
<path d="M3725 3564 c-33 -13 -67 -32 -75 -41 -14 -14 -13 -15 5 -8 11 4 32 9
48 10 34 4 121 66 90 65 -5 -1 -35 -12 -68 -26z"/>
<path d="M5956 3558 c-12 -29 -14 -73 -9 -244 7 -235 -5 -382 -43 -566 -27
-129 -74 -293 -99 -348 l-16 -35 6 65 c4 38 3 61 -3 55 -22 -26 -92 -199 -111
-275 -11 -47 -30 -118 -41 -159 -11 -41 -20 -91 -20 -110 l1 -36 44 70 c216
339 345 797 345 1228 0 183 -15 365 -30 381 -6 6 -15 -4 -24 -26z"/>
<path d="M2288 3541 c-19 -32 -26 -38 -40 -30 -18 10 -38 5 -38 -10 0 -9 65
-41 84 -41 7 0 27 22 44 50 30 47 30 50 12 60 -30 16 -38 12 -62 -29z"/>
<path d="M4493 3573 c-20 -7 -16 -22 17 -63 34 -42 38 -60 14 -60 -9 0 -14 -6
-12 -12 5 -15 87 -22 107 -9 15 10 2 34 -57 109 -33 41 -43 46 -69 35z"/>
<path d="M3506 3513 c-31 -32 -66 -77 -77 -100 -20 -41 -42 -58 -60 -47 -5 3
-9 -6 -9 -20 0 -13 -5 -26 -12 -28 -8 -3 -6 -6 4 -10 9 -4 30 4 48 17 18 14
36 22 41 20 9 -6 104 34 96 41 -3 3 -24 -4 -47 -16 -49 -25 -65 -20 -23 6 38
25 160 144 147 144 -18 0 -89 -56 -150 -117 -39 -39 -50 -47 -33 -23 13 19 36
45 52 58 15 13 27 29 27 36 0 6 14 28 31 49 49 60 27 54 -35 -10z"/>
<path d="M1691 3497 c-6 -35 -11 -81 -11 -101 0 -35 -2 -38 -24 -32 -20 5 -25
1 -29 -20 -4 -22 1 -28 29 -40 18 -8 45 -14 59 -14 24 0 25 3 25 53 0 28 5 85
10 126 10 78 6 90 -31 91 -13 0 -20 -16 -28 -63z"/>
<path d="M2720 3543 c0 -30 89 -73 147 -73 l38 1 -35 31 c-19 17 -28 27 -20
23 8 -5 22 -14 31 -21 17 -15 110 -46 117 -39 2 2 28 -10 58 -27 64 -36 72
-30 12 9 -24 15 -53 36 -65 47 -24 21 -32 10 -10 -14 10 -12 9 -12 -3 -3 -8 6
-33 16 -55 23 -22 7 -46 17 -53 23 -7 6 -25 12 -40 13 -15 2 -48 6 -74 10 -29
4 -48 3 -48 -3z m110 -33 c12 -8 9 -10 -12 -10 -15 0 -30 5 -33 10 -8 13 25
13 45 0z"/>
<path d="M3928 3540 c-40 -12 -89 -43 -85 -55 6 -16 118 -10 155 9 69 36 16
72 -70 46z m32 -30 c11 -7 3 -10 -30 -10 -33 0 -41 3 -30 10 8 5 22 10 30 10
8 0 22 -5 30 -10z"/>
<path d="M4965 3537 c-17 -14 -17 -17 9 -108 32 -114 32 -123 6 -116 -17 4
-20 0 -20 -24 0 -25 6 -33 36 -45 47 -20 74 -11 74 24 0 29 -42 210 -59 255
-12 31 -19 33 -46 14z"/>
<path d="M3394 3498 c-1 -21 2 -35 7 -32 5 3 9 11 9 19 0 7 5 15 10 17 6 2 2
10 -7 19 -17 14 -19 12 -19 -23z"/>
<path d="M2630 3505 c-11 -13 -10 -18 6 -30 25 -20 89 -37 121 -33 45 5 38 27
-19 53 -61 29 -90 31 -108 10z m105 -25 c8 -13 -20 -24 -41 -16 -20 8 -9 26
16 26 10 0 22 -5 25 -10z"/>
<path d="M3330 3511 c0 -6 -6 -8 -14 -5 -26 10 -39 -34 -33 -112 3 -40 11 -82
17 -94 10 -19 8 -26 -14 -49 -28 -29 -36 -52 -11 -31 20 16 19 12 -5 -38 -22
-46 -25 -56 -10 -47 7 4 7 -3 0 -20 -15 -41 -12 -65 4 -35 l14 25 5 -30 c3
-17 4 -4 3 28 -1 31 1 57 6 57 4 0 8 -10 9 -22 0 -22 1 -22 9 -3 7 18 8 17 15
-10 4 -16 12 -36 18 -43 8 -10 7 -16 -2 -21 -7 -4 -16 -30 -20 -57 -5 -30 -10
-39 -11 -24 -2 18 -4 20 -7 8 -2 -10 -9 -18 -14 -18 -5 0 -10 -37 -11 -82 l-2
-83 -6 85 c-3 47 -7 78 -8 70 -2 -11 -6 -8 -15 8 -7 12 -17 19 -22 15 -4 -4
-5 0 -2 10 5 12 3 16 -4 11 -7 -4 -9 0 -6 12 4 11 9 31 12 47 3 15 8 39 11 55
l6 27 -30 -28 c-40 -38 -49 -19 -12 23 30 34 37 50 21 50 -11 0 -59 -39 -48
-40 4 0 1 -13 -7 -29 -9 -16 -12 -32 -8 -36 4 -5 1 -5 -7 0 -10 6 -12 4 -6 -5
5 -8 4 -11 -2 -7 -6 4 -19 -3 -29 -16 -16 -18 -16 -19 -1 -8 28 22 19 0 -15
-39 -18 -20 -7 -10 25 21 31 31 57 55 57 52 0 -3 7 1 17 8 15 13 15 10 9 -26
-4 -22 -13 -43 -19 -47 -19 -12 -19 -1 0 28 10 16 12 25 5 20 -6 -4 -19 -21
-28 -38 -9 -16 -11 -27 -5 -24 14 9 14 0 -1 -27 -6 -12 -12 -35 -13 -52 -1
-16 -5 -43 -9 -60 -6 -25 -3 -22 18 15 30 53 32 50 10 -14 -9 -26 -14 -49 -12
-51 2 -3 15 25 27 61 13 35 25 63 27 61 2 -2 -5 -31 -17 -65 -11 -33 -19 -73
-17 -89 l4 -28 17 35 18 35 -6 -45 c-4 -31 -3 -41 4 -30 5 8 13 37 17 65 3 27
10 59 15 70 7 16 8 13 4 -10 -16 -108 -17 -147 -4 -143 8 3 17 20 20 39 l6 34
2 -33 c0 -19 5 -31 11 -27 6 3 11 43 12 88 1 62 3 68 5 27 5 -79 12 -108 24
-89 5 7 9 28 10 44 1 30 1 30 10 5 6 -17 7 -5 4 40 l-4 65 14 -40 14 -40 -3
53 c-2 36 0 49 6 40 10 -13 5 18 -8 59 -5 15 -4 16 6 3 16 -20 5 49 -17 108
-9 23 -14 45 -11 47 4 5 15 -27 52 -150 8 -27 11 -51 6 -53 -5 -2 -1 -24 9
-50 39 -96 62 -145 66 -140 3 3 -8 37 -25 76 -37 87 -38 105 -3 37 29 -55 42
-47 22 12 -7 21 -12 42 -10 48 6 21 -103 241 -117 238 -5 -1 -8 8 -7 21 2 13
-1 29 -6 37 -6 9 -9 -1 -10 -31 l-1 -45 -9 39 c-12 52 1 65 37 37 27 -21 50
-28 40 -12 -3 5 6 12 19 15 14 4 23 11 20 16 -8 13 65 13 85 0 12 -8 11 -10
-7 -10 -13 0 -23 -5 -23 -11 0 -6 -7 -9 -15 -5 -18 7 -20 -10 -2 -18 6 -3 -3
-3 -20 0 -40 7 -44 -8 -5 -21 33 -12 164 -7 156 6 -3 5 6 9 20 9 14 0 26 5 26
10 0 6 -6 10 -13 10 -18 0 -63 39 -59 52 2 6 -15 9 -42 7 -24 -2 -42 -1 -40 3
2 3 -10 10 -28 14 -28 6 -30 8 -13 14 11 4 22 5 25 1 5 -6 54 -10 114 -10 16
0 38 -4 50 -7 21 -7 21 -7 1 -15 -15 -6 -9 -8 25 -10 38 -2 40 -3 13 -6 -52
-7 -35 -33 21 -33 28 0 36 -8 29 -26 -3 -9 -13 -12 -25 -8 -14 4 -18 2 -14 -5
5 -7 -5 -11 -28 -11 -36 0 -48 -13 -23 -24 6 -3 -5 -4 -25 -1 -22 4 -38 2 -38
-4 0 -7 -10 -6 -30 0 -16 6 -35 9 -42 6 -7 -2 -28 2 -47 9 -43 18 -41 18 -39
-10 1 -13 7 -22 13 -20 15 6 48 -32 42 -48 -4 -8 -8 -5 -12 10 -9 27 -25 30
-18 2 3 -11 17 -30 32 -43 15 -12 27 -26 28 -30 2 -12 55 -67 76 -78 31 -17
18 7 -39 71 -57 65 -64 84 -20 54 54 -34 35 -5 -25 40 -66 50 -69 57 -10 26
21 -10 41 -17 43 -15 2 3 22 -4 43 -15 40 -21 91 -27 80 -11 -3 6 9 5 30 0 42
-12 62 -4 44 17 -9 12 -5 14 25 14 40 0 48 16 14 30 l-23 9 23 0 c27 1 31 37
5 44 -12 3 -7 7 15 12 43 10 35 29 -14 33 -29 2 -35 0 -24 -8 12 -8 9 -10 -13
-10 -25 0 -27 2 -17 21 7 11 10 22 8 24 -15 13 -50 25 -59 20 -5 -4 -16 -1
-25 5 -8 7 -45 13 -84 14 -38 0 -66 4 -62 7 14 12 127 29 130 20 3 -10 60 5
77 20 8 8 -72 3 -102 -7 -7 -2 -13 0 -13 4 0 4 24 16 53 26 29 10 64 26 77 37
24 18 24 19 4 19 -11 0 -42 -7 -68 -16 -36 -12 -45 -19 -35 -26 11 -7 10 -8
-4 -4 -11 4 -37 -7 -68 -29 -28 -19 -69 -40 -91 -46 -72 -19 -112 -58 -46 -45
29 6 31 5 18 -9 -12 -12 -25 -13 -60 -6 -25 5 -38 9 -30 10 12 1 12 3 2 9 -10
7 -8 18 7 53 22 50 37 154 21 144 -6 -3 -10 1 -10 9 0 8 -4 18 -10 21 -5 3
-10 2 -10 -4z m-16 -123 c-1 -18 2 -39 8 -45 7 -9 7 -13 -1 -13 -16 0 -29 38
-23 67 7 35 18 28 16 -9z m250 -164 c4 -10 1 -14 -6 -12 -15 5 -23 28 -10 28
5 0 13 -7 16 -16z m149 -71 c-7 -2 -19 -2 -25 0 -7 3 -2 5 12 5 14 0 19 -2 13
-5z m-43 -29 c0 -2 -9 -4 -20 -4 -11 0 -20 4 -20 9 0 5 9 7 20 4 11 -3 20 -7
20 -9z m-470 -139 c4 3 6 -5 2 -17 -5 -21 -6 -21 -12 -3 -6 18 -9 17 -23 -10
-22 -40 -21 -25 1 21 11 25 18 31 20 20 2 -9 7 -14 12 -11z m37 -47 c-3 -8 -6
-5 -6 6 -1 11 2 17 5 13 3 -3 4 -12 1 -19z m193 2 c0 -5 -4 -10 -10 -10 -5 0
-10 5 -10 10 0 6 5 10 10 10 6 0 10 -4 10 -10z m-203 -52 c-3 -7 -5 -2 -5 12
0 14 2 19 5 13 2 -7 2 -19 0 -25z m100 -15 c-3 -10 -5 -4 -5 12 0 17 2 24 5
18 2 -7 2 -21 0 -30z m-110 -35 c-3 -8 -6 -5 -6 6 -1 11 2 17 5 13 3 -3 4 -12
1 -19z"/>
<path d="M3748 3504 c-54 -16 -64 -29 -18 -22 16 2 31 0 33 -5 3 -9 87 28 87
38 0 10 -56 3 -102 -11z"/>
<path d="M1875 3468 c-16 -104 -17 -107 -38 -110 -32 -5 -31 -25 2 -42 36 -19
80 -21 85 -3 3 6 7 54 10 105 l5 92 -29 0 c-26 0 -29 -4 -35 -42z"/>
<path d="M2460 3480 c-17 -24 -25 -28 -40 -20 -13 7 -21 7 -25 -1 -8 -13 -9
-12 41 -32 45 -17 49 -16 82 30 22 32 22 32 3 43 -30 15 -38 13 -61 -20z"/>
<path d="M3632 3480 c-28 -13 -41 -24 -36 -31 4 -8 3 -9 -5 -5 -6 4 -25 -3
-42 -15 -23 -16 -27 -24 -18 -30 8 -4 16 -4 19 0 3 4 29 20 57 36 51 27 96 65
77 65 -5 0 -28 -9 -52 -20z"/>
<path d="M4021 3491 c-11 -7 -5 -13 25 -27 28 -12 34 -18 22 -21 -20 -5 -24
-23 -5 -23 25 0 87 21 87 30 0 14 -66 50 -91 50 -13 0 -30 -4 -38 -9z"/>
<path d="M4330 3493 c-24 -9 -50 -35 -50 -50 0 -8 13 -28 29 -44 25 -24 38
-29 79 -29 81 0 106 47 53 101 -29 28 -71 37 -111 22z m55 -48 c28 -27 32 -45
10 -45 -17 0 -55 39 -55 57 0 20 18 15 45 -12z"/>
<path d="M2016 3459 c-21 -16 -26 -29 -26 -64 0 -58 24 -87 73 -87 49 0 83 23
90 61 9 43 -7 77 -42 96 -40 20 -63 19 -95 -6z m72 -75 c-2 -27 -8 -39 -18
-39 -19 0 -26 61 -9 81 18 22 31 2 27 -42z"/>
<path d="M2880 3451 c0 -16 21 -24 62 -25 21 -1 38 0 38 2 0 6 -69 32 -85 32
-8 0 -15 -4 -15 -9z"/>
<path d="M3743 3435 c-29 -13 -53 -27 -53 -31 0 -4 28 -4 63 -2 63 5 127 30
127 48 0 19 -85 10 -137 -15z m72 -5 c-3 -5 -21 -10 -38 -10 -24 0 -28 3 -17
10 20 13 63 13 55 0z"/>
<path d="M4760 3435 c-19 -21 -24 -35 -22 -73 3 -67 40 -134 80 -146 72 -20
115 44 91 139 -25 98 -96 136 -149 80z m76 -60 c16 -38 19 -101 5 -109 -13 -8
-41 68 -41 109 0 45 17 45 36 0z"/>
<path d="M2567 3436 c-3 -8 3 -22 15 -33 27 -24 141 -26 146 -3 7 37 -148 71
-161 36z m103 -20 c0 -15 -24 -28 -34 -19 -13 14 -5 33 14 33 11 0 20 -6 20
-14z"/>
<path d="M2190 3420 c-48 -48 -10 -110 68 -110 67 0 96 33 76 85 -17 42 -110
59 -144 25z m87 -26 c7 -20 -14 -67 -27 -59 -11 7 -14 58 -3 68 11 12 23 8 30
-9z"/>
<path d="M3889 3431 c-37 -12 -69 -30 -69 -40 0 -27 141 -23 177 5 17 14 17
14 -1 29 -21 16 -65 18 -107 6z m56 -32 c5 -5 1 -9 -12 -9 -31 0 -54 11 -47
21 6 10 43 3 59 -12z"/>
<path d="M4129 3411 c-20 -16 -22 -23 -13 -38 16 -27 54 -43 102 -43 75 0 103
57 42 90 -32 17 -105 12 -131 -9z m99 -39 c5 -17 -24 -15 -42 4 -23 22 -9 39
17 21 11 -7 23 -19 25 -25z"/>
<path d="M2820 3405 c26 -14 16 -24 -34 -35 l-31 -7 45 -12 c28 -8 50 -10 59
-4 22 14 24 31 4 36 -12 4 -10 5 7 5 59 -2 74 2 62 14 -7 7 -40 13 -73 14 -54
1 -59 -1 -39 -11z"/>
<path d="M2426 3385 c-3 -9 -6 -26 -6 -36 0 -16 -5 -19 -19 -14 -11 3 -22 1
-26 -4 -7 -12 27 -22 77 -24 33 -2 33 -2 33 43 0 41 -2 45 -26 48 -17 2 -29
-3 -33 -13z"/>
<path d="M4595 3388 c-29 -17 -35 -28 -35 -75 0 -30 7 -50 26 -72 56 -67 144
-42 144 41 0 90 -68 144 -135 106z m62 -59 c15 -28 17 -75 4 -83 -15 -10 -33
23 -39 70 -4 37 -2 46 9 42 8 -3 20 -15 26 -29z"/>
<path d="M3708 3363 c-27 -9 -48 -20 -48 -24 0 -12 97 -11 143 2 39 11 47 23
21 33 -25 10 -66 6 -116 -11z m62 -13 c0 -5 -9 -10 -19 -10 -11 0 -23 5 -26
10 -4 6 5 10 19 10 14 0 26 -4 26 -10z"/>
<path d="M3986 3371 c-3 -4 4 -17 15 -27 l21 -19 -24 -6 c-15 -5 -2 -7 35 -8
31 -1 57 3 57 8 0 5 -14 21 -31 35 -31 26 -63 34 -73 17z"/>
<path d="M2552 3358 c-33 -33 3 -59 84 -61 56 -1 81 11 71 37 -11 29 -131 48
-155 24z m88 -28 c0 -11 -4 -20 -9 -20 -13 0 -32 26 -24 33 13 14 33 6 33 -13z"/>
<path d="M4443 3349 c-22 -8 -22 -9 -8 -50 20 -55 19 -59 -11 -59 -16 0 -24
-5 -22 -12 5 -14 39 -26 81 -27 23 -1 27 3 27 25 0 37 -20 112 -34 123 -6 5
-21 5 -33 0z"/>
<path d="M5782 3344 c-21 -15 -22 -21 -22 -176 0 -175 -17 -313 -56 -467 -33
-127 -37 -135 -44 -81 l-6 45 -29 -60 c-24 -50 -29 -76 -33 -158 -4 -101 3
-167 17 -167 11 0 104 236 135 343 57 198 69 279 74 515 2 123 0 222 -5 222
-5 0 -19 -7 -31 -16z"/>
<path d="M2730 3325 c0 -23 34 -35 100 -35 45 0 61 3 58 13 -11 31 -158 52
-158 22z m100 -15 c0 -5 -6 -10 -14 -10 -8 0 -18 5 -21 10 -3 6 3 10 14 10 12
0 21 -4 21 -10z"/>
<path d="M3793 3329 c-33 -10 -43 -26 -20 -34 6 -2 30 -7 52 -10 35 -6 37 -8
18 -16 -28 -10 -20 -37 13 -44 13 -3 34 -7 47 -10 34 -7 82 9 85 28 4 20 -33
37 -81 38 l-32 1 35 10 35 10 -24 19 c-25 21 -74 24 -128 8z m72 -19 c3 -5 -3
-10 -14 -10 -11 0 -23 5 -26 10 -3 6 3 10 14 10 11 0 23 -4 26 -10z m63 -68
c3 -9 -2 -13 -14 -10 -9 1 -19 9 -22 16 -3 9 2 13 14 10 9 -1 19 -9 22 -16z"/>
<path d="M4220 3307 c-54 -27 -26 -89 46 -103 56 -10 88 5 92 43 6 62 -69 95
-138 60z m70 -26 c15 -28 12 -51 -5 -51 -17 0 -35 38 -28 58 7 18 21 15 33 -7z"/>
<path d="M4071 3291 c-10 -6 -11 -13 -2 -29 15 -29 14 -32 -11 -32 -33 -1 -4
-15 46 -24 l39 -7 -6 36 c-9 57 -33 77 -66 56z"/>
<path d="M2235 3277 c-3 -7 -1 -26 5 -41 14 -39 13 -46 -10 -46 -11 0 -20 -7
-20 -15 0 -11 12 -15 44 -15 75 0 77 3 52 68 -17 43 -28 58 -44 60 -12 2 -25
-3 -27 -11z"/>
<path d="M2425 3280 c-4 -6 -4 -24 0 -40 6 -26 4 -30 -15 -30 -12 0 -18 -4
-15 -10 7 -11 71 -12 96 -2 14 6 14 11 -3 50 -18 41 -48 56 -63 32z"/>
<path d="M2573 3283 c-28 -5 -36 -28 -17 -48 20 -20 137 -21 153 -2 24 30 -68
64 -136 50z m74 -28 c3 -9 3 -18 1 -21 -9 -9 -38 8 -38 22 0 19 29 18 37 -1z"/>
<path d="M2053 3238 c4 -24 9 -53 13 -64 4 -16 0 -23 -15 -27 -42 -11 -21 -27
34 -27 64 0 65 2 37 95 -16 53 -21 60 -47 63 -28 4 -28 3 -22 -40z"/>
<path d="M2734 3269 c-9 -16 6 -27 51 -38 22 -5 32 -9 22 -10 -35 -2 -10 -26
29 -29 70 -4 105 -13 98 -24 -4 -6 1 -8 12 -5 65 18 70 19 51 4 -9 -8 -36 -17
-58 -21 -23 -4 -55 -14 -73 -24 l-31 -17 32 -3 c17 -2 51 2 75 9 24 7 50 11
60 10 9 -1 34 6 55 15 68 32 73 33 73 30 0 -2 -30 -22 -66 -45 -37 -23 -64
-44 -61 -47 5 -5 87 33 97 45 3 3 29 22 57 41 29 19 53 38 53 42 0 7 -97 -22
-152 -46 -21 -9 -38 -12 -38 -7 0 5 13 12 30 16 58 13 41 25 -36 25 -63 0 -74
2 -65 13 16 20 4 27 -53 28 -29 1 -39 4 -23 6 34 5 35 21 1 33 -34 13 -131 13
-140 -1z m101 -9 c4 -6 -5 -10 -19 -10 -14 0 -26 5 -26 10 0 6 9 10 19 10 11
0 23 -4 26 -10z m60 -50 c3 -5 -3 -10 -14 -10 -12 0 -21 5 -21 10 0 6 6 10 14
10 8 0 18 -4 21 -10z m60 -80 c-3 -5 -18 -9 -33 -9 l-27 1 30 8 c17 4 31 8 33
9 2 0 0 -3 -3 -9z"/>
<path d="M1835 3245 c-58 -57 -6 -185 75 -185 91 0 108 123 25 188 -36 29 -70
28 -100 -3z m83 -73 c16 -50 10 -81 -13 -62 -19 15 -38 77 -31 96 10 26 29 10
44 -34z"/>
<path d="M5605 3251 c-19 -8 -22 -23 -32 -168 -12 -154 -45 -348 -64 -367 -5
-6 -9 -2 -9 11 0 39 -16 33 -39 -13 -20 -42 -21 -51 -11 -107 11 -62 32 -107
49 -107 11 0 61 148 90 265 39 154 69 496 44 494 -5 0 -17 -4 -28 -8z"/>
<path d="M1673 3240 c-49 -20 -57 -103 -19 -187 35 -74 79 -92 129 -53 13 11
28 31 31 46 11 41 -21 133 -59 171 -34 34 -46 38 -82 23z m66 -109 c21 -65 11
-112 -17 -78 -17 20 -36 102 -28 122 6 16 9 17 20 4 7 -8 18 -29 25 -48z"/>
<path d="M1473 3183 c-29 -44 -23 -147 11 -218 49 -98 112 -116 149 -42 16 32
17 44 7 94 -15 71 -44 140 -72 170 -30 32 -73 30 -95 -4z m97 -141 c24 -76 25
-92 6 -92 -26 0 -75 142 -61 177 6 17 7 17 21 -2 8 -11 24 -48 34 -83z"/>
<path d="M2633 3200 c-28 -11 -29 -26 -4 -40 28 -15 86 -12 129 6 35 15 36 16
18 30 -22 16 -108 18 -143 4z m93 -21 c3 -5 -6 -9 -20 -9 -24 0 -41 12 -30 23
7 7 43 -3 50 -14z"/>
<path d="M5392 3194 c-12 -8 -29 -31 -37 -49 -27 -66 -57 -231 -62 -343 -5
-99 -4 -115 12 -132 26 -28 60 -25 83 8 60 84 92 206 93 345 0 107 -12 162
-41 177 -24 13 -21 13 -48 -6z m25 -201 c-6 -102 -29 -198 -53 -223 -12 -12
-14 -10 -14 21 0 74 47 299 62 299 7 0 9 -31 5 -97z"/>
<path d="M3356 3189 c3 -5 16 -9 30 -9 14 0 23 4 20 9 -3 5 -17 9 -31 9 -13 0
-22 -4 -19 -9z"/>
<path d="M3844 3188 c-12 -19 32 -46 87 -53 41 -6 54 -4 68 10 15 15 14 18 -8
36 -27 22 -135 28 -147 7z m96 -12 c0 -20 -19 -31 -32 -18 -6 6 -7 15 -4 21
10 16 36 13 36 -3z"/>
<path d="M2484 3180 c-59 -13 -67 -27 -34 -60 24 -24 76 -26 125 -6 35 15 45
38 23 52 -21 13 -82 20 -114 14z m54 -32 c7 -7 12 -16 12 -20 0 -15 -27 -8
-45 12 -18 19 -17 20 1 20 11 0 25 -5 32 -12z"/>
<path d="M4090 3160 c0 -26 -4 -30 -27 -30 l-28 -1 25 -13 c14 -8 36 -16 50
-17 21 -3 27 2 38 35 14 44 7 56 -35 56 -19 0 -23 -6 -23 -30z"/>
<path d="M4232 3164 c-30 -21 -30 -69 1 -88 56 -36 116 -32 136 10 15 35 6 61
-29 79 -37 19 -80 19 -108 -1z m76 -46 c-3 -36 -30 -46 -36 -15 -5 26 5 47 23
47 12 0 15 -8 13 -32z"/>
<path d="M5229 3173 c-20 -5 -29 -32 -29 -93 0 -45 -16 -158 -26 -193 -5 -17
-7 -17 -23 -3 -16 15 -19 14 -29 -9 -7 -14 -12 -32 -12 -40 0 -19 59 -85 75
-85 26 0 72 199 77 334 3 89 0 98 -33 89z"/>
<path d="M4473 3163 c-7 -2 -13 -19 -13 -36 0 -18 -3 -42 -6 -54 -5 -18 -10
-21 -24 -13 -13 7 -21 7 -26 -1 -8 -14 3 -25 48 -43 45 -19 47 -16 64 74 14
75 4 92 -43 73z"/>
<path d="M5013 3155 c-39 -17 -64 -77 -71 -172 -6 -88 1 -118 33 -139 37 -24
70 -11 99 39 42 72 51 179 22 248 -12 28 -48 38 -83 24z m35 -132 c-6 -69 -23
-123 -41 -123 -13 0 -2 141 13 169 22 42 33 23 28 -46z"/>
<path d="M1327 3147 c-17 -11 -16 -18 7 -107 14 -52 34 -119 46 -148 24 -62
25 -73 6 -66 -21 8 -26 -9 -15 -51 10 -36 12 -37 47 -31 20 3 45 14 55 25 19
19 19 20 -20 113 -23 51 -51 135 -63 186 -22 93 -31 103 -63 79z"/>
<path d="M2731 3144 c-27 -11 -32 -17 -22 -27 25 -25 171 3 171 32 0 16 -110
13 -149 -5z m77 -11 c-10 -2 -26 -2 -35 0 -10 3 -2 5 17 5 19 0 27 -2 18 -5z"/>
<path d="M4605 3136 c-30 -30 -41 -87 -25 -127 15 -36 37 -49 84 -49 39 0 71
35 82 89 8 36 -11 88 -37 101 -32 18 -79 11 -104 -14z m75 -57 c0 -42 -14 -79
-30 -79 -13 0 -13 76 0 101 17 31 30 22 30 -22z"/>
<path d="M4836 3138 c-3 -13 -7 -48 -10 -80 -8 -77 -14 -92 -33 -76 -12 10
-18 9 -30 -7 -13 -18 -11 -22 14 -43 28 -23 70 -38 79 -30 6 7 31 132 39 201
l7 57 -31 0 c-24 0 -32 -5 -35 -22z"/>
<path d="M2300 3137 c0 -8 11 -24 25 -37 28 -27 32 -40 10 -40 -8 0 -15 -4
-15 -10 0 -14 49 -12 82 3 l27 12 -40 43 c-39 42 -89 58 -89 29z"/>
<path d="M3131 3129 c-12 -11 -64 -41 -116 -65 -52 -25 -98 -50 -101 -56 -5
-8 -1 -9 12 -3 10 4 33 13 50 19 18 6 38 16 45 22 8 6 21 15 29 19 20 12 -26
-45 -50 -62 -11 -8 -20 -19 -20 -25 0 -6 -18 -31 -41 -55 -22 -25 -38 -47 -35
-50 7 -8 67 31 96 63 25 27 13 25 -25 -5 -12 -9 -8 -3 8 12 15 15 32 25 37 22
10 -6 60 56 60 75 0 10 -4 9 -17 -1 -16 -13 -17 -12 -4 3 7 10 17 16 21 13 4
-2 22 11 40 30 19 19 30 35 25 35 -5 0 0 7 11 15 10 8 14 15 8 15 -5 0 -20 -9
-33 -21z"/>
<path d="M3380 3147 c0 -22 101 -195 137 -234 49 -53 46 -43 -9 27 -46 59 -58
81 -31 58 30 -27 36 -21 11 12 -16 22 -24 27 -31 18 -6 -9 -7 -7 -3 6 4 12 -1
27 -15 42 -14 15 -19 29 -15 41 4 9 4 14 0 10 -4 -4 -16 0 -26 10 -10 9 -18
14 -18 10z"/>
<path d="M3863 3115 c-12 -8 -29 -12 -39 -8 -11 4 -15 3 -11 -5 4 -6 23 -16
43 -22 32 -11 38 -10 56 8 36 36 -5 58 -49 27z"/>
<path d="M2563 3095 c-38 -16 -42 -30 -14 -45 31 -16 92 -11 141 11 43 19 44
21 26 35 -25 18 -111 18 -153 -1z m95 -14 c11 -7 11 -9 -1 -14 -19 -7 -57 2
-57 14 0 11 41 11 58 0z"/>
<path d="M2959 3096 c-25 -7 -54 -18 -65 -24 -16 -10 -11 -11 27 -8 25 1 57
11 72 21 44 28 38 30 -34 11z"/>
<path d="M3544 3081 c15 -16 45 -37 66 -46 22 -10 37 -22 34 -27 -3 -5 0 -16
7 -24 14 -17 -86 39 -113 64 -10 8 -18 10 -18 4 0 -15 39 -44 96 -71 27 -13
74 -37 105 -52 63 -32 89 -36 89 -15 0 19 -49 54 -108 77 -26 10 -41 18 -33
19 8 0 11 6 7 15 -4 13 -2 13 14 5 24 -13 103 -13 95 0 -4 7 3 7 20 0 15 -6
42 -10 61 -10 28 0 35 4 32 17 -4 22 -80 52 -130 52 -43 1 -48 -10 -15 -32 21
-14 20 -15 -23 -10 -25 3 -58 13 -75 21 l-30 15 20 -23 c16 -18 8 -15 -46 14
-79 44 -91 45 -55 7z m66 -21 c8 -5 11 -10 5 -10 -5 0 -17 5 -25 10 -8 5 -10
10 -5 10 6 0 17 -5 25 -10z m224 1 c7 -11 -14 -20 -31 -13 -7 2 -10 8 -7 13 7
12 31 12 38 0z m-94 -106 c27 -15 20 -19 -17 -9 -13 4 -23 10 -23 15 0 12 11
11 40 -6z"/>
<path d="M2102 3088 c-31 -31 -5 -96 47 -118 36 -15 68 -8 104 21 35 27 34 44
-4 80 -26 24 -40 29 -83 29 -29 0 -57 -5 -64 -12z m97 -44 c26 -33 26 -44 2
-44 -22 0 -64 47 -55 61 10 17 32 9 53 -17z"/>
<path d="M3302 3080 c0 -14 2 -19 5 -12 2 6 2 18 0 25 -3 6 -5 1 -5 -13z"/>
<path d="M3993 3088 c-48 -24 -11 -68 68 -83 68 -13 107 36 57 69 -31 20 -98
28 -125 14z m85 -35 c-4 -22 -48 -31 -48 -10 0 19 10 27 32 27 13 0 18 -6 16
-17z"/>
<path d="M1145 3063 c-57 -57 -40 -226 41 -388 81 -166 184 -181 170 -25 -10
109 -123 397 -164 419 -27 14 -28 14 -47 -6z m114 -282 c28 -75 39 -117 32
-124 -30 -30 -141 252 -115 294 10 16 31 -28 83 -170z"/>
<path d="M2725 3060 c-4 -6 6 -10 24 -10 23 0 29 -4 24 -15 -5 -14 -2 -14 23
-3 72 31 73 38 2 38 -37 0 -70 -4 -73 -10z"/>
<path d="M1968 3043 c-26 -7 -22 -20 21 -78 37 -49 38 -53 21 -61 -13 -6 -17
-13 -11 -23 10 -16 67 -9 96 13 17 12 15 18 -40 85 -31 39 -60 70 -64 70 -3
-1 -14 -3 -23 -6z"/>
<path d="M2408 3034 c-33 -17 -37 -49 -9 -64 47 -25 162 3 169 41 7 36 -107
52 -160 23z m80 -21 c37 -17 37 -17 10 -20 -31 -5 -71 13 -63 28 8 12 9 12 53
-8z"/>
<path d="M2830 3020 c-84 -31 -129 -70 -87 -78 33 -7 167 65 167 90 0 12 -19
9 -80 -12z m16 -25 c-19 -14 -56 -21 -56 -10 0 4 53 22 70 24 3 0 -4 -6 -14
-14z"/>
<path d="M4216 3009 c-16 -27 -21 -29 -49 -23 -29 6 -30 5 -18 -10 16 -19 63
-46 80 -46 15 0 64 87 56 100 -13 21 -51 10 -69 -21z"/>
<path d="M3071 2944 c-35 -41 -62 -77 -59 -79 2 -2 26 21 54 53 67 78 78 92
72 97 -2 2 -33 -29 -67 -71z"/>
<path d="M2606 2995 c-77 -27 -86 -65 -15 -65 62 0 158 48 143 71 -8 13 -84
10 -128 -6z m69 -25 c-3 -5 -22 -10 -41 -10 -19 0 -34 5 -34 10 0 6 18 10 41
10 24 0 38 -4 34 -10z"/>
<path d="M3976 2994 c-22 -13 -34 -14 -53 -5 -47 22 -46 5 2 -26 43 -28 51
-28 95 -2 32 20 33 22 15 35 -23 17 -23 17 -59 -2z"/>
<path d="M4363 2990 c-32 -13 -56 -55 -49 -85 7 -29 52 -55 96 -55 62 0 104
85 61 124 -23 21 -78 29 -108 16z m67 -49 c0 -11 -12 -29 -27 -41 -25 -19 -28
-20 -31 -5 -5 21 24 65 43 65 8 0 15 -9 15 -19z"/>
<path d="M2888 2955 c-36 -19 -69 -39 -73 -45 -9 -14 1 -13 43 9 20 10 42 17
47 14 6 -2 24 10 40 27 37 38 26 37 -57 -5z"/>
<path d="M3772 2978 c8 -25 99 -78 134 -78 45 0 53 19 20 45 -47 38 -163 62
-154 33z m113 -28 c16 -7 13 -9 -17 -9 -21 -1 -38 4 -38 9 0 12 27 12 55 0z"/>
<path d="M2267 2968 c-26 -14 -21 -23 27 -49 39 -20 42 -25 28 -35 -9 -7 -14
-16 -9 -20 9 -9 99 27 104 41 2 6 -20 22 -49 35 -29 13 -60 27 -69 31 -8 4
-23 3 -32 -3z"/>
<path d="M3520 2970 c0 -13 104 -116 132 -131 10 -5 18 -8 18 -6 0 1 -34 36
-75 76 -41 40 -75 67 -75 61z"/>
<path d="M1782 2947 c-12 -13 -22 -33 -22 -45 0 -63 63 -139 123 -149 29 -4
40 -1 61 20 33 33 33 67 0 117 -50 75 -121 100 -162 57z m85 -59 c42 -45 57
-75 41 -84 -15 -10 -88 69 -88 96 0 28 11 25 47 -12z"/>
<path d="M3610 2954 c0 -17 27 -49 73 -85 30 -24 42 -39 30 -35 -13 4 -23 3
-23 -2 0 -23 73 -101 112 -121 85 -42 74 23 -14 85 -29 20 -45 34 -36 31 10
-4 19 -3 22 1 8 13 -27 49 -88 91 -56 39 -76 48 -76 35z m90 -65 l25 -20 -32
16 c-18 8 -33 18 -33 20 0 10 16 4 40 -16z m89 -120 c18 -11 31 -22 28 -25 -6
-7 -63 22 -72 36 -10 16 7 12 44 -11z"/>
<path d="M990 2923 c-11 -15 -19 -31 -17 -37 2 -6 19 -58 38 -116 18 -58 64
-165 101 -239 59 -118 65 -136 52 -146 -14 -10 -13 -18 15 -73 l32 -63 24 18
c24 18 45 61 45 94 0 10 -21 50 -46 89 -68 106 -139 261 -176 387 -18 62 -36
113 -40 113 -4 0 -16 -12 -28 -27z"/>
<path d="M3060 2877 c-30 -40 -58 -78 -63 -85 -6 -7 -8 -15 -5 -17 5 -5 100
112 118 145 24 46 2 26 -50 -43z"/>
<path d="M4056 2924 c-14 -14 -14 -17 0 -39 21 -33 92 -59 125 -47 56 22 59
61 8 87 -37 20 -113 19 -133 -1z m112 -26 c-5 -15 -55 -35 -64 -25 -4 4 -1 13
6 22 15 18 64 21 58 3z"/>
<path d="M4592 2926 c-5 -6 -21 -32 -36 -58 -24 -43 -29 -46 -46 -36 -15 10
-22 10 -32 0 -11 -11 -6 -20 25 -48 32 -29 41 -33 53 -23 24 19 96 147 90 157
-9 15 -45 21 -54 8z"/>
<path d="M2705 2913 c-33 -8 -67 -21 -75 -30 -14 -14 -11 -15 27 -9 23 3 50 9
60 13 16 6 16 5 4 -10 -24 -29 4 -18 45 18 45 39 37 42 -61 18z"/>
<path d="M2938 2864 c-43 -36 -78 -70 -78 -75 0 -6 22 7 49 30 26 22 51 38 53
35 5 -5 31 27 52 64 12 20 5 15 -76 -54z"/>
<path d="M3481 2903 c14 -38 91 -151 106 -157 30 -12 2 50 -60 131 -43 58 -62
68 -46 26z m70 -80 c13 -16 12 -17 -3 -4 -17 13 -22 21 -14 21 2 0 10 -8 17
-17z"/>
<path d="M2447 2898 c-29 -16 -19 -26 36 -34 28 -4 46 -9 40 -11 -7 -3 -13 -9
-13 -14 0 -16 24 -10 64 17 29 20 35 29 25 34 -23 12 -134 18 -152 8z"/>
<path d="M2819 2860 c-41 -21 -81 -45 -88 -54 -17 -21 -12 -20 40 3 24 11 47
17 52 14 10 -6 54 33 68 60 5 9 8 17 7 17 -2 -1 -37 -18 -79 -40z"/>
<path d="M2104 2865 c-33 -33 -28 -63 15 -92 42 -29 95 -30 139 -3 49 30 42
67 -18 98 -59 30 -104 29 -136 -3z m109 -42 c29 -15 36 -33 12 -33 -30 0 -85
29 -85 45 0 18 22 14 73 -12z"/>
<path d="M3760 2882 c0 -5 12 -20 28 -35 19 -18 44 -29 85 -35 31 -5 57 -5 57
-1 0 12 -49 35 -91 43 -21 4 -42 13 -49 21 -13 16 -30 20 -30 7z"/>
<path d="M3910 2874 c0 -44 97 -94 155 -80 71 18 -23 96 -116 96 -29 0 -39 -4
-39 -16z m125 -34 c-3 -5 -19 -10 -35 -10 -16 0 -32 5 -35 10 -4 6 10 10 35
10 25 0 39 -4 35 -10z"/>
<path d="M3048 2807 c-52 -79 -72 -124 -59 -131 13 -9 48 35 85 107 35 67 44
97 29 97 -5 0 -29 -33 -55 -73z m-4 -47 c-10 -16 -20 -28 -22 -26 -4 5 28 56
35 56 2 0 -4 -13 -13 -30z"/>
<path d="M3395 2849 c5 -21 3 -34 -6 -39 -10 -7 -9 -25 5 -92 10 -45 24 -96
31 -113 l13 -30 1 26 c1 15 -5 45 -13 67 -8 22 -17 62 -20 89 l-6 48 18 -55
c24 -71 41 -102 52 -95 13 8 2 57 -32 148 -30 77 -56 106 -43 46z"/>
<path d="M4703 2856 c-36 -30 -73 -100 -73 -137 0 -34 42 -72 80 -72 75 0 151
147 107 206 -6 10 -28 20 -48 23 -28 5 -41 1 -66 -20z m63 -71 c-7 -26 -53
-85 -67 -85 -17 0 -9 37 17 76 42 61 64 65 50 9z"/>
<path d="M1645 2850 c-20 -22 -25 -13 82 -146 32 -39 32 -41 13 -50 -19 -8
-19 -11 -5 -31 9 -13 22 -23 30 -23 17 0 75 48 75 62 0 5 -24 38 -53 71 -30
34 -66 79 -81 100 -33 43 -37 44 -61 17z"/>
<path d="M3580 2850 c0 -22 116 -150 136 -150 17 0 17 4 0 38 -13 26 -118 132
-130 132 -3 0 -6 -9 -6 -20z m84 -69 c31 -34 3 -24 -30 10 -21 23 -23 29 -9
21 11 -5 29 -20 39 -31z"/>
<path d="M4223 2840 c-41 -25 -42 -51 -2 -84 59 -50 159 -24 159 42 0 28 -53
62 -95 62 -16 0 -45 -9 -62 -20z m107 -29 c0 -16 -43 -41 -70 -41 l-25 1 28
24 c28 25 67 34 67 16z"/>
<path d="M2924 2801 c-79 -63 -130 -141 -92 -141 34 0 156 141 146 170 -2 7
-25 -5 -54 -29z m-5 -47 c-13 -14 -33 -30 -44 -36 -11 -6 -2 8 19 31 22 22 42
38 45 36 2 -3 -6 -17 -20 -31z"/>
<path d="M2655 2814 c-27 -8 -60 -14 -71 -14 -12 0 -32 -9 -45 -21 l-24 -20
58 5 c38 4 56 3 52 -4 -3 -5 0 -10 7 -10 15 0 85 67 77 73 -2 2 -26 -2 -54 -9z"/>
<path d="M3500 2814 c0 -22 88 -166 111 -179 19 -12 5 17 -41 85 -22 32 -40
63 -40 68 0 4 -7 17 -15 28 -14 19 -14 19 -15 -2z"/>
<path d="M2371 2810 c-18 -4 -45 -20 -60 -34 -21 -21 -24 -30 -15 -44 12 -18
87 -28 129 -18 28 7 75 51 75 70 0 23 -75 39 -129 26z m48 -36 c17 -4 28 -10
25 -15 -7 -12 -91 -12 -98 0 -13 20 16 26 73 15z"/>
<path d="M3052 2719 c-29 -56 -51 -104 -48 -107 7 -7 6 -8 46 63 19 33 40 66
47 73 7 7 13 19 13 27 0 7 3 20 6 29 3 9 2 16 -2 16 -5 0 -33 -46 -62 -101z"/>
<path d="M2773 2772 c-59 -30 -123 -86 -123 -108 0 -24 45 -16 96 19 54 36 88
77 82 100 -2 13 -12 11 -55 -11z m12 -32 c-7 -11 -79 -50 -92 -50 -4 0 12 14
37 30 46 31 66 38 55 20z"/>
<path d="M4914 2748 c-35 -71 -77 -138 -86 -138 -5 0 -8 7 -8 15 0 19 -24 19
-40 1 -9 -12 -7 -24 8 -59 25 -57 39 -65 60 -37 43 58 94 139 119 188 27 52
28 53 9 68 -29 21 -33 19 -62 -38z"/>
<path d="M3864 2767 c-12 -33 39 -84 107 -106 42 -13 69 -6 69 18 0 48 -160
127 -176 88z m129 -56 c16 -16 -32 -13 -68 5 l-30 14 44 -4 c24 -2 48 -9 54
-15z"/>
<path d="M4043 2773 c-23 -9 -13 -41 22 -72 29 -26 44 -31 84 -31 79 0 95 44
32 87 -32 22 -104 30 -138 16z m127 -44 c0 -11 -42 -22 -65 -17 -24 5 -20 22
7 29 27 6 58 0 58 -12z"/>
<path d="M1980 2755 c-16 -20 -8 -29 61 -68 52 -30 59 -36 44 -45 -20 -10 -12
-32 11 -32 8 0 31 16 52 36 28 27 34 37 22 41 -8 4 -48 24 -88 45 -82 43 -85
44 -102 23z"/>
<path d="M3112 2748 c-17 -22 -49 -91 -67 -146 -13 -39 -14 -57 -6 -65 8 -8
15 -6 26 9 15 20 59 139 70 187 6 28 -5 36 -23 15z m-23 -107 c-12 -28 -24
-50 -26 -48 -2 2 6 27 18 56 12 28 24 50 26 48 2 -2 -6 -27 -18 -56z"/>
<path d="M3353 2670 c6 -91 21 -140 46 -148 18 -6 11 87 -14 176 -26 91 -39
79 -32 -28z m35 -75 c0 -16 -2 -15 -8 5 -4 14 -8 36 -8 50 0 22 1 22 8 -5 4
-16 8 -39 8 -50z"/>
<path d="M4369 2735 c-45 -30 -54 -51 -34 -81 41 -62 112 -68 167 -14 36 36
36 72 2 99 -36 29 -90 27 -135 -4z m105 -24 c8 -13 -52 -61 -76 -61 -27 0 -18
20 22 48 36 24 46 27 54 13z"/>
<path d="M3620 2732 c0 -21 136 -159 146 -149 4 4 -23 38 -59 76 -37 38 -67
74 -67 80 0 6 -4 11 -10 11 -5 0 -10 -8 -10 -18z"/>
<path d="M1506 2718 c-14 -20 -14 -24 3 -51 10 -16 48 -62 84 -102 57 -62 64
-75 52 -85 -19 -16 -19 -20 5 -50 l19 -25 35 34 c20 19 36 41 36 49 0 8 -38
54 -84 103 -47 49 -93 102 -102 119 -22 36 -28 37 -48 8z"/>
<path d="M2881 2664 c-64 -68 -86 -102 -63 -92 27 10 132 118 137 141 4 15 5
27 2 27 -3 0 -37 -34 -76 -76z"/>
<path d="M3500 2706 c0 -14 17 -57 38 -97 54 -105 99 -126 68 -32 -18 53 -81
153 -96 153 -6 0 -10 -11 -10 -24z m69 -88 c13 -21 19 -38 14 -38 -9 0 -53 71
-53 86 0 11 13 -5 39 -48z"/>
<path d="M859 2703 c-21 -25 -16 -154 10 -248 29 -103 96 -245 168 -354 92
-138 227 -260 270 -244 45 18 -20 185 -177 453 -37 63 -86 151 -110 195 -105
196 -134 231 -161 198z m154 -330 c42 -71 105 -172 138 -226 34 -54 58 -101
54 -105 -12 -13 -129 122 -179 208 -47 79 -105 210 -106 238 0 30 20 4 93
-115z"/>
<path d="M3135 2674 c-19 -51 -55 -165 -55 -176 0 -5 4 -8 8 -8 5 0 16 26 26
58 10 31 27 76 37 99 10 23 19 49 19 57 0 31 -18 15 -35 -30z"/>
<path d="M3318 2714 c-9 -15 10 -226 21 -237 7 -7 8 25 4 99 -6 108 -15 156
-25 138z"/>
<path d="M5040 2683 c-50 -45 -115 -152 -131 -216 -19 -76 15 -130 70 -112 31
10 117 110 145 169 35 73 36 158 4 180 -32 23 -43 20 -88 -21z m50 -69 c0 -46
-109 -200 -124 -176 -12 19 92 192 115 192 5 0 9 -7 9 -16z"/>
<path d="M2575 2695 c-27 -7 -68 -16 -90 -21 -27 -6 -41 -15 -43 -28 -3 -16 0
-18 24 -13 104 20 105 20 98 2 -7 -16 -6 -16 18 -1 24 16 56 62 47 69 -2 2
-26 -1 -54 -8z"/>
<path d="M3760 2696 c0 -27 40 -63 104 -94 77 -38 80 -38 66 -12 -6 11 -36 33
-68 49 -31 16 -63 39 -70 50 -14 24 -32 28 -32 7z"/>
<path d="M3182 2684 c-12 -23 -38 -115 -46 -165 -12 -69 15 -93 40 -34 33 81
40 263 6 199z m-2 -104 c-10 -55 -20 -77 -20 -46 0 23 22 108 26 103 2 -2 0
-28 -6 -57z"/>
<path d="M3270 2675 c-15 -39 -18 -211 -4 -225 8 -8 15 -6 25 6 10 13 13 43
12 116 -3 114 -15 151 -33 103z m11 -148 c-13 -13 -15 50 -3 80 5 13 8 5 10
-26 2 -24 -2 -49 -7 -54z"/>
<path d="M2730 2659 c-60 -32 -120 -89 -120 -114 0 -22 27 -30 55 -17 60 28
148 133 128 153 -4 4 -33 -5 -63 -22z m20 -34 c0 -6 -73 -55 -83 -55 -15 0 4
21 37 41 31 19 46 23 46 14z"/>
<path d="M3226 2663 c-12 -65 -27 -215 -22 -220 12 -12 17 6 27 83 5 44 12 95
15 115 7 43 -12 63 -20 22z"/>
<path d="M2215 2663 c-24 -23 -7 -34 64 -40 33 -3 61 -10 61 -14 0 -5 -4 -9
-10 -9 -5 0 -10 -4 -10 -10 0 -23 41 -7 70 28 l30 37 -67 7 c-38 4 -80 9 -95
12 -18 3 -33 0 -43 -11z"/>
<path d="M2909 2613 c-62 -65 -89 -106 -89 -137 0 -19 5 -26 19 -26 37 0 125
137 119 185 -3 26 -4 25 -49 -22z m3 -50 c-11 -15 -30 -37 -43 -48 -20 -17
-19 -14 5 20 45 62 49 66 54 61 2 -3 -5 -17 -16 -33z"/>
<path d="M3951 2641 c-12 -8 -12 -14 -1 -40 16 -39 51 -68 98 -81 71 -19 104
13 67 66 -26 38 -134 74 -164 55z m105 -51 c17 -7 24 -14 18 -20 -11 -11 -80
5 -89 20 -8 13 37 13 71 0z"/>
<path d="M1868 2623 c-28 -33 -31 -61 -8 -97 24 -39 91 -76 138 -76 43 0 85
38 85 78 0 40 -13 55 -76 87 -60 29 -117 33 -139 8z m116 -66 c47 -26 58 -47
24 -47 -27 0 -100 40 -106 58 -6 20 39 14 82 -11z"/>
<path d="M3490 2618 c0 -26 79 -198 92 -198 15 0 8 25 -24 85 -17 33 -34 75
-37 94 -7 40 -31 55 -31 19z"/>
<path d="M4140 2625 c0 -9 7 -30 16 -46 14 -28 19 -30 52 -24 55 9 132 35 132
45 0 4 -7 13 -15 20 -12 10 -27 9 -75 -3 -56 -14 -60 -13 -76 4 -21 23 -34 24
-34 4z"/>
<path d="M4571 2590 c-66 -53 -81 -59 -81 -35 0 9 -9 15 -21 15 -19 0 -21 -4
-16 -37 4 -20 13 -44 22 -52 13 -14 18 -13 48 3 42 25 130 94 139 111 4 7 0
19 -11 29 -17 15 -22 13 -80 -34z"/>
<path d="M3640 2610 c0 -32 34 -91 76 -132 38 -39 58 -46 69 -27 14 21 -6 59
-61 119 -58 62 -84 75 -84 40z m105 -109 c-7 -6 -54 39 -67 64 -6 11 8 2 31
-19 22 -22 38 -42 36 -45z"/>
<path d="M5216 2514 c-25 -48 -68 -117 -94 -153 l-47 -66 -5 32 c-5 32 -5 32
-28 14 -16 -11 -27 -34 -33 -65 -9 -50 -2 -126 11 -126 12 0 106 106 154 174
24 33 65 99 90 145 l47 85 -24 24 -24 24 -47 -88z"/>
<path d="M2485 2556 c-97 -30 -105 -33 -105 -51 0 -19 20 -19 87 -1 44 12 51
12 46 0 -9 -25 14 -15 41 17 28 33 34 60 14 58 -7 -1 -44 -11 -83 -23z"/>
<path d="M3808 2568 c-18 -49 80 -148 147 -148 54 0 20 77 -55 125 -50 32 -86
41 -92 23z m82 -58 c40 -20 60 -40 40 -40 -17 0 -65 27 -79 44 -18 21 -8 20
39 -4z"/>
<path d="M2682 2525 c-59 -45 -90 -91 -78 -120 20 -54 176 71 176 142 0 36
-31 29 -98 -22z m58 -13 c0 -10 -80 -72 -93 -72 -15 0 23 40 58 61 34 22 35
22 35 11z"/>
<path d="M2913 2483 c-35 -51 -63 -97 -63 -103 0 -22 21 -8 52 38 18 26 43 57
56 69 17 16 23 30 20 55 -3 32 -4 31 -65 -59z"/>
<path d="M1394 2525 c-8 -42 19 -79 133 -184 68 -63 74 -71 63 -91 -10 -19 -8
-26 11 -46 29 -31 41 -30 62 5 34 59 25 83 -62 155 -44 37 -103 95 -132 131
-29 36 -56 65 -60 65 -5 0 -11 -16 -15 -35z"/>
<path d="M3454 2547 c-15 -40 39 -208 71 -221 41 -15 36 74 -9 163 -30 58 -53
80 -62 58z m55 -109 c11 -32 18 -58 15 -58 -8 0 -44 83 -44 104 0 27 4 20 29
-46z"/>
<path d="M2127 2510 c-7 -27 4 -32 84 -38 63 -4 68 -6 58 -23 -8 -16 -6 -19
13 -19 25 0 76 67 61 80 -4 4 -54 11 -109 14 -96 6 -102 6 -107 -14z"/>
<path d="M3641 2502 c-13 -24 24 -84 93 -152 40 -38 46 -41 46 -23 0 12 -22
46 -50 76 -27 30 -50 64 -50 75 0 11 -6 25 -14 31 -12 10 -17 8 -25 -7z"/>
<path d="M4258 2509 c-32 -18 -40 -46 -23 -79 20 -39 43 -50 105 -50 44 0 56
5 81 29 32 32 31 50 -4 89 -17 18 -31 22 -81 22 -34 0 -69 -5 -78 -11z m129
-45 c5 -15 -48 -36 -81 -32 -40 5 -36 21 9 35 46 13 67 13 72 -3z"/>
<path d="M4627 2479 c-64 -45 -88 -81 -80 -121 13 -66 86 -81 157 -31 79 56
108 131 66 173 -32 32 -79 26 -143 -21z m103 -33 c0 -31 -109 -101 -127 -82
-8 8 25 44 67 72 41 27 60 30 60 10z"/>
<path d="M4018 2499 c-28 -16 -21 -48 20 -89 63 -64 162 -65 162 -1 0 28 -26
59 -65 78 -32 16 -99 23 -117 12z m126 -62 c16 -12 17 -15 4 -20 -19 -7 -87 8
-101 22 -17 17 75 14 97 -2z"/>
<path d="M2976 2438 c-63 -116 -75 -141 -70 -150 9 -14 22 0 55 63 18 33 41
65 51 70 19 10 27 79 8 79 -5 0 -25 -28 -44 -62z"/>
<path d="M3400 2471 c0 -17 51 -204 60 -220 8 -14 9 -14 16 2 3 10 -3 52 -16
93 -12 41 -19 81 -16 89 8 23 -4 45 -25 45 -10 0 -19 -4 -19 -9z"/>
<path d="M1776 2445 c-4 -14 -4 -31 0 -37 6 -9 53 -32 150 -73 32 -13 35 -17
23 -31 -11 -14 -10 -18 6 -30 10 -8 22 -14 26 -14 11 0 39 48 45 78 6 27 3 30
-58 52 -34 12 -89 36 -120 51 -32 16 -59 29 -62 29 -2 0 -7 -11 -10 -25z"/>
<path d="M2459 2444 c-121 -37 -153 -157 -38 -141 69 9 139 72 139 125 0 34
-29 39 -101 16z m56 -44 c-9 -14 -81 -50 -100 -50 -22 0 -18 17 7 31 45 24
104 36 93 19z"/>
<path d="M2696 2386 c-53 -49 -77 -78 -75 -91 3 -15 15 -9 66 34 41 35 64 48
69 40 11 -19 34 20 34 58 0 18 -3 33 -7 33 -5 -1 -43 -34 -87 -74z"/>
<path d="M5340 2424 c-55 -50 -222 -274 -264 -354 -39 -76 -49 -120 -36 -156
9 -22 14 -25 38 -19 99 25 275 235 329 394 27 78 29 119 7 149 -20 29 -27 28
-74 -14z m-22 -191 c-65 -108 -176 -228 -195 -210 -10 11 125 199 199 277 38
40 36 -1 -4 -67z"/>
<path d="M3020 2341 c-38 -99 -44 -131 -21 -131 4 0 20 36 35 79 15 44 34 82
42 85 18 7 18 50 1 65 -11 9 -22 -10 -57 -98z"/>
<path d="M3339 2413 c-12 -31 -5 -145 11 -188 13 -34 39 -43 57 -19 18 24 11
111 -14 179 -21 58 -39 67 -54 28z m44 -110 c3 -24 2 -43 -3 -43 -8 0 -20 61
-19 100 0 23 1 23 8 5 5 -11 11 -39 14 -62z"/>
<path d="M3825 2430 c-22 -36 60 -141 121 -156 29 -8 57 5 62 27 10 57 -155
174 -183 129z m94 -65 c47 -29 59 -45 33 -45 -21 0 -105 69 -84 70 7 0 30 -11
51 -25z"/>
<path d="M3126 2401 c-3 -5 -17 -55 -31 -112 -17 -71 -22 -106 -14 -114 15
-15 26 9 40 88 7 38 18 71 26 74 14 5 17 31 7 57 -7 18 -20 21 -28 7z"/>
<path d="M3611 2391 c-26 -48 64 -206 113 -199 45 6 29 78 -36 161 -41 51 -64
63 -77 38z m95 -123 c8 -16 10 -28 5 -28 -13 0 -71 84 -71 102 1 15 44 -34 66
-74z"/>
<path d="M3183 2363 c-9 -23 -16 -70 -17 -117 -1 -64 2 -80 16 -90 32 -20 52
15 56 99 7 136 -20 190 -55 108z m17 -150 c-9 -14 -10 -7 -6 31 3 27 7 61 8
75 1 14 3 0 5 -31 2 -32 -1 -66 -7 -75z"/>
<path d="M3277 2393 c-4 -3 -7 -58 -7 -120 0 -98 2 -114 16 -111 12 2 16 24
18 121 2 84 -1 117 -9 117 -6 0 -15 -3 -18 -7z"/>
<path d="M2080 2335 c0 -22 4 -25 39 -25 79 0 131 -12 129 -29 -5 -26 35 -19
48 9 34 73 39 70 -95 70 l-121 0 0 -25z"/>
<path d="M2750 2314 c-89 -83 -113 -152 -59 -169 57 -18 169 140 138 196 -14
28 -24 24 -79 -27z m39 -36 c-14 -28 -60 -78 -71 -78 -17 0 -7 21 28 60 40 44
61 53 43 18z"/>
<path d="M4040 2326 c-12 -34 -5 -52 28 -65 39 -15 112 -30 150 -31 29 0 33 3
30 22 -3 23 -6 24 -118 45 -35 6 -45 12 -45 28 0 30 -33 31 -45 1z"/>
<path d="M4801 2295 c-36 -29 -77 -60 -93 -69 -28 -17 -28 -17 -28 9 0 23 -3
25 -22 19 -30 -9 -29 -7 -38 -53 -10 -56 -2 -94 19 -86 37 14 175 102 217 140
44 38 45 41 33 68 -7 15 -15 27 -18 26 -3 0 -35 -24 -70 -54z"/>
<path d="M4297 2333 c-12 -12 -7 -80 6 -91 10 -8 38 -6 105 8 105 21 112 24
112 51 0 29 -23 33 -95 15 -81 -20 -85 -20 -85 4 0 20 -28 28 -43 13z"/>
<path d="M824 2264 c8 -96 25 -139 99 -253 116 -177 245 -318 412 -450 68 -55
96 -85 120 -128 24 -46 44 -67 103 -106 40 -27 75 -47 78 -45 6 7 -74 147
-133 233 -33 48 -68 83 -113 114 -179 125 -386 368 -520 611 l-52 95 6 -71z"/>
<path d="M1336 2294 c-16 -43 -5 -67 59 -129 35 -35 100 -87 144 -116 71 -48
79 -57 74 -80 -4 -20 2 -32 28 -53 23 -20 35 -24 43 -16 16 16 14 142 -1 147
-34 12 -168 109 -250 181 -69 61 -93 77 -97 66z"/>
<path d="M2505 2287 c-22 -13 -64 -32 -92 -44 -44 -18 -53 -26 -53 -47 0 -33
10 -32 93 8 59 29 67 30 67 14 0 -25 16 -23 34 4 19 27 21 88 4 87 -7 0 -31
-10 -53 -22z"/>
<path d="M3563 2293 c-21 -8 -15 -31 24 -101 50 -92 73 -123 84 -117 17 11 9
38 -31 100 -25 41 -38 73 -37 91 2 28 -13 39 -40 27z"/>
<path d="M3817 2293 c-26 -25 9 -104 66 -147 89 -68 158 -4 85 79 -47 54 -129
91 -151 68z m91 -72 c49 -36 59 -51 35 -51 -20 0 -93 56 -93 71 0 16 15 10 58
-20z"/>
<path d="M1730 2226 c0 -31 4 -35 53 -56 28 -13 77 -31 107 -40 46 -14 55 -20
55 -40 0 -27 39 -50 56 -33 5 5 12 32 16 61 l6 51 -44 11 c-24 6 -62 16 -83
21 -21 6 -64 21 -94 35 -30 13 -58 24 -63 24 -5 0 -9 -15 -9 -34z"/>
<path d="M2806 2170 c-36 -50 -66 -94 -66 -99 0 -5 6 -14 14 -21 12 -9 23 1
61 59 27 40 52 68 59 65 22 -8 34 18 24 54 -5 17 -13 32 -17 32 -5 0 -39 -41
-75 -90z"/>
<path d="M3482 2208 c-41 -41 23 -228 79 -228 61 0 52 117 -17 207 -27 35 -43
40 -62 21z m48 -69 c25 -45 40 -101 27 -97 -12 4 -40 54 -52 96 -8 28 10 29
25 1z"/>
<path d="M5463 2168 c-80 -125 -307 -388 -334 -388 -5 0 0 18 11 41 12 23 20
43 18 45 -2 2 -20 -8 -40 -21 -48 -33 -184 -263 -166 -281 8 -8 168 111 252
188 123 113 301 335 306 384 4 39 0 74 -10 74 -5 0 -22 -19 -37 -42z"/>
<path d="M2255 2189 c-22 -4 -67 -8 -100 -9 -71 0 -88 -9 -83 -41 3 -24 4 -24
101 -20 88 3 97 2 91 -14 -6 -14 -2 -16 22 -13 28 3 29 5 29 52 0 27 -4 50
-10 51 -5 2 -28 -1 -50 -6z"/>
<path d="M4400 2185 c-94 -23 -127 -93 -69 -150 21 -21 87 -27 141 -12 48 13
98 65 98 101 0 40 -9 52 -43 65 -35 14 -57 13 -127 -4z m108 -67 c-6 -18 -76
-40 -113 -36 -37 4 -40 29 -5 39 45 13 122 10 118 -3z"/>
<path d="M2918 2158 c-42 -44 -68 -104 -68 -156 0 -35 4 -44 22 -51 12 -4 30
-6 40 -3 25 6 65 76 79 139 11 45 10 55 -5 77 -22 34 -32 33 -68 -6z m30 -65
c-12 -43 -39 -93 -50 -93 -14 0 -9 23 17 78 28 61 48 70 33 15z"/>
<path d="M4042 2178 c-7 -7 -12 -27 -12 -46 0 -85 147 -143 213 -85 42 38 3
112 -69 132 -52 14 -117 14 -132 -1z m143 -67 l30 -16 -42 -3 c-43 -3 -103 20
-103 39 0 15 76 1 115 -20z"/>
<path d="M2512 2158 c-91 -44 -130 -119 -84 -161 36 -33 91 -19 149 36 45 42
60 90 39 122 -20 30 -46 31 -104 3z m58 -58 c-20 -38 -110 -79 -110 -50 0 16
107 84 118 74 2 -1 -2 -12 -8 -24z"/>
<path d="M4878 2170 c-77 -23 -215 -126 -243 -181 -23 -43 -19 -86 9 -104 20
-14 31 -14 68 -5 63 18 114 46 165 93 79 73 106 159 61 191 -25 18 -22 17 -60
6z m12 -91 c0 -30 -134 -119 -180 -119 -47 0 -1 44 104 99 63 34 76 37 76 20z"/>
<path d="M3777 2152 c-10 -10 -17 -23 -17 -29 0 -12 104 -112 143 -138 24 -16
30 -16 38 -4 16 25 10 35 -56 83 -66 48 -75 61 -52 69 9 3 9 7 -2 20 -18 22
-34 21 -54 -1z"/>
<path d="M3383 2108 c13 -92 40 -190 54 -195 32 -13 35 14 10 99 -20 68 -22
84 -10 86 8 2 13 13 11 25 -2 17 -11 23 -37 25 l-34 3 6 -43z"/>
<path d="M3040 2106 c-33 -88 -61 -199 -52 -208 22 -22 40 3 59 79 15 60 23
77 35 75 25 -4 33 36 12 59 -23 26 -43 24 -54 -5z"/>
<path d="M3274 2109 c-3 -6 -3 -62 1 -125 7 -113 7 -114 32 -114 24 0 25 2 19
43 -19 141 -19 148 -2 141 25 -10 20 32 -6 50 -27 19 -35 20 -44 5z"/>
<path d="M3156 2088 c-12 -57 -27 -208 -21 -218 9 -15 32 -12 39 6 3 9 6 32 6
52 0 63 12 112 26 112 20 0 17 40 -3 56 -26 20 -42 17 -47 -8z"/>
<path d="M2635 2012 c-22 -20 -62 -55 -89 -78 -44 -36 -48 -42 -37 -62 6 -12
17 -22 24 -22 6 0 40 28 75 62 58 58 63 61 68 41 5 -19 10 -21 25 -12 10 5 19
16 19 24 0 17 -31 85 -39 85 -3 0 -24 -17 -46 -38z"/>
<path d="M3700 2033 c-19 -14 -22 -23 -18 -64 12 -118 149 -193 190 -104 15
34 -9 82 -69 135 -52 46 -75 53 -103 33z m82 -83 c55 -59 51 -94 -6 -49 -23
18 -56 67 -56 84 0 16 28 0 62 -35z"/>
<path d="M2200 2028 c-84 -24 -104 -86 -46 -144 30 -30 40 -34 86 -34 92 0
154 46 152 113 -1 49 -40 77 -105 76 -29 0 -68 -5 -87 -11z m130 -63 c0 -29
-99 -62 -132 -44 -26 14 -14 26 40 43 62 19 92 20 92 1z"/>
<path d="M4001 2004 c-33 -42 -27 -60 32 -87 59 -28 141 -57 161 -57 14 0 26
21 26 45 0 7 -35 24 -85 39 -80 25 -101 39 -72 49 9 3 9 7 -2 20 -19 24 -36
21 -60 -9z"/>
<path d="M1753 1980 c4 -18 12 -39 18 -46 11 -13 108 -38 197 -49 46 -6 52
-10 52 -31 0 -22 25 -44 49 -44 14 0 14 80 2 114 -8 20 -19 26 -58 31 -45 5
-189 36 -242 51 -23 7 -24 5 -18 -26z"/>
<path d="M1377 1983 c-17 -16 -5 -84 24 -142 46 -92 148 -190 252 -241 176
-87 250 -41 157 98 -47 70 -95 111 -226 193 -132 83 -190 109 -207 92z m224
-193 c52 -28 108 -63 124 -78 l30 -27 -33 -3 c-45 -4 -148 45 -206 98 -84 77
-50 81 85 10z"/>
<path d="M4306 1947 c-13 -17 -29 -44 -35 -59 -10 -26 -9 -27 37 -34 44 -7
233 9 253 22 5 3 9 19 9 36 l0 31 -52 -7 c-29 -3 -79 -9 -112 -13 l-58 -6 12
23 c10 18 9 24 -1 31 -21 13 -26 11 -53 -24z"/>
<path d="M2755 1931 c-49 -20 -115 -108 -115 -154 0 -36 41 -77 76 -77 61 0
123 68 131 144 5 38 2 48 -20 70 -27 27 -39 30 -72 17z m35 -66 c0 -46 -66
-123 -86 -102 -7 7 24 67 49 95 24 26 37 28 37 7z"/>
<path d="M3576 1917 c-17 -13 -17 -16 12 -73 34 -66 88 -144 100 -144 5 0 17
6 27 14 18 13 17 17 -32 88 -45 64 -49 75 -35 84 9 6 13 17 9 27 -8 21 -55 23
-81 4z"/>
<path d="M5454 1882 c-21 -16 -79 -66 -129 -112 -49 -46 -182 -160 -295 -253
-220 -184 -325 -282 -359 -337 -34 -56 -30 -63 39 -58 77 6 249 90 370 181
205 155 402 407 434 554 11 49 -13 59 -60 25z m-119 -243 c-42 -81 -276 -273
-407 -334 -122 -57 -90 -14 82 110 63 46 162 122 220 168 58 47 108 86 113 86
4 1 0 -13 -8 -30z"/>
<path d="M4915 1874 c-48 -30 -155 -85 -208 -108 l-39 -16 21 35 20 35 -25 0
c-16 0 -36 -12 -54 -32 -35 -38 -87 -134 -78 -143 20 -20 346 119 396 169 15
15 28 86 16 86 -5 0 -27 -12 -49 -26z"/>
<path d="M3924 1855 c-43 -18 -61 -63 -40 -103 26 -50 80 -85 139 -90 46 -3
56 0 84 25 42 38 48 63 22 97 -23 29 -97 70 -144 79 -16 3 -44 0 -61 -8z m84
-69 c80 -41 95 -74 28 -62 -39 8 -96 50 -96 72 0 20 13 18 68 -10z"/>
<path d="M2430 1839 c-19 -10 -69 -32 -110 -50 -41 -17 -79 -35 -84 -40 -6 -5
1 -20 18 -38 l29 -30 89 45 c85 43 90 44 95 25 5 -21 28 -27 50 -13 9 6 6 21
-11 59 -13 28 -28 53 -32 56 -5 3 -25 -3 -44 -14z"/>
<path d="M2886 1766 c-61 -131 -61 -131 -30 -144 14 -7 29 -10 33 -7 5 2 19
33 31 67 35 94 39 101 55 88 18 -15 35 -5 35 20 0 17 -56 70 -74 70 -4 0 -26
-42 -50 -94z"/>
<path d="M3425 1835 c-18 -17 -25 -35 -25 -63 0 -127 97 -206 167 -136 22 22
24 31 19 67 -8 49 -47 120 -78 142 -32 21 -55 19 -83 -10z m76 -76 c35 -67 24
-118 -14 -67 -24 32 -36 113 -17 106 8 -2 22 -20 31 -39z"/>
<path d="M3077 1799 c-29 -17 -57 -88 -57 -146 0 -44 4 -55 26 -72 38 -30 94
-28 125 5 21 22 24 35 24 94 0 54 -4 75 -21 97 -23 31 -66 40 -97 22z m56
-104 c-2 -48 -19 -89 -34 -80 -13 8 -11 102 2 127 17 31 34 5 32 -47z"/>
<path d="M3255 1798 c-3 -7 1 -62 8 -123 l12 -110 34 -3 34 -3 -6 58 c-4 32
-10 75 -13 96 -6 34 -5 38 12 35 32 -5 31 40 -1 52 -36 14 -75 13 -80 -2z"/>
<path d="M4254 1761 c-80 -37 -107 -106 -58 -152 23 -22 34 -24 113 -24 79 0
92 3 130 28 74 49 102 121 59 151 -33 24 -190 22 -244 -3z m162 -61 c34 -13
22 -28 -32 -40 -41 -9 -119 1 -137 19 -25 25 112 42 169 21z"/>
<path d="M1868 1691 c50 -80 37 -75 174 -67 l123 7 12 -30 c9 -25 17 -31 42
-31 39 0 39 11 1 88 l-31 60 -169 0 -169 1 17 -28z"/>
<path d="M3785 1706 c-74 -34 -74 -34 12 -117 104 -102 113 -106 153 -73 l31
26 -69 49 c-84 59 -103 79 -75 79 28 0 34 9 20 31 -14 22 -31 23 -72 5z"/>
<path d="M2515 1684 c-92 -47 -120 -117 -67 -166 79 -76 196 -60 244 34 25 48
17 89 -24 123 -35 30 -105 34 -153 9z m113 -58 c5 -22 -70 -96 -97 -96 -27 0
-38 25 -20 47 22 27 92 74 103 70 6 -2 12 -11 14 -21z"/>
<path d="M4735 1619 c-145 -49 -248 -103 -310 -163 -43 -42 -55 -61 -55 -85 0
-38 22 -51 87 -51 66 0 154 24 227 63 81 42 190 150 205 202 20 74 -14 81
-154 34z m45 -99 c0 -30 -179 -100 -256 -100 -81 0 -48 26 96 76 95 32 160 42
160 24z"/>
<path d="M3560 1582 c-19 -9 -39 -29 -44 -43 -22 -63 30 -156 99 -179 64 -21
175 32 175 84 0 55 -111 156 -171 156 -13 0 -40 -8 -59 -18z m96 -79 c38 -41
51 -70 37 -84 -25 -25 -103 51 -103 99 0 33 28 27 66 -15z"/>
<path d="M2755 1492 c-33 -53 -61 -102 -63 -108 -3 -12 48 -34 79 -34 13 0 30
22 55 73 20 39 38 74 41 77 2 2 13 -2 25 -9 18 -11 23 -10 40 7 20 19 19 20
-38 56 -32 20 -63 36 -69 36 -5 0 -37 -44 -70 -98z"/>
<path d="M4079 1542 c-53 -32 -104 -71 -98 -76 14 -12 152 -60 208 -72 96 -20
106 -19 140 24 l31 37 -47 7 c-131 20 -183 30 -188 37 -2 5 7 14 20 21 30 16
31 26 6 40 -25 13 -18 14 -72 -18z"/>
<path d="M1589 1481 c52 -76 90 -107 154 -126 63 -19 208 -45 249 -45 22 0 42
-12 75 -45 37 -38 50 -45 84 -45 50 0 47 7 -55 116 l-75 81 -72 7 c-98 10
-240 47 -323 85 -38 17 -71 31 -73 31 -2 0 14 -26 36 -59z"/>
<path d="M3323 1523 c-29 -6 -29 -37 1 -158 l22 -90 39 3 c68 5 68 4 35 92
-17 45 -30 86 -30 91 0 5 12 8 28 7 21 -2 28 2 30 19 2 14 -3 23 -15 26 -33 9
-88 14 -110 10z"/>
<path d="M2185 1511 c-110 -27 -124 -74 -45 -151 101 -98 260 -121 338 -48 79
75 -59 210 -211 207 -29 -1 -65 -4 -82 -8z m207 -85 c17 -26 -63 -76 -121 -76
-16 0 -39 8 -51 18 l-22 18 24 16 c61 40 152 53 170 24z"/>
<path d="M3016 1499 c-36 -28 -56 -70 -56 -116 0 -71 52 -113 139 -113 70 0
99 14 117 55 22 54 9 112 -36 158 -34 33 -43 37 -87 37 -36 0 -58 -6 -77 -21z
m104 -55 c15 -39 12 -79 -8 -105 -29 -35 -52 -19 -52 35 0 82 39 127 60 70z"/>
<path d="M1144 1465 c62 -105 255 -319 336 -370 167 -109 382 -193 553 -219
83 -12 107 -21 160 -54 107 -68 142 -81 219 -88 l73 -6 -105 60 c-58 32 -169
98 -247 146 -124 76 -153 89 -242 111 -239 59 -460 180 -673 368 -63 56 -86
72 -74 52z"/>
<path d="M3781 1347 c-88 -46 -101 -100 -40 -158 81 -76 269 -57 359 36 30 31
32 37 22 60 -33 71 -249 111 -341 62z m144 -61 c83 -38 98 -76 29 -76 -55 0
-144 54 -144 87 0 21 59 15 115 -11z"/>
<path d="M2620 1282 c-25 -26 -70 -69 -99 -95 l-55 -46 57 -25 c100 -45 95
-46 161 39 33 41 61 75 64 75 3 0 20 -10 39 -21 33 -20 35 -20 53 -4 11 10 20
21 20 25 0 6 -178 100 -190 100 -4 0 -26 -22 -50 -48z"/>
<path d="M4203 1220 c-117 -59 -163 -87 -163 -98 0 -20 129 -37 275 -37 172 1
181 4 260 85 43 44 47 51 25 46 -14 -3 -45 -10 -70 -16 -25 -6 -99 -13 -165
-16 l-120 -5 40 25 c22 14 46 29 54 33 10 7 7 11 -12 20 -24 11 -37 7 -124
-37z"/>
<path d="M3420 1231 c-23 -4 -34 -11 -32 -21 5 -25 82 -173 103 -199 l19 -23
75 17 c41 9 75 20 75 24 0 4 -15 22 -34 40 -19 18 -48 53 -66 77 l-31 44 45 0
c42 0 46 2 46 25 0 25 -1 25 -82 24 -46 -1 -99 -5 -118 -8z"/>
<path d="M5145 1214 c-48 -40 -194 -128 -301 -182 -114 -57 -201 -90 -335
-126 -102 -27 -102 -19 1 34 30 16 64 35 75 44 19 15 18 15 -23 16 -32 0 -71
-14 -160 -58 -64 -33 -186 -88 -269 -123 -184 -77 -180 -84 42 -75 222 8 395
53 619 159 127 61 194 114 315 245 81 90 96 116 36 66z"/>
<path d="M2956 1202 c-64 -44 -84 -116 -46 -165 59 -75 286 -97 365 -36 51 41
24 133 -56 186 -37 24 -53 28 -138 31 -82 3 -100 0 -125 -16z m174 -47 c7 -8
15 -36 18 -62 4 -37 1 -49 -13 -60 -50 -36 -101 2 -92 67 3 23 11 47 17 55 16
19 54 19 70 0z"/>
<path d="M2093 1141 c-80 -21 -81 -52 -7 -120 107 -98 340 -191 476 -191 126
0 187 73 123 148 -31 38 -185 114 -285 142 -82 23 -254 35 -307 21z m397 -116
c25 -23 25 -37 1 -59 -46 -42 -183 -39 -226 4 -17 18 -18 22 -5 35 22 21 119
45 168 41 24 -2 52 -12 62 -21z"/>
<path d="M3707 994 c-101 -22 -178 -54 -209 -85 -33 -33 -35 -48 -7 -83 30
-38 73 -57 153 -67 174 -22 466 62 530 152 15 22 15 25 -2 41 -47 47 -329 73
-465 42z m146 -75 c34 -11 73 -27 86 -36 39 -25 6 -47 -77 -51 -58 -3 -74 0
-122 25 -55 28 -75 58 -48 74 23 15 97 10 161 -12z"/>
<path d="M2926 826 c-16 -64 -27 -118 -25 -120 4 -5 127 -21 232 -31 46 -5 67
-3 67 4 0 6 -9 44 -20 83 -29 105 -31 101 50 93 71 -7 100 1 100 29 0 12 -156
38 -311 52 l-64 6 -29 -116z"/>
<path d="M2930 609 c-6 -24 -22 -77 -35 -118 -14 -41 -24 -76 -22 -77 2 -2 47
-9 100 -15 111 -13 624 -7 671 8 28 9 27 10 -30 22 -85 19 -171 56 -232 100
l-53 38 147 7 c162 8 174 11 174 36 0 16 -23 18 -302 23 -167 4 -326 10 -355
13 l-52 6 -11 -43z"/>
<path d="M4541 6475 c3 -2 70 -25 149 -51 l145 -46 110 -107 c61 -58 205 -198
320 -311 116 -113 260 -250 320 -305 61 -54 151 -139 202 -189 51 -49 94 -88
97 -85 6 6 -192 268 -320 421 -61 73 -191 220 -289 326 -171 186 -180 194
-263 236 -48 24 -128 60 -178 80 -84 33 -99 36 -194 36 -57 0 -101 -2 -99 -5z"/>
<path d="M4923 6450 c113 -49 194 -71 222 -60 25 9 25 10 10 46 -8 20 -15 38
-15 40 0 2 -64 4 -142 4 l-143 -1 68 -29z"/>
<path d="M5359 6467 c14 -6 89 -102 168 -212 79 -110 156 -213 171 -228 30
-32 233 -190 237 -185 2 2 -84 136 -191 298 -118 181 -206 304 -225 318 -26
18 -45 22 -108 22 -67 0 -73 -2 -52 -13z"/>
<path d="M5836 6403 c56 -96 65 -106 134 -153 110 -74 109 -74 42 52 -105 197
-88 178 -159 178 l-63 0 46 -77z"/>
<path d="M6071 6463 c37 -50 66 -74 99 -83 35 -9 39 -16 141 -222 100 -205
106 -214 162 -257 31 -24 59 -42 62 -39 5 4 -173 407 -223 504 -28 55 -136
114 -207 114 -44 0 -46 -1 -34 -17z"/>
<path d="M6510 6430 c62 -157 70 -162 70 -41 l0 91 -45 0 -45 0 20 -50z"/>
<path d="M1234 6287 c-313 -136 -681 -525 -883 -932 -75 -149 -99 -221 -82
-238 21 -21 85 43 301 303 147 176 347 396 540 595 192 197 250 262 250 281 0
21 -67 16 -126 -9z m-200 -214 c-15 -21 -85 -105 -154 -188 -69 -82 -154 -186
-190 -230 -95 -118 -182 -216 -188 -211 -12 13 122 219 232 356 112 139 287
310 318 310 6 0 -2 -17 -18 -37z"/>
<path d="M265 6271 c-63 -29 -140 -96 -205 -177 -60 -75 -60 -75 -60 -142 l0
-67 22 35 c91 150 161 240 175 226 9 -8 -54 -130 -132 -255 -55 -88 -65 -110
-65 -149 l0 -45 46 59 c26 32 89 122 140 199 183 277 208 376 79 316z"/>
<path d="M5865 6216 c-18 -13 -18 -15 5 -72 30 -72 175 -291 294 -443 105
-133 258 -296 297 -317 26 -13 29 -12 38 5 19 35 -26 170 -108 328 -97 183
-192 303 -319 405 -111 88 -175 117 -207 94z m247 -203 c59 -62 175 -265 214
-375 42 -119 -104 73 -217 285 -67 127 -66 161 3 90z"/>
<path d="M6500 6224 c0 -14 62 -114 71 -114 5 0 9 22 9 49 0 52 3 49 -62 67
-10 3 -18 2 -18 -2z"/>
<path d="M5664 5894 c85 -96 101 -109 194 -168 31 -19 61 -55 106 -124 147
-227 306 -526 411 -773 58 -136 185 -355 192 -332 6 17 -97 302 -169 468 -106
246 -340 683 -402 754 -59 66 -289 218 -411 270 -5 2 30 -40 79 -95z"/>
<path d="M596 5927 c-73 -44 -260 -206 -294 -254 -24 -35 -47 -81 -57 -113 -6
-20 3 -15 51 30 36 35 51 45 41 28 -66 -107 -172 -300 -248 -452 -79 -160 -89
-185 -89 -234 0 -49 2 -53 16 -41 9 7 54 90 101 184 47 93 117 226 156 294 66
118 286 453 363 554 20 26 34 47 32 47 -1 0 -34 -19 -72 -43z"/>
<path d="M6380 5845 c0 -5 19 -39 43 -77 32 -53 49 -70 72 -76 23 -6 36 -20
58 -62 l27 -54 0 87 0 87 -42 31 c-59 44 -158 83 -158 64z"/>
<path d="M1070 5702 c-252 -207 -350 -303 -499 -487 -173 -214 -202 -264 -300
-505 -56 -137 -50 -136 30 5 79 140 95 153 40 33 -157 -340 -251 -659 -312
-1058 -20 -126 -23 -185 -23 -460 0 -337 8 -432 60 -695 23 -118 33 -146 106
-297 45 -92 83 -167 84 -165 2 2 -10 45 -27 97 -241 750 -221 1552 58 2280
173 451 417 835 769 1209 81 87 87 103 14 43z"/>
<path d="M147 5657 c-15 -7 -55 -39 -87 -71 -55 -55 -60 -63 -60 -104 0 -43 1
-44 18 -29 31 29 33 19 7 -40 -22 -48 -25 -69 -23 -136 l3 -79 94 197 c113
237 123 295 48 262z"/>
<path d="M5606 5495 c160 -178 282 -342 411 -552 36 -59 90 -135 120 -168 66
-72 85 -109 152 -287 91 -243 158 -506 198 -773 25 -172 25 -707 -1 -880 -51
-349 -141 -656 -284 -973 -86 -189 -220 -420 -330 -569 -84 -113 -83 -118 3
-28 198 207 260 296 372 540 445 963 438 2040 -20 3018 -87 185 -304 438 -552
643 -169 140 -170 140 -69 29z"/>
<path d="M6334 5375 c-10 -26 14 -103 100 -310 45 -110 96 -234 112 -275 l29
-75 3 94 c3 85 0 103 -34 203 -20 60 -34 112 -31 115 3 3 20 -16 36 -43 l31
-48 0 55 c0 60 -15 89 -98 188 -44 51 -115 111 -134 111 -5 0 -11 -7 -14 -15z"/>
<path d="M247 4941 c-54 -57 -182 -243 -225 -327 -19 -38 -21 -59 -21 -224 -1
-101 1 -181 3 -179 2 2 16 47 31 99 42 147 120 349 201 524 40 88 72 161 70
163 -1 2 -28 -23 -59 -56z"/>
<path d="M6541 4273 c0 -32 8 -105 18 -163 l19 -105 1 151 c1 144 -4 174 -31
174 -4 0 -8 -26 -7 -57z"/>
<path d="M6562 2549 c-7 -42 -42 -195 -77 -340 -36 -145 -65 -274 -65 -286 0
-53 52 -6 114 102 l46 81 -2 259 c-3 250 -4 257 -16 184z"/>
<path d="M1 2125 c-1 -78 1 -86 88 -305 49 -124 123 -303 165 -399 85 -192 95
-244 27 -141 -70 106 -158 296 -222 476 l-59 169 3 -125 2 -125 73 -150 c125
-257 294 -482 429 -570 45 -29 63 -27 63 7 0 11 -67 152 -149 312 -165 323
-261 528 -345 746 -79 203 -75 197 -75 105z"/>
<path d="M210 1801 c0 -5 41 -91 92 -192 84 -168 95 -185 145 -223 42 -32 74
-73 144 -183 141 -222 343 -498 501 -683 57 -67 82 -85 224 -169 87 -52 163
-97 168 -99 24 -13 -15 32 -186 214 -303 323 -459 518 -663 827 -188 285 -326
469 -371 494 -43 25 -54 28 -54 14z"/>
<path d="M6496 1649 c-71 -103 -195 -339 -178 -339 4 0 25 23 47 51 75 96 77
94 17 -21 -99 -192 -263 -452 -399 -637 -30 -40 -51 -73 -49 -73 3 0 39 21 81
47 73 45 78 50 169 192 155 243 259 429 345 619 50 110 52 115 49 194 l-3 80
-79 -113z"/>
<path d="M6264 1503 c-26 -27 -107 -123 -180 -214 -251 -316 -431 -509 -842
-900 -103 -98 -182 -182 -182 -191 0 -29 53 -22 157 22 297 124 612 416 869
805 150 228 283 525 235 525 -5 0 -31 -21 -57 -47z m-238 -427 c-146 -234
-416 -549 -552 -642 -105 -72 -80 -35 136 202 75 82 180 203 235 269 147 177
217 256 223 251 2 -3 -16 -39 -42 -80z"/>
<path d="M6473 1226 c-112 -233 -133 -290 -115 -308 19 -19 74 16 152 99 68
71 70 74 70 125 l0 53 -27 -40 c-38 -56 -39 -29 -3 61 26 66 30 88 28 149 l-3
72 -102 -211z"/>
<path d="M0 1295 c0 -42 5 -75 13 -84 7 -9 33 -61 56 -116 24 -55 81 -181 128
-280 l84 -180 71 -52 c39 -29 73 -51 75 -49 2 2 -45 102 -105 222 -60 121
-144 294 -186 385 -46 99 -89 178 -107 195 l-29 28 0 -69z"/>
<path d="M344 985 c-25 -64 114 -337 261 -514 123 -148 235 -239 380 -308 175
-83 165 6 -29 241 -187 228 -497 540 -577 582 -26 13 -30 13 -35 -1z m258
-273 c105 -116 268 -357 268 -396 0 -67 -196 168 -285 340 -52 102 -45 125 17
56z"/>
<path d="M6531 859 c-38 -44 -91 -135 -91 -156 0 -4 23 15 50 42 28 27 50 46
50 43 0 -11 -107 -193 -207 -352 -51 -82 -91 -151 -89 -153 2 -2 30 9 61 24
56 29 58 31 166 213 l109 185 0 102 c0 57 -1 103 -2 103 -2 0 -23 -23 -47 -51z"/>
<path d="M5545 834 c-107 -87 -368 -269 -502 -350 -195 -119 -435 -232 -677
-320 -143 -51 -160 -64 -88 -64 53 0 182 42 353 116 44 18 79 31 79 29 0 -2
-52 -34 -116 -72 l-116 -68 112 -3 111 -3 149 107 c244 173 404 308 605 506
105 103 186 187 180 187 -5 0 -46 -30 -90 -65z"/>
<path d="M6301 779 c-67 -45 -247 -231 -396 -409 -89 -107 -195 -251 -195
-264 0 -3 38 -6 84 -6 83 0 84 0 142 43 197 145 492 573 457 663 -8 22 -27 17
-92 -27z m-71 -156 c0 -11 -61 -115 -112 -191 -87 -130 -207 -257 -224 -239
-13 12 86 154 228 329 79 96 108 123 108 101z"/>
<path d="M0 722 c0 -27 7 -54 19 -70 45 -64 149 -298 137 -309 -2 -3 -13 0
-24 6 -23 12 -50 53 -98 149 l-33 67 -1 -77 c0 -76 0 -77 45 -131 67 -83 176
-157 231 -157 26 0 26 1 22 50 -9 89 -152 349 -262 475 l-35 40 -1 -43z"/>
<path d="M1446 553 c-15 -16 0 -40 77 -119 100 -105 236 -221 336 -286 l74
-48 138 0 c127 0 159 6 129 25 -19 12 -10 25 18 25 15 0 70 -11 122 -25 73
-19 120 -24 200 -24 l105 0 -135 35 c-259 66 -499 157 -815 309 -208 100 -242
115 -249 108z"/>
<path d="M5862 506 c-127 -78 -378 -264 -404 -298 -42 -56 -44 -62 -17 -47 13
6 49 29 79 49 98 65 97 61 -19 -62 l-45 -48 61 0 61 0 129 152 c155 183 237
287 231 293 -2 3 -37 -15 -76 -39z"/>
<path d="M241 518 c36 -70 70 -107 109 -120 39 -13 44 -20 114 -153 l73 -140
57 -3 c31 -2 56 0 56 3 0 3 -36 73 -80 154 -74 135 -85 151 -138 188 -70 49
-126 78 -170 88 -33 7 -33 6 -21 -17z"/>
<path d="M6565 504 c-4 -22 -2 -41 4 -47 8 -8 11 3 11 36 0 56 -5 60 -15 11z"/>
<path d="M1000 442 c0 -4 33 -40 73 -79 60 -59 86 -77 152 -104 72 -29 85 -39
130 -95 l50 -63 100 0 99 -1 -39 41 c-41 41 -174 118 -394 229 -140 70 -171
83 -171 72z"/>
<path d="M6525 319 c-85 -54 -169 -129 -187 -167 -9 -20 -15 -38 -13 -41 3 -2
19 7 37 21 57 43 63 43 39 5 l-23 -37 44 0 44 0 58 100 c38 66 56 108 54 125
l-3 26 -50 -32z"/>
<path d="M0 168 l0 -68 35 0 c19 0 35 2 35 5 0 7 -45 94 -59 115 -8 11 -11 -3
-11 -52z"/>
<path d="M90 186 c0 -4 12 -24 26 -46 l27 -40 80 0 c49 0 77 4 71 9 -34 33
-204 97 -204 77z"/>
<path d="M777 183 c-12 -12 -7 -74 6 -79 8 -3 56 -3 108 -2 l94 3 -86 43 c-84
41 -109 49 -122 35z"/>
<path d="M6174 162 c-27 -16 -61 -36 -74 -45 -24 -17 -24 -17 33 -17 55 0 57
1 82 40 38 61 34 63 -41 22z"/>
<path d="M5210 161 c-30 -10 -75 -28 -100 -39 l-45 -21 102 0 c102 -1 103 -1
116 27 15 29 12 52 -6 51 -7 0 -37 -8 -67 -18z"/>
</g>
</svg>
